SplineFontDB: 3.0
FontName: Vidaloka-Regular
FullName: Vidaloka 
FamilyName: Vidaloka 
Weight: Book
Copyright: Copyright (c) 2011, Cyreal (www.cyreal.org) with Reserved Font Name "Vidaloka".
Version: 1.000
ItalicAngle: 0
UnderlinePosition: -103
UnderlineWidth: 102
Ascent: 1638
Descent: 410
LayerCount: 2
Layer: 0 1 "Back"  1
Layer: 1 1 "Fore"  0
NeedsXUIDChange: 1
XUID: [1021 230 1610532706 8811557]
FSType: 0
OS2Version: 3
OS2_WeightWidthSlopeOnly: 0
OS2_UseTypoMetrics: 1
CreationTime: 1312297200
ModificationTime: 1312558586
PfmFamily: 17
TTFWeight: 400
TTFWidth: 5
LineGap: 0
VLineGap: 0
Panose: 2 0 5 4 0 0 0 2 0 4
OS2TypoAscent: 1927
OS2TypoAOffset: 0
OS2TypoDescent: -560
OS2TypoDOffset: 0
OS2TypoLinegap: 0
OS2WinAscent: 1927
OS2WinAOffset: 0
OS2WinDescent: 560
OS2WinDOffset: 0
HheadAscent: 1927
HheadAOffset: 0
HheadDescent: -560
HheadDOffset: 0
OS2SubXSize: 1434
OS2SubYSize: 1331
OS2SubXOff: 0
OS2SubYOff: 287
OS2SupXSize: 1434
OS2SupYSize: 1331
OS2SupXOff: 0
OS2SupYOff: 977
OS2StrikeYSize: 102
OS2StrikeYPos: 512
OS2Vendor: 'pyrs'
OS2CodePages: 00000003.00000000
OS2UnicodeRanges: 800000af.40000043.00000000.00000000
Lookup: 258 0 0 "'kern' Horizontal Kerning in Latin lookup 0"  {"'kern' Horizontal Kerning in Latin lookup 0 per glyph data 0"  "'kern' Horizontal Kerning in Latin lookup 0 kerning class 1"  } ['kern' ('latn' <'dflt' > ) ]
DEI: 91125
KernClass2: 75+ 63 "'kern' Horizontal Kerning in Latin lookup 0 kerning class 1" 
 20 hyphen endash emdash
 12 comma period
 3 one
 4 zero
 4 four
 5 seven
 4 nine
 20 quotedbl quotesingle
 5 slash
 8 asterisk
 9 backslash
 3 bar
 13 guilsinglleft
 14 guilsinglright
 27 quotesinglbase quotedblbase
 7 uni00AD
 10 registered
 13 guillemotleft
 14 guillemotright
 12 questiondown
 10 exclamdown
 22 quoteleft quotedblleft
 24 quoteright quotedblright
 53 O Q Oslash Ograve Oacute Ocircumflex Otilde Odieresis
 41 H I M Igrave Iacute Icircumflex Idieresis
 1 J
 1 K
 10 C Ccedilla

StartChar: .notdef
Encoding: 65536 -1 0
Width: 1008
Flags: HW
HStem: 0 20<160 848> 984 20<160 848>
VStem: 80 80<20 984> 848 80<20 984>
LayerCount: 2
Fore
SplineSet
80 1004 m 1,0,-1
 928 1004 l 1,1,-1
 928 0 l 1,2,-1
 80 0 l 1,3,-1
 80 1004 l 1,0,-1
160 20 m 1,4,-1
 848 20 l 1,5,-1
 848 984 l 1,6,-1
 160 984 l 1,7,-1
 160 20 l 1,4,-1
EndSplineSet
EndChar

StartChar: f
Encoding: 102 102 4
Width: 680
Flags: HW
HStem: 0 41<81 183 429 572> 951 53<36 183 429 670> 1161 287<562.125 685.54> 1403 45<463.573 560.674>
VStem: 183 246<51 951 1004 1256.73> 562 186<1290.32 1388.06>
LayerCount: 2
Fore
SplineSet
562 1378 m 1,0,1
 554 1403 554 1403 518 1403 c 128,-1,2
 482 1403 482 1403 465.5 1387 c 128,-1,3
 449 1371 449 1371 441 1346 c 0,4,5
 429 1310 429 1310 429 1237 c 2,6,-1
 429 1004 l 1,7,-1
 670 1004 l 1,8,-1
 670 961 l 1,9,-1
 429 951 l 1,10,-1
 429 51 l 1,11,-1
 572 41 l 1,12,-1
 572 0 l 1,13,-1
 81 0 l 1,14,-1
 81 41 l 1,15,-1
 183 51 l 1,16,-1
 183 951 l 1,17,-1
 36 961 l 1,18,-1
 36 1004 l 1,19,-1
 183 1004 l 1,20,21
 185 1197 185 1197 253 1310 c 0,22,23
 304 1394 304 1394 396 1428 c 0,24,25
 449 1448 449 1448 513.5 1448 c 128,-1,26
 578 1448 578 1448 620 1435 c 128,-1,27
 662 1422 662 1422 690 1400 c 0,28,29
 748 1354 748 1354 748 1280 c 0,30,31
 748 1231 748 1231 725 1205 c 0,32,33
 685 1161 685 1161 644.5 1161 c 128,-1,34
 604 1161 604 1161 583 1171 c 128,-1,35
 562 1181 562 1181 548 1198 c 0,36,37
 519 1230 519 1230 519 1288.5 c 128,-1,38
 519 1347 519 1347 562 1374 c 1,39,-1
 562 1378 l 1,0,1
EndSplineSet
EndChar

StartChar: g
Encoding: 103 103 5
Width: 1121
Flags: HW
HStem: -495 52<396.218 740.561> -69 231<332.156 852.944> 347 45<448.633 599.916> 877 223<955.91 1090.51> 989 45<455.182 606.916>
VStem: 66 178<-349.69 -132.607> 103 120<82.5 284.224> 115 246<515.317 846.702> 687 246<522.625 851.904> 912 111<-300.476 -123.739> 937 186<908.457 1025.67>
LayerCount: 2
Fore
SplineSet
289 -45 m 1,0,1
 103 9 103 9 103 156 c 0,2,3
 103 244 103 244 172 312 c 0,4,5
 227 368 227 368 300 390 c 1,6,-1
 300 392 l 1,7,8
 206 436 206 436 160.5 513.5 c 128,-1,9
 115 591 115 591 115 675.5 c 128,-1,10
 115 760 115 760 147 823.5 c 128,-1,11
 179 887 179 887 235 934 c 0,12,13
 354 1034 354 1034 524 1034 c 128,-1,14
 694 1034 694 1034 805 947 c 1,15,16
 885 1100 885 1100 1000 1100 c 0,17,18
 1060 1100 1060 1100 1091.5 1066.5 c 128,-1,19
 1123 1033 1123 1033 1123 985.5 c 128,-1,20
 1123 938 1123 938 1097 907.5 c 128,-1,21
 1071 877 1071 877 1027.5 877 c 128,-1,22
 984 877 984 877 955 901.5 c 128,-1,23
 926 926 926 926 926 964.5 c 128,-1,24
 926 1003 926 1003 937 1022 c 1,25,-1
 937 1026 l 1,26,27
 911 1021 911 1021 885 989.5 c 128,-1,28
 859 958 859 958 842 913 c 1,29,30
 933 816 933 816 933 687 c 0,31,32
 933 537 933 537 818 442 c 0,33,34
 702 347 702 347 527 347 c 0,35,36
 430 347 430 347 351 372 c 1,37,38
 291 351 291 351 257 320 c 128,-1,39
 223 289 223 289 223 254 c 0,40,41
 223 162 223 162 555 162 c 0,42,43
 823 162 823 162 922 98 c 0,44,45
 1023 33 1023 33 1023 -141 c 0,46,47
 1023 -277 1023 -277 915 -376 c 0,48,49
 785 -495 785 -495 541 -495 c 0,50,51
 179 -495 179 -495 88 -344 c 0,52,53
 66 -307 66 -307 66 -252 c 128,-1,54
 66 -197 66 -197 92 -157 c 128,-1,55
 118 -117 118 -117 154 -93 c 0,56,57
 223 -47 223 -47 289 -47 c 1,58,-1
 289 -45 l 1,0,1
889 -313.5 m 128,-1,60
 912 -274 912 -274 912 -223.5 c 128,-1,61
 912 -173 912 -173 886 -141.5 c 128,-1,62
 860 -110 860 -110 816 -94.5 c 128,-1,63
 772 -79 772 -79 714 -74.5 c 128,-1,64
 656 -70 656 -70 591 -69 c 0,65,66
 398 -66 398 -66 330 -55 c 1,67,68
 329 -56 329 -56 315.5 -66 c 128,-1,69
 302 -76 302 -76 286 -97 c 0,70,71
 244 -152 244 -152 244 -221 c 128,-1,72
 244 -290 244 -290 274 -332 c 128,-1,73
 304 -374 304 -374 352 -398 c 0,74,75
 439 -443 439 -443 547.5 -443 c 128,-1,76
 656 -443 656 -443 718 -427 c 128,-1,77
 780 -411 780 -411 823 -382 c 128,-1,59
 866 -353 866 -353 889 -313.5 c 128,-1,60
361 691 m 0,78,79
 361 392 361 392 524 392 c 128,-1,80
 687 392 687 392 687 685 c 0,81,82
 687 841 687 841 651 915 c 128,-1,83
 615 989 615 989 531 989 c 128,-1,84
 447 989 447 989 404 911 c 128,-1,85
 361 833 361 833 361 691 c 0,78,79
EndSplineSet
EndChar

StartChar: h
Encoding: 104 104 6
Width: 1149
Flags: HW
HStem: 0 41<61 164 409 512 649 751 997 1099> 944 90<544.231 824> 1348 41<41 164> 1428 20G<314.784 400.655>
VStem: 164 245<51 840.266 860 1348> 751 246<51 903.188>
LayerCount: 2
Fore
SplineSet
409 860 m 1,0,1
 527 1034 527 1034 717 1034 c 0,2,3
 931 1034 931 1034 984 828 c 0,4,5
 997 775 997 775 997 702 c 2,6,-1
 997 51 l 1,7,-1
 1099 41 l 1,8,-1
 1099 0 l 1,9,-1
 649 0 l 1,10,-1
 649 41 l 1,11,-1
 751 51 l 1,12,-1
 751 731 l 2,13,14
 751 865 751 865 696 916 c 0,15,16
 664 944 664 944 616.5 944 c 128,-1,17
 569 944 569 944 531.5 922.5 c 128,-1,18
 494 901 494 901 467 862 c 0,19,20
 409 778 409 778 409 647 c 2,21,-1
 409 51 l 1,22,-1
 512 41 l 1,23,-1
 512 0 l 1,24,-1
 61 0 l 1,25,-1
 61 41 l 1,26,-1
 164 51 l 1,27,-1
 164 1348 l 1,28,-1
 41 1348 l 1,29,-1
 41 1389 l 1,30,-1
 250 1411 l 1,31,-1
 391 1448 l 1,32,-1
 405 1419 l 1,33,-1
 405 860 l 1,34,-1
 409 860 l 1,0,1
EndSplineSet
EndChar

StartChar: i
Encoding: 105 105 7
Width: 586
Flags: HW
HStem: 0 41<77 180 425 528> 924 41<57 180> 1004 20G<330.784 419.414> 1246 265<205.707 396.723>
VStem: 180 245<51 924 1274.8 1471.29>
LayerCount: 2
Fore
SplineSet
425 51 m 1,0,-1
 528 41 l 1,1,-1
 528 0 l 1,2,-1
 77 0 l 1,3,-1
 77 41 l 1,4,-1
 180 51 l 1,5,-1
 180 924 l 1,6,-1
 57 924 l 1,7,-1
 57 965 l 1,8,-1
 266 987 l 1,9,-1
 407 1024 l 1,10,-1
 425 995 l 1,11,-1
 425 51 l 1,0,-1
298 1511 m 256,12,13
 353 1511 353 1511 392 1472 c 128,-1,14
 431 1433 431 1433 431 1392 c 128,-1,15
 431 1351 431 1351 420.5 1327 c 128,-1,16
 410 1303 410 1303 392 1285 c 0,17,18
 353 1246 353 1246 298 1246 c 256,19,20
 243 1246 243 1246 204 1285 c 0,21,22
 166 1323 166 1323 166 1364 c 0,23,24
 166 1434 166 1434 204.5 1472.5 c 128,-1,25
 243 1511 243 1511 298 1511 c 256,12,13
EndSplineSet
EndChar

StartChar: j
Encoding: 106 106 8
Width: 561
Flags: HW
HStem: -495 45<24.5237 126.137> 924 41<46 169> 1004 20G<320.243 409.414> 1246 265<195.707 386.723>
VStem: -160 184<-442.992 -366.938> 169 246<-294.75 924 1274.8 1471.29>
LayerCount: 2
Fore
SplineSet
24 -427 m 1,0,1
 38 -450 38 -450 62.5 -450 c 128,-1,2
 87 -450 87 -450 103.5 -445 c 128,-1,3
 120 -440 120 -440 134 -420 c 0,4,5
 169 -371 169 -371 169 -245 c 2,6,-1
 169 924 l 1,7,-1
 46 924 l 1,8,-1
 46 965 l 1,9,-1
 255 987 l 1,10,-1
 397 1024 l 1,11,-1
 415 995 l 1,12,-1
 415 -45 l 2,13,14
 415 -243 415 -243 338 -357 c 0,15,16
 246 -495 246 -495 48 -495 c 0,17,18
 -62 -495 -62 -495 -116 -443 c 0,19,20
 -160 -401 -160 -401 -160 -333 c 0,21,22
 -160 -283 -160 -283 -136 -256 c 0,23,24
 -92 -208 -92 -208 -51.5 -208 c 128,-1,25
 -11 -208 -11 -208 10.5 -218 c 128,-1,26
 32 -228 32 -228 46 -245 c 0,27,28
 75 -278 75 -278 75 -327 c 0,29,30
 75 -367 75 -367 56 -391 c 128,-1,31
 37 -415 37 -415 24 -423 c 1,32,-1
 24 -427 l 1,0,1
288 1511 m 256,33,34
 343 1511 343 1511 382 1472 c 128,-1,35
 421 1433 421 1433 421 1392 c 128,-1,36
 421 1351 421 1351 410.5 1327 c 128,-1,37
 400 1303 400 1303 382 1285 c 0,38,39
 343 1246 343 1246 288 1246 c 256,40,41
 233 1246 233 1246 194 1285 c 0,42,43
 156 1323 156 1323 156 1364 c 0,44,45
 156 1434 156 1434 194.5 1472.5 c 128,-1,46
 233 1511 233 1511 288 1511 c 256,33,34
EndSplineSet
EndChar

StartChar: k
Encoding: 107 107 9
Width: 1080
Flags: HW
HStem: 0 41<61 164 409 512 633 714 987 1091> 963 41<686 798 872 985> 1348 41<43 164> 1428 20G<314.784 403.414>
VStem: 164 245<51 522 547 1350>
LayerCount: 2
Fore
SplineSet
585 647 m 1,0,-1
 987 51 l 1,1,-1
 1091 41 l 1,2,-1
 1091 0 l 1,3,-1
 633 0 l 1,4,-1
 633 41 l 1,5,-1
 714 51 l 1,6,-1
 409 522 l 1,7,-1
 409 51 l 1,8,-1
 512 41 l 1,9,-1
 512 0 l 1,10,-1
 61 0 l 1,11,-1
 61 41 l 1,12,-1
 164 51 l 1,13,-1
 164 1350 l 1,14,-1
 43 1348 l 1,15,-1
 41 1389 l 1,16,-1
 250 1411 l 1,17,-1
 391 1448 l 1,18,-1
 409 1419 l 1,19,-1
 409 547 l 1,20,-1
 798 952 l 1,21,-1
 686 963 l 1,22,-1
 686 1004 l 1,23,-1
 985 1004 l 1,24,-1
 985 963 l 1,25,-1
 872 952 l 1,26,-1
 585 647 l 1,0,-1
EndSplineSet
EndChar

StartChar: l
Encoding: 108 108 10
Width: 572
Flags: HW
HStem: 0 41<61 164 409 512> 1348 41<41 164> 1428 20G<314.784 403.414>
VStem: 164 245<51 1348>
LayerCount: 2
Fore
SplineSet
409 51 m 1,0,-1
 512 41 l 1,1,-1
 512 0 l 1,2,-1
 61 0 l 1,3,-1
 61 41 l 1,4,-1
 164 51 l 1,5,-1
 164 1348 l 1,6,-1
 41 1348 l 1,7,-1
 41 1389 l 1,8,-1
 250 1411 l 1,9,-1
 391 1448 l 1,10,-1
 409 1419 l 1,11,-1
 409 51 l 1,0,-1
EndSplineSet
EndChar

StartChar: m
Encoding: 109 109 11
Width: 1700
Flags: HW
HStem: 0 41<77 180 425 528 634 736 982 1085 1201 1303 1549 1652> 924 41<57 180> 944 90<554.667 776 1114.45 1365>
VStem: 180 245<51 830.313 860 924> 736 246<51 840.831> 1303 246<51 905.5>
LayerCount: 2
Fore
SplineSet
965 847 m 1,0,1
 1099 1034 1099 1034 1277 1034 c 0,2,3
 1453 1034 1453 1034 1521 872 c 0,4,5
 1549 806 1549 806 1549 696 c 2,6,-1
 1549 51 l 1,7,-1
 1652 41 l 1,8,-1
 1652 0 l 1,9,-1
 1201 0 l 1,10,-1
 1201 41 l 1,11,-1
 1303 51 l 1,12,-1
 1303 731 l 2,13,14
 1303 865 1303 865 1252 916 c 0,15,16
 1224 944 1224 944 1186 944 c 128,-1,17
 1148 944 1148 944 1114 927.5 c 128,-1,18
 1080 911 1080 911 1051 876 c 0,19,20
 982 794 982 794 982 667 c 2,21,-1
 982 51 l 1,22,-1
 1085 41 l 1,23,-1
 1085 0 l 1,24,-1
 634 0 l 1,25,-1
 634 41 l 1,26,-1
 736 51 l 1,27,-1
 736 731 l 2,28,29
 736 866 736 866 686 916 c 0,30,31
 658 944 658 944 620 944 c 128,-1,32
 582 944 582 944 549.5 922.5 c 128,-1,33
 517 901 517 901 489 862 c 0,34,35
 425 773 425 773 425 647 c 2,36,-1
 425 51 l 1,37,-1
 528 41 l 1,38,-1
 528 0 l 1,39,-1
 77 0 l 1,40,-1
 77 41 l 1,41,-1
 180 51 l 1,42,-1
 180 924 l 1,43,-1
 57 924 l 1,44,-1
 57 965 l 1,45,-1
 266 987 l 1,46,-1
 407 1024 l 1,47,-1
 421 995 l 1,48,-1
 421 860 l 1,49,-1
 425 860 l 1,50,51
 543 1034 543 1034 712 1034 c 0,52,53
 840 1034 840 1034 915 942 c 0,54,55
 945 906 945 906 963 847 c 1,56,-1
 965 847 l 1,0,1
EndSplineSet
EndChar

StartChar: n
Encoding: 110 110 12
Width: 1164
Flags: HW
HStem: 0 41<76 179 424 527 664 766 1012 1114> 924 41<58 179> 944 90<559.231 839>
VStem: 179 245<51 840.266 860 926> 766 246<51 903.188>
LayerCount: 2
Fore
SplineSet
424 860 m 1,0,1
 542 1034 542 1034 732 1034 c 0,2,3
 946 1034 946 1034 998 828 c 0,4,5
 1012 775 1012 775 1012 702 c 2,6,-1
 1012 51 l 1,7,-1
 1114 41 l 1,8,-1
 1114 0 l 1,9,-1
 664 0 l 1,10,-1
 664 41 l 1,11,-1
 766 51 l 1,12,-1
 766 731 l 2,13,14
 766 865 766 865 710 916 c 0,15,16
 679 944 679 944 631.5 944 c 128,-1,17
 584 944 584 944 546.5 922.5 c 128,-1,18
 509 901 509 901 482 862 c 0,19,20
 424 778 424 778 424 647 c 2,21,-1
 424 51 l 1,22,-1
 527 41 l 1,23,-1
 527 0 l 1,24,-1
 76 0 l 1,25,-1
 76 41 l 1,26,-1
 179 51 l 1,27,-1
 179 926 l 1,28,-1
 58 924 l 1,29,-1
 56 965 l 1,30,-1
 265 987 l 1,31,-1
 406 1024 l 1,32,-1
 424 995 l 1,33,-1
 420 860 l 1,34,-1
 424 860 l 1,0,1
EndSplineSet
EndChar

StartChar: o
Encoding: 111 111 13
Width: 1071
Flags: HW
HStem: -30 45<463.237 610.251> 989 45<460.415 616.314>
VStem: 80 256<237.898 736.936> 736 256<261.775 748.551>
LayerCount: 2
Fore
SplineSet
548 1034 m 0,0,1
 655 1034 655 1034 740 988.5 c 128,-1,2
 825 943 825 943 881 868 c 0,3,4
 992 719 992 719 992 502 c 0,5,6
 992 276 992 276 868 125 c 0,7,8
 739 -30 739 -30 539 -30 c 0,9,10
 310 -30 310 -30 189 126 c 0,11,12
 80 266 80 266 80 496 c 128,-1,13
 80 726 80 726 209 880 c 0,14,15
 339 1034 339 1034 548 1034 c 0,0,1
336 508 m 0,16,17
 336 15 336 15 536 15 c 128,-1,18
 736 15 736 15 736 496 c 0,19,20
 736 866 736 866 632 956 c 0,21,22
 593 989 593 989 537 989 c 128,-1,23
 481 989 481 989 443 952.5 c 128,-1,24
 405 916 405 916 381 852 c 0,25,26
 336 732 336 732 336 508 c 0,16,17
EndSplineSet
EndChar

StartChar: p
Encoding: 112 112 14
Width: 1114
Flags: HW
HStem: -475 41<66 169 414 517> -30 53<453.802 637.766> 924 41<46 169> 954 80<530.921 695.203>
VStem: 169 245<-424 21 42.9219 857.366 865 924> 775 256<250.606 794.506>
LayerCount: 2
Fore
SplineSet
586 -30 m 0,0,1
 479 -30 479 -30 414 21 c 1,2,-1
 414 -424 l 1,3,-1
 517 -434 l 1,4,-1
 517 -475 l 1,5,-1
 66 -475 l 1,6,-1
 66 -434 l 1,7,-1
 169 -424 l 1,8,-1
 169 924 l 1,9,-1
 46 924 l 1,10,-1
 46 965 l 1,11,-1
 255 987 l 1,12,-1
 396 1024 l 1,13,-1
 410 995 l 1,14,-1
 410 865 l 1,15,-1
 414 865 l 1,16,17
 495 1003 495 1003 608 1026 c 0,18,19
 644 1034 644 1034 676 1034 c 128,-1,20
 708 1034 708 1034 743 1027 c 128,-1,21
 778 1020 778 1020 816.5 999.5 c 128,-1,22
 855 979 855 979 893.5 943 c 128,-1,23
 932 907 932 907 962 849 c 0,24,25
 1031 719 1031 719 1031 512 c 0,26,27
 1031 277 1031 277 920 130 c 0,28,29
 799 -30 799 -30 586 -30 c 0,0,1
414 74 m 1,30,31
 471 23 471 23 532.5 23 c 128,-1,32
 594 23 594 23 634 47 c 128,-1,33
 674 71 674 71 700.5 111.5 c 128,-1,34
 727 152 727 152 742 204 c 128,-1,35
 757 256 757 256 764 312 c 0,36,37
 775 390 775 390 775 521 c 128,-1,38
 775 652 775 652 762.5 734.5 c 128,-1,39
 750 817 750 817 727 866 c 0,40,41
 686 954 686 954 599 954 c 256,42,43
 521 954 521 954 466 870 c 0,44,45
 414 790 414 790 414 688 c 2,46,-1
 414 74 l 1,30,31
EndSplineSet
EndChar

StartChar: q
Encoding: 113 113 15
Width: 1100
Flags: HW
HStem: -475 41<605 707 953 1055> -30 81<426.643 585.011> 974 60<455.129 614.6> 984 20G<860.101 953>
VStem: 84 256<196.87 753.744> 707 246<-424 142 156.562 909.591>
LayerCount: 2
Fore
SplineSet
1055 -434 m 1,0,-1
 1055 -475 l 1,1,-1
 605 -475 l 1,2,-1
 605 -434 l 1,3,-1
 707 -424 l 1,4,-1
 707 142 l 1,5,-1
 703 142 l 1,6,7
 620 1 620 1 508 -22 c 0,8,9
 471 -30 471 -30 439 -30 c 128,-1,10
 407 -30 407 -30 372 -24 c 128,-1,11
 337 -18 337 -18 298.5 1 c 128,-1,12
 260 20 260 20 221.5 54.5 c 128,-1,13
 183 89 183 89 152 146 c 0,14,15
 84 274 84 274 84 481 c 0,16,17
 84 715 84 715 185 866 c 0,18,19
 297 1034 297 1034 492 1034 c 0,20,21
 583 1034 583 1034 658 977 c 0,22,23
 685 956 685 956 707 925 c 1,24,-1
 912 1004 l 1,25,-1
 953 1004 l 1,26,-1
 953 -424 l 1,27,-1
 1055 -434 l 1,0,-1
455.5 68 m 128,-1,29
 487 51 487 51 520.5 51 c 128,-1,30
 554 51 554 51 588.5 74.5 c 128,-1,31
 623 98 623 98 650 136 c 0,32,33
 707 217 707 217 707 318 c 2,34,-1
 707 791 l 1,35,36
 701 865 701 865 656 918 c 0,37,38
 609 974 609 974 552.5 974 c 128,-1,39
 496 974 496 974 461.5 950 c 128,-1,40
 427 926 427 926 404 885.5 c 128,-1,41
 381 845 381 845 368 793 c 128,-1,42
 355 741 355 741 349 685 c 0,43,44
 340 601 340 601 340 471 c 128,-1,45
 340 341 340 341 356.5 259.5 c 128,-1,46
 373 178 373 178 398.5 131.5 c 128,-1,28
 424 85 424 85 455.5 68 c 128,-1,29
EndSplineSet
EndChar

StartChar: r
Encoding: 114 114 16
Width: 868
Flags: HW
HStem: 0 41<77 180 425 528> 747 287<627.312 809.167> 924 41<57 180>
VStem: 180 245<51 800.52 823 924>
LayerCount: 2
Fore
SplineSet
607 824.5 m 128,-1,1
 598 847 598 847 598 884 c 128,-1,2
 598 921 598 921 620 950 c 1,3,-1
 620 956 l 1,4,5
 547 940 547 940 492 846 c 0,6,7
 425 731 425 731 425 549 c 2,8,-1
 425 51 l 1,9,-1
 528 41 l 1,10,-1
 528 0 l 1,11,-1
 77 0 l 1,12,-1
 77 41 l 1,13,-1
 180 51 l 1,14,-1
 180 924 l 1,15,-1
 57 924 l 1,16,-1
 57 965 l 1,17,-1
 266 987 l 1,18,-1
 407 1024 l 1,19,-1
 421 995 l 1,20,-1
 421 823 l 1,21,-1
 425 823 l 1,22,23
 493 958 493 958 606 1014 c 0,24,25
 646 1034 646 1034 707 1034 c 128,-1,26
 768 1034 768 1034 810.5 992.5 c 128,-1,27
 853 951 853 951 853 882 c 0,28,29
 853 792 853 792 780 758 c 0,30,31
 756 747 756 747 726.5 747 c 128,-1,32
 697 747 697 747 673 757 c 128,-1,33
 649 767 649 767 632.5 784.5 c 128,-1,0
 616 802 616 802 607 824.5 c 128,-1,1
EndSplineSet
EndChar

StartChar: s
Encoding: 115 115 17
Width: 912
Flags: HW
HStem: -30 47<298.008 553.09> 125 230<205.25 311.699> 989 45<339.216 579.16>
VStem: 90 115<81.0938 126> 92 155<645.5 890.752> 641 201<108.237 270.91>
LayerCount: 2
Fore
SplineSet
418 17 m 0,0,1
 532 17 532 17 586.5 59 c 128,-1,2
 641 101 641 101 641 164 c 128,-1,3
 641 227 641 227 596 272 c 0,4,5
 557 311 557 311 471 357 c 2,6,-1
 324 436 l 1,7,8
 92 555 92 555 92 736 c 0,9,10
 92 871 92 871 194 953 c 0,11,12
 295 1034 295 1034 457 1034 c 0,13,14
 588 1034 588 1034 681 976 c 0,15,16
 783 913 783 913 783 806 c 0,17,18
 783 730 783 730 716 698 c 0,19,20
 695 687 695 687 652 687 c 128,-1,21
 609 687 609 687 580 719 c 128,-1,22
 551 751 551 751 551 788.5 c 128,-1,23
 551 826 551 826 559 846.5 c 128,-1,24
 567 867 567 867 580 880 c 0,25,26
 607 907 607 907 647 907 c 2,27,-1
 656 907 l 1,28,-1
 656 909 l 1,29,30
 634 941 634 941 584.5 965 c 128,-1,31
 535 989 535 989 467.5 989 c 128,-1,32
 400 989 400 989 360 975 c 128,-1,33
 320 961 320 961 295 940 c 0,34,35
 247 898 247 898 247 841 c 0,36,37
 247 786 247 786 283 757 c 0,38,39
 337 714 337 714 435 663 c 2,40,-1
 598 579 l 1,41,42
 842 451 842 451 842 264 c 0,43,44
 842 54 842 54 610 -8 c 0,45,46
 531 -30 531 -30 451 -30 c 128,-1,47
 371 -30 371 -30 312.5 -17 c 128,-1,48
 254 -4 254 -4 204 24 c 0,49,50
 90 90 90 90 90 210 c 0,51,52
 90 268 90 268 116 299 c 0,53,54
 160 355 160 355 220 355 c 0,55,56
 299 355 299 355 326 284 c 0,57,58
 334 263 334 263 334.5 237 c 128,-1,59
 335 211 335 211 325 189.5 c 128,-1,60
 315 168 315 168 299 154 c 0,61,62
 266 125 266 125 222 125 c 2,63,-1
 214 125 l 2,64,65
 209 125 209 125 205 126 c 1,66,-1
 205 124 l 1,67,68
 236 54 236 54 339 26 c 0,69,70
 374 17 374 17 418 17 c 0,0,1
EndSplineSet
EndChar

StartChar: t
Encoding: 116 116 18
Width: 753
Flags: HW
HStem: -30 98<453.236 609.968> 952 52<5 175 421 640>
VStem: 175 246<98.457 952 1004 1225>
LayerCount: 2
Fore
SplineSet
261 1234 m 1,0,-1
 402 1271 l 1,1,-1
 421 1242 l 1,2,-1
 421 1004 l 1,3,-1
 640 1004 l 1,4,-1
 640 961 l 1,5,-1
 421 952 l 1,6,-1
 421 248 l 2,7,8
 421 135 421 135 472 92 c 0,9,10
 500 68 500 68 537.5 68 c 128,-1,11
 575 68 575 68 602.5 83 c 128,-1,12
 630 98 630 98 652.5 120.5 c 128,-1,13
 675 143 675 143 693 170 c 2,14,-1
 726 221 l 1,15,-1
 769 195 l 1,16,-1
 730 133 l 2,17,18
 671 43 671 43 578 -4 c 0,19,20
 527 -30 527 -30 475 -30 c 128,-1,21
 423 -30 423 -30 388.5 -25.5 c 128,-1,22
 354 -21 354 -21 322.5 -8 c 128,-1,23
 291 5 291 5 264 28 c 128,-1,24
 237 51 237 51 218 88 c 0,25,26
 175 170 175 170 175 305 c 2,27,-1
 175 952 l 1,28,-1
 5 961 l 1,29,-1
 5 1004 l 1,30,-1
 175 1004 l 1,31,-1
 175 1225 l 1,32,-1
 261 1234 l 1,0,-1
EndSplineSet
EndChar

StartChar: u
Encoding: 117 117 19
Width: 1142
Flags: HW
HStem: -30 93<337.857 603.828> 0 41<981 1084> 924 41<35 158 613 736> 1004 20G<308.784 398.103 886.784 975.414>
VStem: 158 246<105.704 924> 736 245<174.123 924>
LayerCount: 2
Fore
SplineSet
740 154 m 1,0,-1
 736 154 l 1,1,2
 681 73 681 73 637 38 c 0,3,4
 550 -30 550 -30 451 -30 c 0,5,6
 229 -30 229 -30 172 175 c 0,7,8
 158 228 158 228 158 301 c 2,9,-1
 158 924 l 1,10,-1
 35 924 l 1,11,-1
 35 965 l 1,12,-1
 244 987 l 1,13,-1
 385 1024 l 1,14,-1
 404 995 l 1,15,-1
 404 273 l 2,16,17
 404 140 404 140 464 90 c 0,18,19
 496 63 496 63 539 63 c 128,-1,20
 582 63 582 63 615.5 85.5 c 128,-1,21
 649 108 649 108 676 148 c 0,22,23
 736 238 736 238 736 369 c 2,24,-1
 736 924 l 1,25,-1
 613 924 l 1,26,-1
 613 965 l 1,27,-1
 822 987 l 1,28,-1
 963 1024 l 1,29,-1
 981 995 l 1,30,-1
 981 51 l 1,31,-1
 1084 41 l 1,32,-1
 1084 0 l 1,33,-1
 770 0 l 1,34,-1
 740 154 l 1,0,-1
EndSplineSet
EndChar

StartChar: x
Encoding: 120 120 20
Width: 1034
Flags: HW
HStem: 0 41<62 167 232 343 556 665 939 1037> 963 41<3 101 372 480 674 785 850 955>
LayerCount: 2
Fore
SplineSet
1037 41 m 1,0,-1
 1037 0 l 1,1,-1
 556 0 l 1,2,-1
 556 41 l 1,3,-1
 665 51 l 1,4,-1
 454 388 l 1,5,-1
 232 51 l 1,6,-1
 343 41 l 1,7,-1
 343 0 l 1,8,-1
 62 0 l 1,9,-1
 62 41 l 1,10,-1
 167 51 l 1,11,-1
 421 440 l 1,12,-1
 101 952 l 1,13,-1
 3 963 l 1,14,-1
 3 1004 l 1,15,-1
 480 1004 l 1,16,-1
 480 963 l 1,17,-1
 372 952 l 1,18,-1
 577 625 l 1,19,-1
 785 952 l 1,20,-1
 674 963 l 1,21,-1
 674 1004 l 1,22,-1
 955 1004 l 1,23,-1
 955 963 l 1,24,-1
 850 952 l 1,25,-1
 609 575 l 1,26,-1
 939 51 l 1,27,-1
 1037 41 l 1,0,-1
EndSplineSet
EndChar

StartChar: y
Encoding: 121 121 21
Width: 965
Flags: HW
HStem: -495 287<124.574 276.375> -495 68<277 352.262> 963 41<-12 87 353 461 699 809 867 971>
VStem: 80 197<-426.047 -334.06>
LayerCount: 2
Fore
SplineSet
512 -34 m 1,0,-1
 87 952 l 1,1,-1
 -12 963 l 1,2,-1
 -12 1004 l 1,3,-1
 461 1004 l 1,4,-1
 461 963 l 1,5,-1
 353 952 l 1,6,-1
 613 300 l 1,7,-1
 809 952 l 1,8,-1
 699 963 l 1,9,-1
 699 1004 l 1,10,-1
 971 1004 l 1,11,-1
 971 963 l 1,12,-1
 867 952 l 1,13,-1
 535 -172 l 1,14,15
 442 -448 442 -448 318 -484 c 0,16,17
 282 -495 282 -495 246 -495 c 128,-1,18
 210 -495 210 -495 179 -483.5 c 128,-1,19
 148 -472 148 -472 126 -452 c 0,20,21
 80 -412 80 -412 80 -347 c 0,22,23
 80 -288 80 -288 106 -259 c 0,24,25
 152 -208 152 -208 194 -208 c 128,-1,26
 236 -208 236 -208 258 -218.5 c 128,-1,27
 280 -229 280 -229 294 -246 c 0,28,29
 322 -282 322 -282 322 -333 c 0,30,31
 322 -367 322 -367 305 -391 c 128,-1,32
 288 -415 288 -415 277 -423 c 1,33,-1
 277 -427 l 1,34,35
 369 -425 369 -425 438 -259 c 0,36,37
 455 -218 455 -218 467 -186 c 1,38,-1
 512 -34 l 1,0,-1
EndSplineSet
EndChar

StartChar: z
Encoding: 122 122 22
Width: 961
Flags: HW
HStem: 0 43<329 713.146> 961 43<256.839 599>
VStem: 106 41<670 818.736> 825 41<187.443 334>
LayerCount: 2
Fore
SplineSet
866 334 m 1,0,-1
 866 0 l 1,1,-1
 75 0 l 1,2,-1
 57 29 l 1,3,-1
 599 952 l 1,4,-1
 356 961 l 2,5,6
 352 961 352 961 347 961 c 0,7,8
 237 961 237 961 186 864 c 0,9,10
 147 790 147 790 147 670 c 1,11,-1
 106 670 l 1,12,-1
 106 1004 l 1,13,-1
 873 1004 l 1,14,-1
 892 975 l 1,15,-1
 329 52 l 1,16,-1
 614 43 l 1,17,18
 617 43 617 43 620 43 c 0,19,20
 769 43 769 43 810 202 c 0,21,22
 825 258 825 258 825 334 c 1,23,-1
 866 334 l 1,0,-1
EndSplineSet
EndChar

StartChar: O
Encoding: 79 79 23
Width: 1441
Flags: HW
HStem: -35 55<608.155 830.603> 1407 55<609.65 844.737>
VStem: 96 268<402.411 1001.63> 1077 268<429.738 1034.32>
LayerCount: 2
Fore
SplineSet
393.5 1038 m 128,-1,1
 364 910 364 910 364 748 c 128,-1,2
 364 586 364 586 386.5 457 c 128,-1,3
 409 328 409 328 454 231 c 0,4,5
 550 20 550 20 718 20 c 128,-1,6
 886 20 886 20 983 218 c 0,7,8
 1077 409 1077 409 1077 733 c 0,9,10
 1077 1238 1077 1238 870 1366 c 0,11,12
 804 1407 804 1407 728.5 1407 c 128,-1,13
 653 1407 653 1407 587.5 1368.5 c 128,-1,14
 522 1330 522 1330 472.5 1248 c 128,-1,0
 423 1166 423 1166 393.5 1038 c 128,-1,1
138.5 407 m 128,-1,16
 96 544 96 544 96 677.5 c 128,-1,17
 96 811 96 811 115.5 906.5 c 128,-1,18
 135 1002 135 1002 172 1086 c 128,-1,19
 209 1170 209 1170 263 1239 c 128,-1,20
 317 1308 317 1308 386 1358 c 0,21,22
 532 1462 532 1462 718 1462 c 0,23,24
 1001 1462 1001 1462 1173 1263 c 128,-1,25
 1345 1064 1345 1064 1345 741 c 0,26,27
 1345 425 1345 425 1194 208 c 0,28,29
 1023 -35 1023 -35 724 -35 c 0,30,31
 430 -35 430 -35 262 172 c 0,32,15
 181 270 181 270 138.5 407 c 128,-1,16
EndSplineSet
EndChar

StartChar: H
Encoding: 72 72 24
Width: 1504
Flags: HW
HStem: 0 45<73 227 483 637 867 1021 1277 1431> 702 60<483 1021> 1382 45<73 227 483 637 867 1021 1277 1431>
VStem: 227 256<55 702 762 1372> 1021 256<55 702 770 1372>
LayerCount: 2
Fore
SplineSet
1431 1382 m 1,0,-1
 1277 1372 l 1,1,-1
 1277 55 l 1,2,-1
 1431 45 l 1,3,-1
 1431 0 l 1,4,-1
 867 0 l 1,5,-1
 867 45 l 1,6,-1
 1021 55 l 1,7,-1
 1021 702 l 1,8,-1
 483 702 l 1,9,-1
 483 55 l 1,10,-1
 637 45 l 1,11,-1
 637 0 l 1,12,-1
 73 0 l 1,13,-1
 73 45 l 1,14,-1
 227 55 l 1,15,-1
 227 1372 l 1,16,-1
 73 1382 l 1,17,-1
 73 1427 l 1,18,-1
 637 1427 l 1,19,-1
 637 1382 l 1,20,-1
 483 1372 l 1,21,-1
 483 762 l 1,22,-1
 1021 770 l 1,23,-1
 1021 1372 l 1,24,-1
 867 1382 l 1,25,-1
 867 1427 l 1,26,-1
 1431 1427 l 1,27,-1
 1431 1382 l 1,0,-1
EndSplineSet
EndChar

StartChar: I
Encoding: 73 73 25
Width: 710
Flags: HW
HStem: 0 45<73 227 483 637> 1382 45<73 227 483 637>
VStem: 227 256<55 1372>
LayerCount: 2
Fore
SplineSet
637 1382 m 1,0,-1
 483 1372 l 1,1,-1
 483 55 l 1,2,-1
 637 45 l 1,3,-1
 637 0 l 1,4,-1
 73 0 l 1,5,-1
 73 45 l 1,6,-1
 227 55 l 1,7,-1
 227 1372 l 1,8,-1
 73 1382 l 1,9,-1
 73 1427 l 1,10,-1
 637 1427 l 1,11,-1
 637 1382 l 1,0,-1
EndSplineSet
EndChar

StartChar: J
Encoding: 74 74 26
Width: 821
Flags: HW
HStem: -307 342<24.6592 147.553> -307 55<149.364 290.739> 1382 45<154 348 604 758>
VStem: -59 284<-204.16 -21.0071> 348 256<-57.8264 1372>
LayerCount: 2
Fore
SplineSet
149 -229 m 1,0,1
 166 -252 166 -252 197.5 -252 c 128,-1,2
 229 -252 229 -252 253 -247 c 128,-1,3
 277 -242 277 -242 298 -217 c 0,4,5
 348 -157 348 -157 348 8 c 2,6,-1
 348 1372 l 1,7,-1
 154 1382 l 1,8,-1
 154 1427 l 1,9,-1
 758 1427 l 1,10,-1
 758 1382 l 1,11,-1
 604 1372 l 1,12,-1
 604 221 l 2,13,14
 604 -170 604 -170 360 -274 c 0,15,16
 285 -307 285 -307 215 -307 c 128,-1,17
 145 -307 145 -307 99 -295 c 128,-1,18
 53 -283 53 -283 18 -258 c 0,19,20
 -59 -205 -59 -205 -59 -113 c 0,21,22
 -59 -52 -59 -52 -30 -20 c 0,23,24
 21 35 21 35 84 35 c 0,25,26
 185 35 185 35 216 -50 c 0,27,28
 225 -75 225 -75 225 -96 c 128,-1,29
 225 -117 225 -117 220 -135 c 128,-1,30
 215 -153 215 -153 206 -170 c 0,31,32
 184 -211 184 -211 149 -229 c 1,0,1
EndSplineSet
EndChar

StartChar: K
Encoding: 75 75 27
Width: 1381
Flags: HW
HStem: 0 45<73 227 483 637 837 966 1300 1408> 1382 45<73 227 483 637 923 1052 1130 1247>
VStem: 227 256<55 712 764 1372>
LayerCount: 2
Fore
SplineSet
637 1382 m 1,0,-1
 483 1372 l 1,1,-1
 483 764 l 1,2,-1
 485 764 l 1,3,-1
 1052 1372 l 1,4,-1
 923 1382 l 1,5,-1
 923 1427 l 1,6,-1
 1247 1427 l 1,7,-1
 1247 1382 l 1,8,-1
 1130 1372 l 1,9,-1
 665 881 l 1,10,-1
 1300 55 l 1,11,-1
 1408 45 l 1,12,-1
 1408 0 l 1,13,-1
 837 0 l 1,14,-1
 837 45 l 1,15,-1
 966 55 l 1,16,-1
 485 712 l 1,17,-1
 483 712 l 1,18,-1
 483 55 l 1,19,-1
 637 45 l 1,20,-1
 637 0 l 1,21,-1
 73 0 l 1,22,-1
 73 45 l 1,23,-1
 227 55 l 1,24,-1
 227 1372 l 1,25,-1
 73 1382 l 1,26,-1
 73 1427 l 1,27,-1
 637 1427 l 1,28,-1
 637 1382 l 1,0,-1
EndSplineSet
EndChar

StartChar: C
Encoding: 67 67 28
Width: 1253
Flags: HW
HStem: -35 73<610.494 916.698> 1031 273<907.859 1019.88> 1405 57<650.346 923.098>
VStem: 98 266<374.282 983.605>
LayerCount: 2
Fore
SplineSet
876 1393 m 0,0,1
 834 1405 834 1405 762 1405 c 128,-1,2
 690 1405 690 1405 613.5 1356.5 c 128,-1,3
 537 1308 537 1308 482 1218 c 0,4,5
 364 1027 364 1027 364 717 c 0,6,7
 364 437 364 437 456 250 c 0,8,9
 559 38 559 38 754 38 c 0,10,11
 895 38 895 38 1008 128 c 0,12,13
 1104 204 1104 204 1165 339 c 1,14,-1
 1212 317 l 1,15,16
 1068 -35 1068 -35 731 -35 c 0,17,18
 279 -35 279 -35 149 340 c 0,19,20
 98 486 98 486 98 688 c 0,21,22
 98 990 98 990 256 1210 c 0,23,24
 367 1366 367 1366 551 1430 c 0,25,26
 645 1462 645 1462 741.5 1462 c 128,-1,27
 838 1462 838 1462 909 1439 c 128,-1,28
 980 1416 980 1416 1035 1377 c 0,29,30
 1155 1292 1155 1292 1155 1174 c 0,31,32
 1155 1080 1155 1080 1075 1043 c 0,33,34
 1049 1031 1049 1031 1000.5 1031 c 128,-1,35
 952 1031 952 1031 913.5 1069.5 c 128,-1,36
 875 1108 875 1108 875 1152 c 128,-1,37
 875 1196 875 1196 885 1221 c 128,-1,38
 895 1246 895 1246 912 1264 c 0,39,40
 948 1304 948 1304 1004 1304 c 0,41,42
 1008 1304 1008 1304 1012 1304 c 128,-1,43
 1016 1304 1016 1304 1020 1303 c 1,44,-1
 1020 1307 l 1,45,46
 990 1360 990 1360 876 1393 c 0,0,1
EndSplineSet
EndChar

StartChar: comma
Encoding: 44 44 29
Width: 459
Flags: HW
HStem: -17 257<123.599 219.58 221.422 282.199>
VStem: 283 86<-115.871 -17>
LayerCount: 2
Fore
SplineSet
279 -17 m 1,0,1
 250 -35 250 -35 220.5 -35 c 128,-1,2
 191 -35 191 -35 168 -25 c 128,-1,3
 145 -15 145 -15 128 4 c 0,4,5
 92 43 92 43 92 103 c 0,6,7
 92 189 92 189 162 226 c 0,8,9
 188 240 188 240 225.5 240 c 128,-1,10
 263 240 263 240 290 224.5 c 128,-1,11
 317 209 317 209 334 184 c 0,12,13
 369 133 369 133 369 75.5 c 128,-1,14
 369 18 369 18 359 -29 c 128,-1,15
 349 -76 349 -76 323 -122 c 0,16,17
 264 -227 264 -227 139 -289 c 1,18,-1
 123 -238 l 1,19,20
 249 -177 249 -177 276 -67 c 0,21,22
 283 -38 283 -38 283 -17 c 1,23,-1
 279 -17 l 1,0,1
EndSplineSet
EndChar

StartChar: hyphen
Encoding: 45 45 30
Width: 746
Flags: HW
HStem: 592 110<117 629>
VStem: 117 512<592 702>
LayerCount: 2
Fore
SplineSet
629 702 m 1,0,-1
 629 592 l 1,1,-1
 117 592 l 1,2,-1
 117 702 l 1,3,-1
 629 702 l 1,0,-1
EndSplineSet
EndChar

StartChar: period
Encoding: 46 46 31
Width: 464
Flags: HW
HStem: -35 275<133.709 331.322>
VStem: 94 276<3.16235 200.291>
LayerCount: 2
Fore
SplineSet
132.5 2 m 128,-1,1
 94 39 94 39 94 101 c 128,-1,2
 94 163 94 163 132.5 201.5 c 128,-1,3
 171 240 171 240 233 240 c 128,-1,4
 295 240 295 240 332.5 201.5 c 128,-1,5
 370 163 370 163 370 101 c 128,-1,6
 370 39 370 39 332.5 2 c 128,-1,7
 295 -35 295 -35 233 -35 c 128,-1,0
 171 -35 171 -35 132.5 2 c 128,-1,1
EndSplineSet
EndChar

StartChar: exclam
Encoding: 33 33 32
Width: 542
Flags: HW
HStem: -20 275<171.162 368.776> 1442 20G<240.5 309>
VStem: 133 276<18.1624 215.291 953.859 1407.53> 248 46<366 646.981>
LayerCount: 2
Fore
SplineSet
248 366 m 1,0,1
 240 615 240 615 181 931 c 2,2,3
 142 1140 l 2,4,5
 125 1231 125 1231 125 1278 c 128,-1,6
 125 1325 125 1325 135 1355 c 128,-1,7
 145 1385 145 1385 164 1409 c 0,8,9
 206 1462 206 1462 275 1462 c 256,10,11
 343 1462 343 1462 382 1409 c 0,12,13
 416 1362 416 1362 416 1296.5 c 128,-1,14
 416 1231 416 1231 399 1140 c 2,15,-1
 360 931 l 2,16,17
 301 610 301 610 294 366 c 1,18,-1
 248 366 l 1,0,1
170 17 m 128,-1,20
 133 54 133 54 133 116 c 128,-1,21
 133 178 133 178 170 216.5 c 128,-1,22
 207 255 207 255 269 255 c 128,-1,23
 331 255 331 255 370 216.5 c 128,-1,24
 409 178 409 178 409 116 c 128,-1,25
 409 54 409 54 370 17 c 128,-1,26
 331 -20 331 -20 269 -20 c 128,-1,19
 207 -20 207 -20 170 17 c 128,-1,20
EndSplineSet
EndChar

StartChar: quotedbl
Encoding: 34 34 33
Width: 594
Flags: HW
HStem: 946 516<145.453 202.547 390.611 447.765>
VStem: 90 168<1046.85 1451.48> 151 45<946 1072.88> 336 168<1046.85 1451.48> 397 45<946 1072.88>
LayerCount: 2
Fore
SplineSet
422 1462 m 256,0,1
 504 1462 504 1462 504 1329 c 0,2,3
 504 1276 504 1276 484.5 1179.5 c 128,-1,4
 465 1083 465 1083 442 946 c 1,5,-1
 397 946 l 1,6,7
 374 1083 374 1083 355 1179.5 c 128,-1,8
 336 1276 336 1276 336 1329 c 0,9,10
 336 1462 336 1462 422 1462 c 256,0,1
90 1329 m 0,11,12
 90 1462 90 1462 174 1462 c 128,-1,13
 258 1462 258 1462 258 1329 c 0,14,15
 258 1276 258 1276 238.5 1179.5 c 128,-1,16
 219 1083 219 1083 196 946 c 1,17,-1
 151 946 l 1,18,19
 128 1083 128 1083 109 1179.5 c 128,-1,20
 90 1276 90 1276 90 1329 c 0,11,12
EndSplineSet
EndChar

StartChar: a
Encoding: 97 97 34
Width: 1005
Flags: HW
HStem: -30 89<300.75 490.229> 0 41<856 959> 495 45<436.699 611> 624 247<221.612 332.542> 987 47<323.854 532.766>
VStem: 72 242<90.8021 371.897> 611 245<82.4971 158 164.531 493.827 536 878.2>
LayerCount: 2
Fore
SplineSet
611 490 m 1,0,1
 566 495 566 495 529 495 c 128,-1,2
 492 495 492 495 453.5 480.5 c 128,-1,3
 415 466 415 466 389.5 443.5 c 128,-1,4
 364 421 364 421 349 392 c 128,-1,5
 334 363 334 363 326 334 c 0,6,7
 314 292 314 292 314 246 c 128,-1,8
 314 200 314 200 321 167.5 c 128,-1,9
 328 135 328 135 343 111 c 0,10,11
 376 59 376 59 432 59 c 0,12,13
 499 59 499 59 554 142 c 0,14,15
 611 230 611 230 611 352 c 2,16,-1
 611 490 l 1,0,1
434 987 m 0,17,18
 286 987 286 987 221 872 c 1,19,-1
 221 868 l 1,20,21
 237 871 237 871 252 871 c 0,22,23
 303 871 303 871 333.5 840 c 128,-1,24
 364 809 364 809 364 765 c 128,-1,25
 364 721 364 721 354.5 698.5 c 128,-1,26
 345 676 345 676 328 660 c 0,27,28
 293 624 293 624 250 624 c 128,-1,29
 207 624 207 624 183.5 635.5 c 128,-1,30
 160 647 160 647 144 666 c 0,31,32
 111 704 111 704 111 761.5 c 128,-1,33
 111 819 111 819 141.5 870 c 128,-1,34
 172 921 172 921 222 958 c 0,35,36
 328 1034 328 1034 462 1034 c 128,-1,37
 596 1034 596 1034 672.5 1003 c 128,-1,38
 749 972 749 972 790 914.5 c 128,-1,39
 831 857 831 857 843.5 775 c 128,-1,40
 856 693 856 693 856 590 c 2,41,-1
 856 51 l 1,42,-1
 959 41 l 1,43,-1
 959 0 l 1,44,-1
 641 0 l 1,45,-1
 613 158 l 1,46,-1
 611 158 l 1,47,48
 563 64 563 64 494.5 17 c 128,-1,49
 426 -30 426 -30 342.5 -30 c 128,-1,50
 259 -30 259 -30 211.5 -8.5 c 128,-1,51
 164 13 164 13 133 48 c 0,52,53
 72 115 72 115 72 217 c 0,54,55
 72 349 72 349 176 438 c 0,56,57
 296 540 296 540 518 540 c 0,58,59
 561 540 561 540 611 536 c 1,60,-1
 611 674 l 2,61,62
 611 840 611 840 588.5 891.5 c 128,-1,63
 566 943 566 943 530.5 965 c 128,-1,64
 495 987 495 987 434 987 c 0,17,18
EndSplineSet
EndChar

StartChar: d
Encoding: 100 100 35
Width: 1106
Flags: HW
HStem: -30 84<424.717 580.36> 0 41<943 1045> 977 57<471.018 657.874> 1348 41<574 697> 1428 20G<847.784 937.103>
VStem: 82 256<203.903 743.71> 697 246<153.348 960.203 983 1348>
LayerCount: 2
Fore
SplineSet
696 142 m 1,0,1
 612 1 612 1 501 -22 c 0,2,3
 465 -30 465 -30 433 -30 c 128,-1,4
 401 -30 401 -30 366.5 -23 c 128,-1,5
 332 -16 332 -16 294 4 c 128,-1,6
 256 24 256 24 218 59.5 c 128,-1,7
 180 95 180 95 150 151 c 0,8,9
 82 278 82 278 82 477 c 0,10,11
 82 709 82 709 188 862 c 0,12,13
 307 1034 307 1034 525 1034 c 0,14,15
 590 1034 590 1034 634.5 1016 c 128,-1,16
 679 998 679 998 697 983 c 1,17,-1
 697 1348 l 1,18,-1
 574 1348 l 1,19,-1
 574 1389 l 1,20,-1
 783 1411 l 1,21,-1
 924 1448 l 1,22,-1
 943 1419 l 1,23,-1
 943 51 l 1,24,-1
 1045 41 l 1,25,-1
 1045 0 l 1,26,-1
 711 0 l 1,27,-1
 698 142 l 1,28,-1
 696 142 l 1,0,1
338 487 m 0,29,30
 338 54 338 54 517 54 c 0,31,32
 588 54 588 54 644 140 c 0,33,34
 697 225 697 225 697 321 c 2,35,-1
 697 934 l 1,36,37
 640 977 640 977 577.5 977 c 128,-1,38
 515 977 515 977 476 952.5 c 128,-1,39
 437 928 437 928 411.5 887.5 c 128,-1,40
 386 847 386 847 371 795 c 128,-1,41
 356 743 356 743 349 688 c 0,42,43
 338 603 338 603 338 487 c 0,29,30
EndSplineSet
EndChar

StartChar: A
Encoding: 65 65 36
Width: 1237
Flags: HW
HStem: 0 45<-6 115 172 307 719 854 1122 1254> 414 60<306 714> 1448 20G<581.305 639.921>
LayerCount: 2
Fore
SplineSet
736 414 m 1,0,-1
 288 414 l 1,1,-1
 172 55 l 1,2,-1
 307 45 l 1,3,-1
 307 0 l 1,4,-1
 -6 0 l 1,5,-1
 -6 45 l 1,6,-1
 115 55 l 1,7,-1
 588 1468 l 1,8,-1
 633 1468 l 1,9,-1
 1122 55 l 1,10,-1
 1254 45 l 1,11,-1
 1254 0 l 1,12,-1
 719 0 l 1,13,-1
 719 45 l 1,14,-1
 854 55 l 1,15,-1
 736 414 l 1,0,-1
306 474 m 1,16,-1
 714 482 l 1,17,-1
 514 1096 l 1,18,-1
 510 1096 l 1,19,-1
 306 474 l 1,16,-1
EndSplineSet
EndChar

StartChar: B
Encoding: 66 66 37
Width: 1282
Flags: HW
HStem: 0 55<73 227 484.659 737.801> 745 55<484.318 713.201> 1372 55<73 227 484.658 724.551>
VStem: 227 256<58.7134 743.024 801.148 1368.47> 863 260<962.542 1269.13> 927 266<217.844 583.41>
LayerCount: 2
Fore
SplineSet
73 1382 m 1,0,-1
 73 1427 l 1,1,-1
 608 1427 l 2,2,3
 842 1427 842 1427 966 1366 c 0,4,5
 1123 1287 1123 1287 1123 1106 c 0,6,7
 1123 923 1123 923 896 831 c 0,8,9
 814 798 814 798 723 786 c 1,10,-1
 723 782 l 1,11,12
 1050 782 1050 782 1157 569 c 0,13,14
 1193 497 1193 497 1193 411 c 128,-1,15
 1193 325 1193 325 1171.5 267 c 128,-1,16
 1150 209 1150 209 1112 164.5 c 128,-1,17
 1074 120 1074 120 1022 89 c 128,-1,18
 970 58 970 58 910 38 c 0,19,20
 796 0 796 0 651 0 c 2,21,-1
 73 0 l 1,22,-1
 73 45 l 1,23,-1
 227 55 l 1,24,-1
 227 1372 l 1,25,-1
 73 1382 l 1,0,-1
722 722 m 0,26,27
 656 745 656 745 590.5 745 c 128,-1,28
 525 745 525 745 483 738 c 1,29,-1
 483 65 l 1,30,31
 536 55 536 55 601.5 55 c 128,-1,32
 667 55 667 55 730 79 c 128,-1,33
 793 103 793 103 837 148 c 0,34,35
 927 239 927 239 927 397 c 0,36,37
 927 652 927 652 722 722 c 0,26,27
712 1352 m 0,38,39
 659 1372 659 1372 597.5 1372 c 128,-1,40
 536 1372 536 1372 483 1362 c 1,41,-1
 483 806 l 1,42,43
 525 800 525 800 560 800 c 0,44,45
 863 800 863 800 863 1100 c 0,46,47
 863 1296 863 1296 712 1352 c 0,38,39
EndSplineSet
EndChar

StartChar: D
Encoding: 68 68 38
Width: 1418
Flags: HW
HStem: 0 55<73 227 484.654 747.641> 1372 55<73 227 484.657 760.812>
VStem: 227 256<58.1641 1368.47> 1050 266<415.917 1019>
LayerCount: 2
Fore
SplineSet
483 65 m 1,0,1
 536 55 536 55 581 55 c 0,2,3
 827 55 827 55 946 246 c 0,4,5
 1050 414 1050 414 1050 723 c 0,6,7
 1050 1030 1050 1030 963 1183 c 0,8,9
 856 1372 856 1372 593 1372 c 0,10,11
 536 1372 536 1372 483 1362 c 1,12,-1
 483 65 l 1,0,1
73 0 m 1,13,-1
 73 45 l 1,14,-1
 227 55 l 1,15,-1
 227 1372 l 1,16,-1
 73 1382 l 1,17,-1
 73 1427 l 1,18,-1
 577 1427 l 2,19,20
 971 1427 971 1427 1154 1228 c 0,21,22
 1316 1053 1316 1053 1316 707 c 0,23,24
 1316 213 1316 213 932 55 c 0,25,26
 798 0 798 0 610 0 c 2,27,-1
 73 0 l 1,13,-1
EndSplineSet
EndChar

StartChar: E
Encoding: 69 69 39
Width: 1210
Flags: HW
HStem: 0 55<73 227 487.52 891.203> 710 55<483.376 710.825> 984 20G<787 842> 1020 21G<1009.5 1068> 1372 55<73 227 486.619 840.291>
VStem: 227 256<62.1191 709.031 765.875 1365.4> 787 55<467 622.75 846.125 1004> 1026 42<1020 1112.3> 1067 43<314.608 408>
LayerCount: 2
Fore
SplineSet
692 1372 m 0,0,1
 599 1372 599 1372 483 1362 c 1,2,-1
 483 768 l 1,3,4
 494 767 494 767 509 766.5 c 128,-1,5
 524 766 524 766 539 765.5 c 128,-1,6
 554 765 554 765 568 765 c 2,7,-1
 592 765 l 2,8,9
 697 765 697 765 740 814 c 0,10,11
 787 868 787 868 787 1004 c 1,12,-1
 842 1004 l 1,13,-1
 842 467 l 1,14,-1
 787 467 l 1,15,16
 787 663 787 663 680 698 c 0,17,18
 643 710 643 710 614 710 c 2,19,-1
 572 710 l 2,20,21
 559 710 559 710 543 709.5 c 128,-1,22
 527 709 527 709 511 708.5 c 128,-1,23
 495 708 495 708 483 707 c 1,24,-1
 483 65 l 1,25,26
 628 55 628 55 727 55 c 128,-1,27
 826 55 826 55 882.5 78 c 128,-1,28
 939 101 939 101 975 146 c 0,29,30
 1031 216 1031 216 1067 408 c 1,31,-1
 1110 408 l 1,32,-1
 1099 0 l 1,33,-1
 73 0 l 1,34,-1
 73 45 l 1,35,-1
 227 55 l 1,36,-1
 227 1372 l 1,37,-1
 73 1382 l 1,38,-1
 73 1427 l 1,39,-1
 1058 1427 l 1,40,-1
 1068 1020 l 1,41,-1
 1026 1020 l 1,42,43
 993 1199 993 1199 936 1272 c 0,44,45
 859 1372 859 1372 692 1372 c 0,0,1
EndSplineSet
EndChar

StartChar: F
Encoding: 70 70 40
Width: 1080
Flags: HW
HStem: 0 45<73 227 483 677> 691 54<483 677.978> 1020 21G<964 1028> 1372 55<73 227 484.761 799.443>
VStem: 227 256<55 690 746 1367.69> 757 55<448 605 824.254 985> 972 56<1020 1170>
LayerCount: 2
Fore
SplineSet
642 1372 m 0,0,1
 539 1372 539 1372 483 1362 c 1,2,-1
 483 746 l 1,3,-1
 512 745 l 1,4,5
 651 745 651 745 699 784 c 0,6,7
 757 832 757 832 757 985 c 1,8,-1
 812 985 l 1,9,-1
 812 448 l 1,10,-1
 757 448 l 1,11,12
 757 646 757 646 650 680 c 0,13,14
 613 691 613 691 583 691 c 2,15,-1
 530 691 l 2,16,17
 507 691 507 691 483 690 c 1,18,-1
 483 55 l 1,19,-1
 677 45 l 1,20,-1
 677 0 l 1,21,-1
 73 0 l 1,22,-1
 73 45 l 1,23,-1
 227 55 l 1,24,-1
 227 1372 l 1,25,-1
 73 1382 l 1,26,-1
 73 1427 l 1,27,-1
 1018 1427 l 1,28,-1
 1028 1020 l 1,29,-1
 972 1020 l 1,30,31
 956 1193 956 1193 896 1274 c 0,32,33
 822 1372 822 1372 642 1372 c 0,0,1
EndSplineSet
EndChar

StartChar: G
Encoding: 71 71 41
Width: 1407
Flags: HW
HStem: -35 58<647.543 984.28> 609 45<841 989 1218 1365> 1022 288<965.478 1080> 1402 60<665.007 965.158>
VStem: 98 266<358.169 971.968> 989 229<44.3574 598>
LayerCount: 2
Fore
SplineSet
642 54 m 0,0,1
 710 23 710 23 801 23 c 128,-1,2
 892 23 892 23 989 53 c 1,3,-1
 989 598 l 1,4,-1
 841 609 l 1,5,-1
 841 654 l 1,6,-1
 1365 654 l 1,7,-1
 1365 609 l 1,8,-1
 1218 598 l 1,9,-1
 1218 68 l 1,10,11
 1048 -35 1048 -35 748 -35 c 0,12,13
 372 -35 372 -35 219 196 c 0,14,15
 98 379 98 379 98 684 c 0,16,17
 98 972 98 972 254 1200 c 0,18,19
 364 1361 364 1361 548 1428 c 0,20,21
 641 1462 641 1462 751 1462 c 128,-1,22
 861 1462 861 1462 947 1438 c 128,-1,23
 1033 1414 1033 1414 1094 1374 c 0,24,25
 1224 1291 1224 1291 1224 1173 c 0,26,27
 1224 1073 1224 1073 1138 1034 c 0,28,29
 1110 1022 1110 1022 1075.5 1022 c 128,-1,30
 1041 1022 1041 1022 1014 1033 c 128,-1,31
 987 1044 987 1044 968 1063 c 0,32,33
 927 1102 927 1102 927 1151 c 128,-1,34
 927 1200 927 1200 939 1227 c 128,-1,35
 951 1254 951 1254 972 1272 c 0,36,37
 1013 1310 1013 1310 1080 1310 c 1,38,-1
 1080 1314 l 1,39,40
 1038 1362 1038 1362 920 1391 c 0,41,42
 874 1402 874 1402 817 1402 c 0,43,44
 606 1402 606 1402 483 1210 c 0,45,46
 364 1025 364 1025 364 717 c 0,47,48
 364 177 364 177 642 54 c 0,0,1
EndSplineSet
EndChar

StartChar: L
Encoding: 76 76 42
Width: 1166
Flags: HW
HStem: 0 54<73 227 487.797 914.505> 1382 45<73 227 483 637>
VStem: 227 256<62.1238 1372> 1086 34<336.656 408>
LayerCount: 2
Fore
SplineSet
483 65 m 1,0,1
 637 54 637 54 725.5 54 c 128,-1,2
 814 54 814 54 878.5 69.5 c 128,-1,3
 943 85 943 85 981.5 125 c 128,-1,4
 1020 165 1020 165 1041.5 233.5 c 128,-1,5
 1063 302 1063 302 1086 408 c 1,6,-1
 1120 408 l 1,7,-1
 1120 0 l 1,8,-1
 73 0 l 1,9,-1
 73 45 l 1,10,-1
 227 55 l 1,11,-1
 227 1372 l 1,12,-1
 73 1382 l 1,13,-1
 73 1427 l 1,14,-1
 637 1427 l 1,15,-1
 637 1382 l 1,16,-1
 483 1372 l 1,17,-1
 483 65 l 1,0,1
EndSplineSet
EndChar

StartChar: M
Encoding: 77 77 43
Width: 1795
Flags: HW
HStem: 0 45<73 227 285 436 1158 1312 1568 1722> 1382 45<73 227 1568 1722>
VStem: 227 58<55 1268.78> 227 43<111.219 1325> 1312 256<55 1278>
LayerCount: 2
Fore
SplineSet
1722 1382 m 1,0,-1
 1568 1372 l 1,1,-1
 1568 55 l 1,2,-1
 1722 45 l 1,3,-1
 1722 0 l 1,4,-1
 1158 0 l 1,5,-1
 1158 45 l 1,6,-1
 1312 55 l 1,7,-1
 1314 1278 l 1,8,-1
 1312 1278 l 1,9,-1
 837 -20 l 1,10,-1
 800 -20 l 1,11,-1
 272 1325 l 1,12,-1
 270 1325 l 1,13,-1
 285 55 l 1,14,-1
 436 45 l 1,15,-1
 436 0 l 1,16,-1
 73 0 l 1,17,-1
 73 45 l 1,18,-1
 227 55 l 1,19,-1
 227 1372 l 1,20,-1
 73 1382 l 1,21,-1
 73 1427 l 1,22,-1
 501 1427 l 1,23,-1
 918 363 l 1,24,-1
 920 363 l 1,25,-1
 1312 1427 l 1,26,-1
 1722 1427 l 1,27,-1
 1722 1382 l 1,0,-1
EndSplineSet
EndChar

StartChar: N
Encoding: 78 78 44
Width: 1414
Flags: HW
HStem: 0 45<79 233 296 449> 1382 45<69 222 976 1129 1192 1346>
VStem: 233 63<55 1023> 1143 60<387 1372>
LayerCount: 2
Fore
SplineSet
296 55 m 1,0,-1
 449 45 l 1,1,-1
 449 0 l 1,2,-1
 79 0 l 1,3,-1
 79 45 l 1,4,-1
 233 55 l 1,5,-1
 222 1372 l 1,6,-1
 69 1382 l 1,7,-1
 69 1427 l 1,8,-1
 283 1427 l 1,9,-1
 1141 387 l 1,10,-1
 1143 387 l 1,11,-1
 1129 1372 l 1,12,-1
 976 1382 l 1,13,-1
 976 1427 l 1,14,-1
 1346 1427 l 1,15,-1
 1346 1382 l 1,16,-1
 1192 1372 l 1,17,-1
 1203 -20 l 1,18,-1
 1142 -20 l 1,19,-1
 284 1023 l 1,20,-1
 282 1023 l 1,21,-1
 296 55 l 1,0,-1
EndSplineSet
EndChar

StartChar: P
Encoding: 80 80 45
Width: 1207
Flags: HW
HStem: 0 45<73 227 483 637> 568 56<483 697.5> 1382 45<73 658.352>
VStem: 227 256<55 570 624.387 1363.33> 882 266<823.125 1207.91>
LayerCount: 2
Fore
SplineSet
775 593 m 128,-1,1
 666 568 666 568 591.5 568 c 128,-1,2
 517 568 517 568 483 570 c 1,3,-1
 483 55 l 1,4,-1
 637 45 l 1,5,-1
 637 0 l 1,6,-1
 73 0 l 1,7,-1
 73 45 l 1,8,-1
 227 55 l 1,9,-1
 227 1372 l 1,10,-1
 73 1382 l 1,11,-1
 73 1427 l 1,12,-1
 616 1427 l 2,13,14
 846 1427 846 1427 988 1332 c 0,15,16
 1148 1226 1148 1226 1148 1022 c 0,17,18
 1148 791 1148 791 966 672 c 0,19,0
 884 618 884 618 775 593 c 128,-1,1
704 1350 m 0,20,21
 650 1366 650 1366 592 1366 c 128,-1,22
 534 1366 534 1366 483 1358 c 1,23,-1
 483 627 l 1,24,25
 517 624 517 624 554 624 c 0,26,27
 882 624 882 624 882 1024 c 0,28,29
 882 1297 882 1297 704 1350 c 0,20,21
EndSplineSet
EndChar

StartChar: Q
Encoding: 81 81 46
Width: 1441
Flags: HW
HStem: -451 126<1104.05 1278.25> -249 210<1189.97 1329.37> -189 116<486.882 712> -35 55<608.155 830.603> 1407 55<609.65 844.737>
VStem: 96 268<402.411 1001.63> 1077 268<429.738 1034.32> 1334 59<-299.657 -175.5>
LayerCount: 2
Fore
SplineSet
517.5 -189 m 128,-1,1
 474 -189 474 -189 424 -213 c 1,2,-1
 404 -173 l 1,3,4
 525 -73 525 -73 656 -73 c 0,5,6
 768 -73 768 -73 880 -139 c 0,7,8
 931 -169 931 -169 986.5 -207.5 c 128,-1,9
 1042 -246 1042 -246 1096 -276 c 0,10,11
 1184 -325 1184 -325 1222.5 -325 c 128,-1,12
 1261 -325 1261 -325 1280 -316 c 128,-1,13
 1299 -307 1299 -307 1311 -293 c 0,14,15
 1334 -266 1334 -266 1334 -226 c 0,16,17
 1334 -222 1334 -222 1333.5 -219 c 128,-1,18
 1333 -216 1333 -216 1333 -212 c 1,19,-1
 1330 -213 l 1,20,21
 1310 -249 1310 -249 1262 -249 c 128,-1,22
 1214 -249 1214 -249 1186 -219 c 128,-1,23
 1158 -189 1158 -189 1158 -142.5 c 128,-1,24
 1158 -96 1158 -96 1189 -67.5 c 128,-1,25
 1220 -39 1220 -39 1258.5 -39 c 128,-1,26
 1297 -39 1297 -39 1321 -52 c 128,-1,27
 1345 -65 1345 -65 1361 -88 c 0,28,29
 1393 -132 1393 -132 1393 -185 c 128,-1,30
 1393 -238 1393 -238 1376 -282 c 128,-1,31
 1359 -326 1359 -326 1326 -364 c 0,32,33
 1247 -451 1247 -451 1127 -451 c 0,34,35
 1063 -451 1063 -451 1026 -439 c 0,36,37
 920 -405 920 -405 746 -290 c 0,38,39
 647 -225 647 -225 604 -207 c 128,-1,0
 561 -189 561 -189 517.5 -189 c 128,-1,1
393.5 1038 m 128,-1,41
 364 910 364 910 364 748 c 128,-1,42
 364 586 364 586 386.5 457 c 128,-1,43
 409 328 409 328 454 231 c 0,44,45
 550 20 550 20 718 20 c 128,-1,46
 886 20 886 20 983 218 c 0,47,48
 1077 409 1077 409 1077 733 c 0,49,50
 1077 1238 1077 1238 870 1366 c 0,51,52
 804 1407 804 1407 728.5 1407 c 128,-1,53
 653 1407 653 1407 587.5 1368.5 c 128,-1,54
 522 1330 522 1330 472.5 1248 c 128,-1,40
 423 1166 423 1166 393.5 1038 c 128,-1,41
138.5 407 m 128,-1,56
 96 544 96 544 96 677.5 c 128,-1,57
 96 811 96 811 115.5 906.5 c 128,-1,58
 135 1002 135 1002 172 1086 c 128,-1,59
 209 1170 209 1170 263 1239 c 128,-1,60
 317 1308 317 1308 386 1358 c 0,61,62
 532 1462 532 1462 718 1462 c 0,63,64
 1001 1462 1001 1462 1173 1263 c 128,-1,65
 1345 1064 1345 1064 1345 741 c 0,66,67
 1345 425 1345 425 1194 208 c 0,68,69
 1023 -35 1023 -35 724 -35 c 0,70,71
 430 -35 430 -35 262 172 c 0,72,55
 181 270 181 270 138.5 407 c 128,-1,56
EndSplineSet
EndChar

StartChar: R
Encoding: 82 82 47
Width: 1289
Flags: HW
HStem: 0 45<73 227 483 637 1253.41 1325> 671 55<483 620.878> 1371 56<73 227 484.594 712.372>
VStem: 227 256<55 670 726 1368.47> 847 267<894.437 1245.81>
LayerCount: 2
Fore
SplineSet
683 1357.5 m 128,-1,1
 634 1371 634 1371 584 1371 c 128,-1,2
 534 1371 534 1371 483 1363 c 1,3,-1
 483 727 l 1,4,5
 491 726 491 726 500 726 c 2,6,-1
 524 726 l 2,7,8
 784 726 784 726 832 926 c 0,9,10
 847 990 847 990 847 1074.5 c 128,-1,11
 847 1159 847 1159 826 1217 c 128,-1,12
 805 1275 805 1275 768.5 1309.5 c 128,-1,0
 732 1344 732 1344 683 1357.5 c 128,-1,1
558 671 m 2,13,-1
 514 671 l 2,14,15
 500 671 500 671 483 670 c 1,16,-1
 483 55 l 1,17,-1
 637 45 l 1,18,-1
 637 0 l 1,19,-1
 73 0 l 1,20,-1
 73 45 l 1,21,-1
 227 55 l 1,22,-1
 227 1372 l 1,23,-1
 73 1382 l 1,24,-1
 73 1427 l 1,25,-1
 606 1427 l 2,26,27
 966 1427 966 1427 1075 1238 c 0,28,29
 1114 1170 1114 1170 1114 1076.5 c 128,-1,30
 1114 983 1114 983 1081.5 915.5 c 128,-1,31
 1049 848 1049 848 992 801 c 0,32,33
 883 711 883 711 688 683 c 1,34,-1
 688 681 l 1,35,36
 866 678 866 678 951 564 c 0,37,38
 992 508 992 508 1024 438 c 2,39,-1
 1070 336 l 2,40,41
 1143 172 1143 172 1194 116 c 0,42,43
 1240 66 1240 66 1273 60.5 c 128,-1,44
 1306 55 1306 55 1325 55 c 1,45,-1
 1325 0 l 1,46,-1
 1159 0 l 2,47,48
 1058 0 1058 0 1017.5 16 c 128,-1,49
 977 32 977 32 951 54.5 c 128,-1,50
 925 77 925 77 900 114 c 0,51,52
 856 179 856 179 811 289 c 1,53,-1
 740 460 l 1,54,55
 649 671 649 671 558 671 c 2,13,-1
EndSplineSet
EndChar

StartChar: S
Encoding: 83 83 48
Width: 1120
Flags: HW
HStem: -35 56<354.612 705.958> 1022 289<704.781 820.787> 1407 55<399.053 715.938>
VStem: 105 154<1036.3 1247.73> 881 159<187.685 382.876>
LayerCount: 2
Fore
SplineSet
821 1315 m 1,0,1
 729 1407 729 1407 553 1407 c 0,2,3
 346 1407 346 1407 280 1272 c 0,4,5
 259 1230 259 1230 259 1179 c 128,-1,6
 259 1128 259 1128 271.5 1091 c 128,-1,7
 284 1054 284 1054 319 1020 c 0,8,9
 380 961 380 961 541.5 888.5 c 128,-1,10
 703 816 703 816 791.5 766 c 128,-1,11
 880 716 880 716 936 660 c 0,12,13
 1040 553 1040 553 1040 366 c 0,14,15
 1040 207 1040 207 924 93 c 0,16,17
 792 -35 792 -35 569 -35 c 0,18,19
 325 -35 325 -35 202 53 c 0,20,21
 100 126 100 126 100 241 c 0,22,23
 100 348 100 348 188 386 c 0,24,25
 216 399 216 399 250.5 399 c 128,-1,26
 285 399 285 399 312 387.5 c 128,-1,27
 339 376 339 376 358 356 c 0,28,29
 397 315 397 315 397 248.5 c 128,-1,30
 397 182 397 182 356 146 c 128,-1,31
 315 110 315 110 250 110 c 1,32,-1
 250 106 l 1,33,34
 293 57 293 57 424 32 c 0,35,36
 478 21 478 21 544.5 21 c 128,-1,37
 611 21 611 21 670.5 37 c 128,-1,38
 730 53 730 53 776 83 c 0,39,40
 881 150 881 150 881 253 c 0,41,42
 881 352 881 352 797 426 c 0,43,44
 704 507 704 507 432 628 c 0,45,46
 248 710 248 710 176 806 c 0,47,48
 105 901 105 901 105 1067 c 0,49,50
 105 1235 105 1235 228 1346 c 0,51,52
 355 1462 355 1462 555 1462 c 0,53,54
 751 1462 751 1462 864 1374 c 0,55,56
 965 1296 965 1296 965 1173 c 0,57,58
 965 1073 965 1073 879 1034 c 0,59,60
 851 1022 851 1022 816.5 1022 c 128,-1,61
 782 1022 782 1022 755 1033 c 128,-1,62
 728 1044 728 1044 708 1063 c 0,63,64
 668 1102 668 1102 668 1151 c 128,-1,65
 668 1200 668 1200 680 1227.5 c 128,-1,66
 692 1255 692 1255 712 1274 c 0,67,68
 754 1311 754 1311 821 1311 c 1,69,-1
 821 1315 l 1,0,1
EndSplineSet
EndChar

StartChar: T
Encoding: 84 84 49
Width: 1232
Flags: HW
HStem: 0 45<338 491 747 902> 1372 55<294.106 485 747 938.852>
VStem: 60 55<937 1070.83> 491 256<55 1371> 1117 55<938 1071.49>
LayerCount: 2
Fore
SplineSet
485 1371 m 1,0,-1
 446 1372 l 1,1,2
 357 1372 357 1372 302.5 1348.5 c 128,-1,3
 248 1325 248 1325 213.5 1273 c 128,-1,4
 179 1221 179 1221 158 1138 c 128,-1,5
 137 1055 137 1055 115 937 c 1,6,-1
 60 937 l 1,7,-1
 70 1427 l 1,8,-1
 1162 1427 l 1,9,-1
 1172 938 l 1,10,-1
 1117 938 l 1,11,12
 1082 1123 1082 1123 1061 1181 c 128,-1,13
 1040 1239 1040 1239 1017.5 1273.5 c 128,-1,14
 995 1308 995 1308 964 1330 c 0,15,16
 902 1373 902 1373 786 1373 c 1,17,-1
 747 1372 l 1,18,-1
 747 55 l 1,19,-1
 902 45 l 1,20,-1
 902 0 l 1,21,-1
 338 0 l 1,22,-1
 338 45 l 1,23,-1
 491 55 l 1,24,-1
 485 1371 l 1,0,-1
EndSplineSet
EndChar

StartChar: U
Encoding: 85 85 50
Width: 1431
Flags: HW
HStem: -35 69<625.577 972.03> 1382 45<49 202 458 613 1012 1165 1229 1382>
VStem: 202 256<203.023 1372> 1165 64<264.381 1372>
LayerCount: 2
Fore
SplineSet
202 1372 m 1,0,-1
 49 1382 l 1,1,-1
 49 1427 l 1,2,-1
 613 1427 l 1,3,-1
 613 1382 l 1,4,-1
 458 1372 l 1,5,-1
 458 438 l 2,6,7
 458 195 458 195 570 104 c 0,8,9
 654 34 654 34 783 34 c 128,-1,10
 912 34 912 34 981.5 72 c 128,-1,11
 1051 110 1051 110 1092 172 c 0,12,13
 1165 286 1165 286 1165 478 c 2,14,-1
 1165 1372 l 1,15,-1
 1012 1382 l 1,16,-1
 1012 1427 l 1,17,-1
 1382 1427 l 1,18,-1
 1382 1382 l 1,19,-1
 1229 1372 l 1,20,-1
 1229 456 l 2,21,22
 1229 74 1229 74 936 -14 c 0,23,24
 867 -35 867 -35 754.5 -35 c 128,-1,25
 642 -35 642 -35 548 -14 c 128,-1,26
 454 7 454 7 390.5 43.5 c 128,-1,27
 327 80 327 80 289.5 129 c 128,-1,28
 252 178 252 178 232 236 c 0,29,30
 202 325 202 325 202 479 c 2,31,-1
 202 1372 l 1,0,-1
EndSplineSet
EndChar

StartChar: V
Encoding: 86 86 51
Width: 1314
Flags: HW
HStem: 1382 45<-39 112 380 516 995 1130 1193 1314>
LayerCount: 2
Fore
SplineSet
778 358 m 1,0,-1
 782 358 l 1,1,-1
 1130 1372 l 1,2,-1
 995 1382 l 1,3,-1
 995 1427 l 1,4,-1
 1314 1427 l 1,5,-1
 1314 1382 l 1,6,-1
 1193 1372 l 1,7,-1
 718 -20 l 1,8,-1
 673 -20 l 1,9,-1
 112 1372 l 1,10,-1
 -39 1382 l 1,11,-1
 -39 1427 l 1,12,-1
 516 1427 l 1,13,-1
 516 1382 l 1,14,-1
 380 1372 l 1,15,-1
 778 358 l 1,0,-1
EndSplineSet
EndChar

StartChar: W
Encoding: 87 87 52
Width: 1844
Flags: HW
HStem: 1382 45<-27 124 392 528 1531 1666 1727 1848> 1428 20G<965.251 1022.72>
LayerCount: 2
Fore
SplineSet
1376 377 m 1,0,-1
 1380 377 l 1,1,-1
 1666 1372 l 1,2,-1
 1531 1382 l 1,3,-1
 1531 1427 l 1,4,-1
 1848 1427 l 1,5,-1
 1848 1382 l 1,6,-1
 1727 1372 l 1,7,-1
 1321 -20 l 1,8,-1
 1276 -20 l 1,9,-1
 908 1023 l 1,10,-1
 906 1023 l 1,11,-1
 600 -20 l 1,12,-1
 555 -20 l 1,13,-1
 124 1372 l 1,14,-1
 -27 1382 l 1,15,-1
 -27 1427 l 1,16,-1
 528 1427 l 1,17,-1
 528 1382 l 1,18,-1
 392 1372 l 1,19,-1
 658 373 l 1,20,-1
 662 373 l 1,21,-1
 971 1448 l 1,22,-1
 1016 1448 l 1,23,-1
 1376 377 l 1,0,-1
EndSplineSet
EndChar

StartChar: X
Encoding: 88 88 53
Width: 1345
Flags: HW
HStem: 0 45<69 200 274 424 745 919 1216 1370> 1382 45<-11 112 399 549 893 1022 1093 1224>
LayerCount: 2
Fore
SplineSet
595 587 m 1,0,-1
 593 587 l 1,1,-1
 274 55 l 1,2,-1
 424 45 l 1,3,-1
 424 0 l 1,4,-1
 69 0 l 1,5,-1
 69 45 l 1,6,-1
 200 55 l 1,7,-1
 556 647 l 1,8,-1
 112 1372 l 1,9,-1
 -11 1382 l 1,10,-1
 -11 1427 l 1,11,-1
 549 1427 l 1,12,-1
 549 1382 l 1,13,-1
 399 1372 l 1,14,-1
 713 862 l 1,15,-1
 715 862 l 1,16,-1
 1022 1372 l 1,17,-1
 893 1382 l 1,18,-1
 893 1427 l 1,19,-1
 1224 1427 l 1,20,-1
 1224 1382 l 1,21,-1
 1093 1372 l 1,22,-1
 752 802 l 1,23,-1
 1216 55 l 1,24,-1
 1370 45 l 1,25,-1
 1370 0 l 1,26,-1
 745 0 l 1,27,-1
 745 45 l 1,28,-1
 919 55 l 1,29,-1
 595 587 l 1,0,-1
EndSplineSet
EndChar

StartChar: Y
Encoding: 89 89 54
Width: 1219
Flags: HW
HStem: 0 45<366 519 775 929> 1382 45<-37 98 395 550 878 1019 1087 1211>
VStem: 519 256<55 644>
LayerCount: 2
Fore
SplineSet
-37 1382 m 1,0,-1
 -37 1427 l 1,1,-1
 550 1427 l 1,2,-1
 550 1382 l 1,3,-1
 395 1372 l 1,4,-1
 732 765 l 1,5,-1
 737 765 l 1,6,-1
 1019 1372 l 1,7,-1
 878 1382 l 1,8,-1
 878 1427 l 1,9,-1
 1211 1427 l 1,10,-1
 1211 1382 l 1,11,-1
 1087 1372 l 1,12,-1
 775 703 l 1,13,-1
 775 55 l 1,14,-1
 929 45 l 1,15,-1
 929 0 l 1,16,-1
 366 0 l 1,17,-1
 366 45 l 1,18,-1
 519 55 l 1,19,-1
 519 644 l 1,20,-1
 98 1372 l 1,21,-1
 -37 1382 l 1,0,-1
EndSplineSet
EndChar

StartChar: Z
Encoding: 90 90 55
Width: 1187
Flags: HW
HStem: 0 45<363 847.311> 1378 49<375.207 825>
VStem: 95 45<958 1072.82> 1054 45<394.25 530>
LayerCount: 2
Fore
SplineSet
98 55 m 1,0,-1
 825 1378 l 1,1,-1
 488 1372 l 1,2,3
 328 1368 328 1368 248 1266 c 0,4,5
 171 1168 171 1168 140 958 c 1,6,-1
 95 958 l 1,7,-1
 126 1427 l 1,8,-1
 1054 1427 l 1,9,-1
 1054 1374 l 1,10,-1
 363 51 l 1,11,-1
 744 45 l 2,12,13
 746 45 746 45 748 45 c 0,14,15
 953 45 953 45 1022 350 c 0,16,17
 1042 438 1042 438 1054 530 c 1,18,-1
 1099 530 l 1,19,-1
 1068 0 l 1,20,-1
 98 0 l 1,21,-1
 98 55 l 1,0,-1
EndSplineSet
EndChar

StartChar: one
Encoding: 49 49 56
Width: 736
Flags: HW
HStem: 0 45<123 276 522 676> 1442 20G<394.438 522>
VStem: 276 246<55 1344>
LayerCount: 2
Fore
SplineSet
522 55 m 1,0,-1
 676 45 l 1,1,-1
 676 0 l 1,2,-1
 123 0 l 1,3,-1
 123 45 l 1,4,-1
 276 55 l 1,5,-1
 276 1344 l 1,6,-1
 43 1288 l 1,7,-1
 28 1341 l 1,8,-1
 467 1462 l 1,9,-1
 522 1462 l 1,10,-1
 522 55 l 1,0,-1
EndSplineSet
EndChar

StartChar: zero
Encoding: 48 48 57
Width: 1279
Flags: HW
HStem: -35 55<551.452 727.917> 1407 55<551.986 736.336>
VStem: 97 272<347.204 1030.11> 910 272<391.128 1072.13>
LayerCount: 2
Fore
SplineSet
910 730 m 0,0,1
 910 1407 910 1407 643 1407 c 0,2,3
 457 1407 457 1407 392 1048 c 0,4,5
 369 918 369 918 369 745 c 128,-1,6
 369 572 369 572 385.5 442 c 128,-1,7
 402 312 402 312 435 218 c 0,8,9
 505 20 505 20 637 20 c 0,10,11
 837 20 837 20 892 428 c 0,12,13
 910 560 910 560 910 730 c 0,0,1
97 688 m 0,14,15
 97 847 97 847 130 986 c 128,-1,16
 163 1125 163 1125 230 1231 c 0,17,18
 378 1462 378 1462 637 1462 c 0,19,20
 900 1462 900 1462 1044 1265 c 0,21,22
 1182 1075 1182 1075 1182 745 c 0,23,24
 1182 420 1182 420 1064 210 c 0,25,26
 926 -35 926 -35 643 -35 c 0,27,28
 369 -35 369 -35 229 164 c 0,29,30
 97 351 97 351 97 688 c 0,14,15
EndSplineSet
EndChar

StartChar: two
Encoding: 50 50 58
Width: 1071
Flags: HW
HStem: 0 183<219 836.109> 960 290<205.188 333.259> 1402 60<326.695 562.375>
VStem: 79 295<999.416 1208.23> 673 273<915.828 1287.7> 919 55<264.031 371>
LayerCount: 2
Fore
SplineSet
93 143 m 1,0,1
 145 189 145 189 201 244 c 1,2,-1
 311 358 l 1,3,4
 522 586 522 586 596 744 c 0,5,6
 660 883 660 883 669 1008 c 0,7,8
 673 1065 673 1065 673 1127.5 c 128,-1,9
 673 1190 673 1190 656.5 1244.5 c 128,-1,10
 640 1299 640 1299 610 1334 c 0,11,12
 552 1402 552 1402 446 1402 c 0,13,14
 351 1402 351 1402 278 1347 c 0,15,16
 220 1303 220 1303 205 1253 c 1,17,-1
 205 1249 l 1,18,19
 211 1250 211 1250 217 1250 c 128,-1,20
 223 1250 223 1250 229 1250 c 0,21,22
 295 1250 295 1250 334.5 1209.5 c 128,-1,23
 374 1169 374 1169 374 1121 c 128,-1,24
 374 1073 374 1073 363.5 1047 c 128,-1,25
 353 1021 353 1021 334 1002 c 0,26,27
 295 960 295 960 244 960 c 128,-1,28
 193 960 193 960 165 972 c 128,-1,29
 137 984 137 984 118 1005 c 0,30,31
 79 1048 79 1048 79 1095.5 c 128,-1,32
 79 1143 79 1143 88 1181.5 c 128,-1,33
 97 1220 97 1220 118 1259.5 c 128,-1,34
 139 1299 139 1299 172.5 1335.5 c 128,-1,35
 206 1372 206 1372 255 1400 c 0,36,37
 364 1462 364 1462 519 1462 c 0,38,39
 712 1462 712 1462 828 1370 c 0,40,41
 946 1276 946 1276 946 1119 c 0,42,43
 946 981 946 981 871 856 c 0,44,45
 796 732 796 732 603 549 c 1,46,-1
 297 254 l 1,47,-1
 219 183 l 1,48,-1
 622 188 l 2,49,50
 794 190 794 190 837.5 214.5 c 128,-1,51
 881 239 881 239 897.5 275 c 128,-1,52
 914 311 914 311 919 371 c 1,53,-1
 974 371 l 1,54,-1
 964 0 l 1,55,-1
 93 0 l 1,56,-1
 93 143 l 1,0,1
EndSplineSet
EndChar

StartChar: three
Encoding: 51 51 59
Width: 1099
Flags: HW
HStem: -35 57<304.928 588.724> 106 280<238.909 342.682> 750 55<363 547.25> 998 266<207.312 316.903> 1402 60<319.233 556.763>
VStem: 673 254<946.044 1283.69> 740 269<179.099 563.343>
LayerCount: 2
Fore
SplineSet
363 805 m 1,0,-1
 427 805 l 2,1,2
 558 805 558 805 620 896 c 0,3,4
 673 973 673 973 673 1105 c 0,5,6
 673 1316 673 1316 544 1380 c 0,7,8
 500 1402 500 1402 445 1402 c 128,-1,9
 390 1402 390 1402 350 1387 c 128,-1,10
 310 1372 310 1372 280 1351 c 0,11,12
 223 1311 223 1311 207 1266 c 1,13,-1
 207 1262 l 1,14,15
 221 1264 221 1264 234 1264 c 0,16,17
 283 1264 283 1264 318 1234 c 0,18,19
 361 1197 361 1197 361 1134.5 c 128,-1,20
 361 1072 361 1072 325.5 1035 c 128,-1,21
 290 998 290 998 225 998 c 128,-1,22
 160 998 160 998 125 1039 c 128,-1,23
 90 1080 90 1080 90 1144 c 0,24,25
 90 1239 90 1239 171 1334 c 0,26,27
 234 1409 234 1409 356 1444 c 0,28,29
 418 1462 418 1462 508 1462 c 128,-1,30
 598 1462 598 1462 676.5 1438.5 c 128,-1,31
 755 1415 755 1415 810 1370 c 0,32,33
 927 1274 927 1274 927 1105 c 0,34,35
 927 907 927 907 727 828 c 0,36,37
 658 800 658 800 564 789 c 1,38,-1
 564 787 l 1,39,40
 1009 744 1009 744 1009 354 c 0,41,42
 1009 193 1009 193 890 88 c 0,43,44
 751 -35 751 -35 505 -35 c 0,45,46
 294 -35 294 -35 187 42 c 0,47,48
 91 111 91 111 91 231 c 0,49,50
 91 294 91 294 120 326 c 0,51,52
 174 386 174 386 241 386 c 0,53,54
 341 386 341 386 376 300 c 0,55,56
 386 274 386 274 386 243 c 0,57,58
 386 174 386 174 344 140 c 128,-1,59
 302 106 302 106 237 106 c 1,60,-1
 237 102 l 1,61,62
 265 70 265 70 292 56 c 0,63,64
 358 22 358 22 442 22 c 128,-1,65
 526 22 526 22 577 43.5 c 128,-1,66
 628 65 628 65 664 107 c 0,67,68
 740 196 740 196 740 352 c 0,69,70
 740 590 740 590 645 679 c 0,71,72
 570 750 570 750 431 750 c 2,73,-1
 363 750 l 1,74,-1
 363 805 l 1,0,-1
EndSplineSet
EndChar

StartChar: four
Encoding: 52 52 60
Width: 1112
Flags: HW
HStem: 0 45<428 581 827 981> 330 52<84 581 827 1083> 1442 20G<757.954 827>
VStem: 581 246<55 330 384 1091>
LayerCount: 2
Fore
SplineSet
827 55 m 1,0,-1
 981 45 l 1,1,-1
 981 0 l 1,2,-1
 428 0 l 1,3,-1
 428 45 l 1,4,-1
 581 55 l 1,5,-1
 581 330 l 1,6,-1
 10 330 l 1,7,-1
 10 377 l 1,8,-1
 772 1462 l 1,9,-1
 827 1462 l 1,10,-1
 827 384 l 1,11,-1
 1083 387 l 1,12,-1
 1083 330 l 1,13,-1
 827 330 l 1,14,-1
 827 55 l 1,0,-1
578 1091 m 1,15,-1
 84 380 l 1,16,-1
 84 377 l 1,17,-1
 581 382 l 1,18,-1
 581 1091 l 1,19,-1
 578 1091 l 1,15,-1
EndSplineSet
EndChar

StartChar: five
Encoding: 53 53 61
Width: 1029
Flags: HW
HStem: -35 57<299.593 555.17> 105 281<232.91 345.979> 805 60<300.005 549.04> 1239 188<203 745.904>
VStem: 153 50<786 1245> 692 268<207.817 624.237> 811 55<1471.93 1569>
LayerCount: 2
Fore
SplineSet
231 101 m 1,0,1
 299 22 299 22 450 22 c 0,2,3
 569 22 569 22 633 129 c 0,4,5
 692 227 692 227 692 395 c 0,6,7
 692 642 692 642 610 730 c 0,8,9
 541 805 541 805 415 805 c 0,10,11
 287 805 287 805 198 711 c 1,12,-1
 153 737 l 1,13,-1
 149 1427 l 1,14,-1
 542 1427 l 2,15,16
 713 1427 713 1427 747 1443 c 128,-1,17
 781 1459 781 1459 793 1488 c 128,-1,18
 805 1517 805 1517 811 1569 c 1,19,-1
 866 1569 l 1,20,-1
 856 1239 l 1,21,-1
 203 1245 l 1,22,-1
 203 786 l 1,23,24
 322 865 322 865 466.5 865 c 128,-1,25
 611 865 611 865 705 825 c 128,-1,26
 799 785 799 785 856 719 c 0,27,28
 960 597 960 597 960 397 c 0,29,30
 960 232 960 232 846 109 c 0,31,32
 712 -35 712 -35 483 -35 c 0,33,34
 298 -35 298 -35 190 42 c 0,35,36
 86 116 86 116 86 231 c 0,37,38
 86 293 86 293 115 326 c 0,39,40
 168 386 168 386 235 386 c 0,41,42
 337 386 337 386 370 304 c 0,43,44
 381 278 381 278 381 245 c 128,-1,45
 381 212 381 212 369.5 185.5 c 128,-1,46
 358 159 358 159 338 141 c 0,47,48
 298 105 298 105 231 105 c 1,49,-1
 231 101 l 1,0,1
EndSplineSet
EndChar

StartChar: seven
Encoding: 55 55 62
Width: 865
Flags: HW
HStem: 1244 183<180.766 749>
VStem: 52 55<1057 1168.54> 258 225.5<-26.0437 335.115>
LayerCount: 2
Fore
SplineSet
368 -50 m 0,0,1
 258 -50 258 -50 258 107 c 0,2,3
 258 274 258 274 401 593 c 1,4,-1
 494 799 l 1,5,6
 585 997 585 997 655.5 1106.5 c 128,-1,7
 726 1216 726 1216 749 1242 c 1,8,-1
 749 1244 l 1,9,-1
 386 1239 l 2,10,11
 219 1237 219 1237 179.5 1212.5 c 128,-1,12
 140 1188 140 1188 126 1152.5 c 128,-1,13
 112 1117 112 1117 107 1057 c 1,14,-1
 52 1057 l 1,15,-1
 62 1427 l 1,16,-1
 851 1427 l 1,17,-1
 851 1284 l 1,18,19
 548 885 548 885 502 379 c 0,20,21
 489 237 489 237 489 160.5 c 128,-1,22
 489 84 489 84 483.5 56 c 128,-1,23
 478 28 478 28 464 4 c 0,24,25
 433 -50 433 -50 368 -50 c 0,0,1
EndSplineSet
EndChar

StartChar: six
Encoding: 54 54 63
Width: 1123
Flags: HW
HStem: -35 55<478.254 646.769> 815 70<469.749 682.036> 1407 55<520.92 775.72>
VStem: 103 257<266.064 730.055 755 1033.98> 703 274<1077.42 1273.81> 770 265<219.91 664.683>
LayerCount: 2
Fore
SplineSet
360 786 m 1,0,-1
 361 755 l 1,1,-1
 363 755 l 1,2,3
 401 814 401 814 468 849.5 c 128,-1,4
 535 885 535 885 636 885 c 128,-1,5
 737 885 737 885 815 847.5 c 128,-1,6
 893 810 893 810 942 747 c 0,7,8
 1035 627 1035 627 1035 428 c 0,9,10
 1035 256 1035 256 932 124 c 0,11,12
 806 -35 806 -35 566 -35 c 0,13,14
 277 -35 277 -35 174 191 c 0,15,16
 103 347 103 347 103 621 c 0,17,18
 103 1037 103 1037 234.5 1249.5 c 128,-1,19
 366 1462 366 1462 622 1462 c 0,20,21
 877 1462 877 1462 953 1299 c 0,22,23
 977 1248 977 1248 977 1207 c 128,-1,24
 977 1166 977 1166 969.5 1139 c 128,-1,25
 962 1112 962 1112 945 1091 c 0,26,27
 906 1043 906 1043 836 1043 c 0,28,29
 780 1043 780 1043 752 1070 c 0,30,31
 703 1117 703 1117 703 1177 c 128,-1,32
 703 1237 703 1237 740 1275 c 128,-1,33
 777 1313 777 1313 836 1318 c 1,34,-1
 836 1322 l 1,35,36
 815 1375 815 1375 722 1399 c 0,37,38
 690 1407 690 1407 650 1407 c 0,39,40
 365 1407 365 1407 365 1030 c 1,41,-1
 360 786 l 1,0,-1
682 780.5 m 128,-1,43
 643 815 643 815 591 815 c 128,-1,44
 539 815 539 815 504.5 802 c 128,-1,45
 470 789 470 789 441 766 c 0,46,47
 377 715 377 715 361 641 c 1,48,49
 360 622 360 622 360 604 c 2,50,-1
 360 569 l 2,51,52
 360 121 360 121 480 43 c 0,53,54
 516 20 516 20 564.5 20 c 128,-1,55
 613 20 613 20 653.5 50.5 c 128,-1,56
 694 81 694 81 720 134 c 0,57,58
 770 236 770 236 770 408 c 0,59,60
 770 603 770 603 745.5 674.5 c 128,-1,42
 721 746 721 746 682 780.5 c 128,-1,43
EndSplineSet
EndChar

StartChar: eight
Encoding: 56 56 64
Width: 1135
Flags: HW
HStem: -35 55<448.531 721.08> 1407 55<436.96 685.852>
VStem: 117 168<153.625 465.574> 131 201<1088.07 1263.95> 812 144<999.224 1302.31> 859 188<170.486 373.913>
LayerCount: 2
Fore
SplineSet
656 838 m 1,0,1
 812 960 812 960 812 1145 c 0,2,3
 812 1339 812 1339 659 1391 c 0,4,5
 612 1407 612 1407 562 1407 c 128,-1,6
 512 1407 512 1407 471.5 1394 c 128,-1,7
 431 1381 431 1381 400 1357 c 0,8,9
 332 1304 332 1304 332 1235 c 128,-1,10
 332 1166 332 1166 361 1114 c 128,-1,11
 390 1062 390 1062 434.5 1016 c 128,-1,12
 479 970 479 970 534 929 c 2,13,-1
 656 838 l 1,0,1
117 309 m 0,14,15
 117 516 117 516 402 688 c 1,16,17
 200 834 200 834 146 1006 c 0,18,19
 131 1055 131 1055 131 1115.5 c 128,-1,20
 131 1176 131 1176 164 1243 c 128,-1,21
 197 1310 197 1310 256 1358 c 0,22,23
 380 1462 380 1462 571 1462 c 0,24,25
 725 1462 725 1462 840 1376 c 0,26,27
 956 1287 956 1287 956 1163 c 0,28,29
 956 995 956 995 798 876 c 0,30,31
 752 841 752 841 700 808 c 1,32,-1
 825 718 l 1,33,34
 1047 556 1047 556 1047 348 c 0,35,36
 1047 190 1047 190 935 84 c 0,37,38
 808 -35 808 -35 586 -35 c 0,39,40
 248 -35 248 -35 149 162 c 0,41,42
 117 226 117 226 117 309 c 0,14,15
458 650 m 1,43,44
 285 510 285 510 285 319 c 0,45,46
 285 207 285 207 348 125 c 0,47,48
 428 20 428 20 586 20 c 0,49,50
 698 20 698 20 775 79 c 0,51,52
 859 143 859 143 859 250 c 0,53,54
 859 337 859 337 776 417 c 0,55,56
 731 461 731 461 654 516 c 1,57,-1
 458 650 l 1,43,44
EndSplineSet
EndChar

StartChar: nine
Encoding: 57 57 65
Width: 1122
Flags: HW
HStem: -35 55<360.082 611.274> 542 70<438.86 650.567> 1407 55<473.789 644.645>
VStem: 86 265<761.482 1206.87> 153 275<153.193 346.838> 760 258<383.742 675 695.121 1168.5>
LayerCount: 2
Fore
SplineSet
564 1462 m 0,0,1
 662 1462 662 1462 738 1432.5 c 128,-1,2
 814 1403 814 1403 865.5 1352.5 c 128,-1,3
 917 1302 917 1302 947 1236 c 128,-1,4
 977 1170 977 1170 993 1098 c 0,5,6
 1018 984 1018 984 1018 806 c 0,7,8
 1018 390 1018 390 895 177.5 c 128,-1,9
 772 -35 772 -35 509 -35 c 0,10,11
 253 -35 253 -35 177 128 c 0,12,13
 153 179 153 179 153 220 c 128,-1,14
 153 261 153 261 161 287.5 c 128,-1,15
 169 314 169 314 186 336 c 0,16,17
 225 385 225 385 289.5 385 c 128,-1,18
 354 385 354 385 391 348 c 128,-1,19
 428 311 428 311 428 250.5 c 128,-1,20
 428 190 428 190 391 152 c 128,-1,21
 354 114 354 114 295 109 c 1,22,-1
 295 105 l 1,23,24
 316 52 316 52 418 28 c 0,25,26
 451 20 451 20 504.5 20 c 128,-1,27
 558 20 558 20 604 43 c 128,-1,28
 650 66 650 66 679.5 108 c 128,-1,29
 709 150 709 150 725.5 209 c 128,-1,30
 742 268 742 268 750 341 c 0,31,32
 760 443 760 443 760 675 c 1,33,34
 722 615 722 615 654.5 578.5 c 128,-1,35
 587 542 587 542 485.5 542 c 128,-1,36
 384 542 384 542 306 579.5 c 128,-1,37
 228 617 228 617 179 680 c 0,38,39
 86 800 86 800 86 999 c 0,40,41
 86 1171 86 1171 190 1302 c 0,42,43
 315 1462 315 1462 564 1462 c 0,0,1
760 786 m 1,44,-1
 761 858 l 1,45,46
 761 1306 761 1306 640 1384 c 0,47,48
 605 1407 605 1407 556.5 1407 c 128,-1,49
 508 1407 508 1407 467.5 1376.5 c 128,-1,50
 427 1346 427 1346 401 1293 c 0,51,52
 351 1191 351 1191 351 1019 c 0,53,54
 351 821 351 821 375 751 c 128,-1,55
 399 681 399 681 438.5 646.5 c 128,-1,56
 478 612 478 612 529.5 612 c 128,-1,57
 581 612 581 612 615.5 625 c 128,-1,58
 650 638 650 638 680 661 c 0,59,60
 744 712 744 712 760 786 c 1,44,-1
EndSplineSet
EndChar

StartChar: quotesingle
Encoding: 39 39 66
Width: 360
Flags: HW
HStem: 946 516<148.125 211.945>
VStem: 86 188<1078.52 1449.01> 156 49<946 1073.69>
LayerCount: 2
Fore
SplineSet
86 1329 m 0,0,1
 86 1462 86 1462 180 1462 c 128,-1,2
 274 1462 274 1462 274 1329 c 0,3,4
 274 1291 274 1291 258 1211 c 2,5,-1
 228 1072 l 2,6,7
 216 1014 216 1014 205 946 c 1,8,-1
 156 946 l 1,9,10
 144 1014 144 1014 132 1072 c 2,11,-1
 110 1180 l 2,12,13
 86 1288 86 1288 86 1329 c 0,0,1
EndSplineSet
EndChar

StartChar: parenleft
Encoding: 40 40 67
Width: 552
Flags: HW
HStem: 1442 20G<391 501.081>
VStem: 64 226<158.833 798.673>
LayerCount: 2
Fore
SplineSet
519 1425 m 1,0,1
 290 1104 290 1104 290 484.5 c 128,-1,2
 290 -135 290 -135 519 -459 c 1,3,-1
 480 -495 l 1,4,5
 302 -315 302 -315 189 -65 c 0,6,7
 64 211 64 211 64 481 c 256,8,9
 64 751 64 751 189 1030 c 0,10,11
 302 1282 302 1282 480 1462 c 1,12,-1
 519 1425 l 1,0,1
EndSplineSet
EndChar

StartChar: parenright
Encoding: 41 41 68
Width: 552
Flags: HW
HStem: 1442 20G<50.9189 161>
VStem: 262 226<158.833 798.673>
LayerCount: 2
Fore
SplineSet
33 -459 m 1,0,1
 262 -135 262 -135 262 484.5 c 128,-1,2
 262 1104 262 1104 33 1425 c 1,3,-1
 72 1462 l 1,4,5
 250 1282 250 1282 363 1030 c 0,6,7
 488 751 488 751 488 481 c 256,8,9
 488 211 488 211 363 -65 c 0,10,11
 250 -315 250 -315 72 -495 c 1,12,-1
 33 -459 l 1,0,1
EndSplineSet
EndChar

StartChar: slash
Encoding: 47 47 69
Width: 850
Flags: HW
HStem: 1442 20G<776.405 908>
LayerCount: 2
Fore
SplineSet
-56 -495 m 1,0,-1
 785 1462 l 1,1,-1
 908 1462 l 1,2,-1
 66 -495 l 1,3,-1
 -56 -495 l 1,0,-1
EndSplineSet
EndChar

StartChar: plus
Encoding: 43 43 70
Width: 1146
Flags: HW
HStem: 592 110<117 518 628 1029>
VStem: 518 110<194 592 702 1100>
LayerCount: 2
Fore
SplineSet
518 702 m 1,0,-1
 518 1100 l 1,1,-1
 628 1100 l 1,2,-1
 628 702 l 1,3,-1
 1029 702 l 1,4,-1
 1029 592 l 1,5,-1
 628 592 l 1,6,-1
 628 194 l 1,7,-1
 518 194 l 1,8,-1
 518 592 l 1,9,-1
 117 592 l 1,10,-1
 117 702 l 1,11,-1
 518 702 l 1,0,-1
EndSplineSet
EndChar

StartChar: minus
Encoding: 8722 8722 71
Width: 1146
Flags: HW
HStem: 592 110<117 1029>
LayerCount: 2
Fore
SplineSet
1029 702 m 1,0,-1
 1029 592 l 1,1,-1
 117 592 l 1,2,-1
 117 702 l 1,3,-1
 1029 702 l 1,0,-1
EndSplineSet
EndChar

StartChar: asterisk
Encoding: 42 42 72
Width: 933
Flags: HW
HStem: 1017 231<162.594 266.172 664.75 853.609> 1036 211<119.129 361 565.5 811.326> 1442 20G<438.5 509>
VStem: 350 229<1224.01 1439.27> 440 49<1071 1179.15>
LayerCount: 2
Fore
SplineSet
489 1071 m 1,0,1
 557 1091 557 1091 622 1160 c 1,2,3
 670 1209 l 2,4,5
 693 1232 693 1232 718.5 1240 c 128,-1,6
 744 1248 744 1248 766 1248 c 128,-1,7
 788 1248 788 1248 809 1240 c 0,8,9
 855 1221 855 1221 868 1179 c 0,10,11
 879 1147 879 1147 879 1125 c 0,12,13
 879 1119 879 1119 878 1114 c 0,14,15
 874 1090 874 1090 862 1072 c 0,16,17
 840 1040 840 1040 802 1027 c 0,18,19
 773 1017 773 1017 747 1017 c 0,20,21
 740 1017 740 1017 732 1018 c 0,22,23
 700 1022 700 1022 666 1028 c 0,24,25
 624 1035 624 1035 588 1035 c 0,26,27
 543 1035 543 1035 508 1024 c 1,28,29
 547 966 547 966 632 926 c 0,30,31
 664 911 664 911 692.5 896 c 128,-1,32
 721 881 721 881 737 859 c 128,-1,33
 753 837 753 837 759.5 816 c 128,-1,34
 766 795 766 795 764 772 c 0,35,36
 761 720 761 720 725.5 695.5 c 128,-1,37
 690 671 690 671 666 668 c 0,38,39
 657 666 657 666 649 666 c 0,40,41
 635 666 635 666 622 670 c 0,42,43
 583 681 583 681 559.5 713.5 c 128,-1,44
 536 746 536 746 530 777 c 128,-1,45
 524 808 524 808 520 843 c 0,46,47
 508 935 508 935 467 993 c 1,48,49
 424 935 424 935 412 844 c 0,50,51
 408 808 408 808 402.5 776 c 128,-1,52
 397 744 397 744 381 722.5 c 128,-1,53
 365 701 365 701 347 688 c 128,-1,54
 329 675 329 675 307 670 c 0,55,56
 290 666 290 666 275 666 c 0,57,58
 246 666 246 666 222 683 c 0,59,60
 188 709 188 709 177 730.5 c 128,-1,61
 166 752 166 752 166 777 c 0,62,63
 166 816 166 816 188 848 c 0,64,65
 211 880 211 880 239 895 c 128,-1,66
 267 910 267 910 299 925 c 0,67,68
 383 964 383 964 426 1022 c 1,69,70
 382 1036 382 1036 340 1036 c 0,71,72
 317 1036 317 1036 294 1032 c 0,73,74
 231 1020 231 1020 199 1015.5 c 128,-1,75
 167 1011 167 1011 141.5 1019.5 c 128,-1,76
 116 1028 116 1028 98 1040.5 c 128,-1,77
 80 1053 80 1053 68 1072 c 0,78,79
 51 1100 51 1100 51 1128 c 0,80,81
 51 1142 51 1142 56 1156 c 0,82,83
 69 1198 69 1198 86 1215 c 128,-1,84
 103 1232 103 1232 124 1240 c 0,85,86
 143 1247 143 1247 162 1247 c 128,-1,87
 181 1247 181 1247 200 1241 c 0,88,89
 239 1229 239 1229 262.5 1207 c 128,-1,90
 286 1185 286 1185 310 1160 c 0,91,92
 375 1090 375 1090 440 1069 c 1,93,94
 440 1140 440 1140 395 1222 c 0,95,96
 378 1253 378 1253 364 1282 c 128,-1,97
 350 1311 350 1311 350 1338 c 128,-1,98
 350 1365 350 1365 356.5 1386 c 128,-1,99
 363 1407 363 1407 378 1424 c 0,100,101
 410 1462 410 1462 467 1462 c 256,102,103
 551 1462 551 1462 573 1386 c 0,104,105
 579 1365 579 1365 579 1338 c 128,-1,106
 579 1311 579 1311 565 1282.5 c 128,-1,107
 551 1254 551 1254 534 1224 c 0,108,109
 489 1143 489 1143 489 1071 c 1,0,1
EndSplineSet
EndChar

StartChar: numbersign
Encoding: 35 35 73
Width: 1364
Flags: HW
HStem: -35 21G<254 380.333 741 867.333> 403 134<45 327 473 814 960 1235> 915 134<131 413 559 900 1046 1317> 1442 20G<502.61 629 989.61 1116>
LayerCount: 2
Fore
SplineSet
254 -35 m 1,0,-1
 327 403 l 1,1,-1
 26 403 l 1,2,-1
 45 537 l 1,3,-1
 350 537 l 1,4,-1
 413 915 l 1,5,-1
 112 915 l 1,6,-1
 131 1049 l 1,7,-1
 436 1049 l 1,8,-1
 506 1462 l 1,9,-1
 629 1462 l 1,10,-1
 559 1049 l 1,11,-1
 923 1049 l 1,12,-1
 993 1462 l 1,13,-1
 1116 1462 l 1,14,-1
 1046 1049 l 1,15,-1
 1335 1049 l 1,16,-1
 1317 915 l 1,17,-1
 1023 915 l 1,18,-1
 960 537 l 1,19,-1
 1253 537 l 1,20,-1
 1235 403 l 1,21,-1
 937 403 l 1,22,-1
 864 -35 l 1,23,-1
 741 -35 l 1,24,-1
 814 403 l 1,25,-1
 450 403 l 1,26,-1
 377 -35 l 1,27,-1
 254 -35 l 1,0,-1
473 537 m 1,28,-1
 837 537 l 1,29,-1
 900 915 l 1,30,-1
 536 915 l 1,31,-1
 473 537 l 1,28,-1
EndSplineSet
EndChar

StartChar: dollar
Encoding: 36 36 74
Width: 1009
Flags: HW
HStem: -34 54<333.501 482> 117 289<218 323.197> 1023 289<641.539 756.787> 1406 55<355.156 482 538 665.808>
VStem: 61 139<1038.04 1237.61> 482 56<-244 -35 21 556 880 1406 1461 1653> 810 158<199.679 404.505>
LayerCount: 2
Fore
SplineSet
482 -244 m 1,0,-1
 482 -34 l 1,1,2
 272 -27 272 -27 164 57 c 0,3,4
 69 130 69 130 69 248 c 0,5,6
 69 312 69 312 98 346 c 0,7,8
 152 406 152 406 220 406 c 0,9,10
 285 406 285 406 326 364 c 0,11,12
 366 322 366 322 366 255.5 c 128,-1,13
 366 189 366 189 324.5 153 c 128,-1,14
 283 117 283 117 218 117 c 1,15,-1
 218 113 l 1,16,17
 262 63 262 63 370 35 c 0,18,19
 417 23 417 23 482 20 c 1,20,-1
 482 581 l 1,21,22
 459 592 459 592 434 602 c 2,23,-1
 380 624 l 2,24,25
 61 753 61 753 61 1047 c 0,26,27
 61 1221 61 1221 180 1337 c 0,28,29
 302 1455 302 1455 482 1461 c 1,30,-1
 482 1653 l 1,31,-1
 538 1653 l 1,32,-1
 538 1461 l 1,33,34
 718 1453 718 1453 814 1368 c 0,35,36
 901 1291 901 1291 901 1174 c 0,37,38
 901 1074 901 1074 815 1036 c 0,39,40
 787 1023 787 1023 752.5 1023 c 128,-1,41
 718 1023 718 1023 691 1034 c 128,-1,42
 664 1045 664 1045 644 1064 c 0,43,44
 604 1103 604 1103 604 1152 c 128,-1,45
 604 1201 604 1201 616 1228.5 c 128,-1,46
 628 1256 628 1256 648 1274 c 0,47,48
 690 1312 690 1312 757 1312 c 1,49,-1
 757 1316 l 1,50,51
 687 1398 687 1398 538 1406 c 1,52,-1
 538 858 l 1,53,54
 760 772 760 772 859 666 c 0,55,56
 968 549 968 549 968 378 c 0,57,58
 968 231 968 231 862 110 c 0,59,60
 738 -31 738 -31 538 -35 c 1,61,-1
 538 -244 l 1,62,-1
 482 -244 l 1,0,-1
200 1145 m 0,63,64
 200 1080 200 1080 269.5 1010 c 128,-1,65
 339 940 339 940 482 880 c 1,66,-1
 482 1406 l 1,67,68
 355 1400 355 1400 278 1331 c 0,69,70
 200 1261 200 1261 200 1145 c 0,63,64
810 264 m 0,71,72
 810 308 810 308 800 342.5 c 128,-1,73
 790 377 790 377 760 411 c 0,74,75
 703 477 703 477 538 556 c 1,76,-1
 538 21 l 1,77,78
 650 31 650 31 729 102 c 0,79,80
 810 174 810 174 810 264 c 0,71,72
EndSplineSet
EndChar

StartChar: percent
Encoding: 37 37 75
Width: 1612
Flags: HW
HStem: -35 55<1137.92 1302.3> 0 21G<378 451.657> 673 55<1143.58 1307.53> 699 55<306.646 471.773> 1407 55<312.412 476.56>
VStem: 26 202<886.73 1261.73> 554 205<905.605 1278> 856 203<152.73 526.568> 1384 205<171.358 544.762>
LayerCount: 2
Fore
SplineSet
1221 20 m 0,0,1
 1384 20 1384 20 1384 325 c 0,2,3
 1384 484 1384 484 1365 546 c 128,-1,4
 1346 608 1346 608 1314 640.5 c 128,-1,5
 1282 673 1282 673 1234.5 673 c 128,-1,6
 1187 673 1187 673 1160.5 658 c 128,-1,7
 1134 643 1134 643 1115.5 618 c 128,-1,8
 1097 593 1097 593 1086 561 c 128,-1,9
 1075 529 1075 529 1069 496 c 0,10,11
 1059 440 1059 440 1059 378 c 128,-1,12
 1059 316 1059 316 1062 254 c 128,-1,13
 1065 192 1065 192 1080 140 c 0,14,15
 1116 20 1116 20 1221 20 c 0,0,1
856 338 m 0,16,17
 856 411 856 411 880.5 480.5 c 128,-1,18
 905 550 905 550 953 605 c 0,19,20
 1060 728 1060 728 1231 728 c 128,-1,21
 1402 728 1402 728 1501 610 c 0,22,23
 1589 504 1589 504 1589 358 c 0,24,25
 1589 199 1589 199 1484 83 c 0,26,27
 1379 -35 1379 -35 1229 -35 c 0,28,29
 1058 -35 1058 -35 954 78 c 0,30,31
 856 184 856 184 856 338 c 0,16,17
390 754 m 0,32,33
 554 754 554 754 554 1060 c 0,34,35
 554 1218 554 1218 535 1280 c 128,-1,36
 516 1342 516 1342 484 1374.5 c 128,-1,37
 452 1407 452 1407 404.5 1407 c 128,-1,38
 357 1407 357 1407 330 1392 c 128,-1,39
 303 1377 303 1377 284.5 1352 c 128,-1,40
 266 1327 266 1327 255 1295 c 128,-1,41
 244 1263 244 1263 238 1230 c 0,42,43
 228 1175 228 1175 228 1122 c 128,-1,44
 228 1069 228 1069 229 1028.5 c 128,-1,45
 230 988 230 988 235 949 c 128,-1,46
 240 910 240 910 250 874.5 c 128,-1,47
 260 839 260 839 278 812 c 0,48,49
 317 754 317 754 390 754 c 0,32,33
26 1072 m 0,50,51
 26 1145 26 1145 50.5 1214.5 c 128,-1,52
 75 1284 75 1284 122 1339 c 0,53,54
 229 1462 229 1462 399 1462 c 0,55,56
 570 1462 570 1462 670 1344 c 0,57,58
 759 1239 759 1239 759 1092 c 0,59,60
 759 933 759 933 654 817 c 0,61,62
 549 699 549 699 398 699 c 0,63,64
 228 699 228 699 124 812 c 0,65,66
 26 918 26 918 26 1072 c 0,50,51
378 0 m 1,67,-1
 1157 1462 l 1,68,-1
 1220 1462 l 1,69,-1
 441 0 l 1,70,-1
 378 0 l 1,67,-1
EndSplineSet
EndChar

StartChar: colon
Encoding: 58 58 76
Width: 510
Flags: HW
HStem: -35 275<156.709 354.322> 759 275<156.709 354.322>
VStem: 117 276<3.16235 200.291 797.162 994.291>
LayerCount: 2
Fore
SplineSet
155.5 2 m 128,-1,1
 117 39 117 39 117 101 c 128,-1,2
 117 163 117 163 155.5 201.5 c 128,-1,3
 194 240 194 240 256 240 c 128,-1,4
 318 240 318 240 355.5 201.5 c 128,-1,5
 393 163 393 163 393 101 c 128,-1,6
 393 39 393 39 355.5 2 c 128,-1,7
 318 -35 318 -35 256 -35 c 128,-1,0
 194 -35 194 -35 155.5 2 c 128,-1,1
155.5 796 m 128,-1,9
 117 833 117 833 117 895 c 128,-1,10
 117 957 117 957 155.5 995.5 c 128,-1,11
 194 1034 194 1034 256 1034 c 128,-1,12
 318 1034 318 1034 355.5 995.5 c 128,-1,13
 393 957 393 957 393 895 c 128,-1,14
 393 833 393 833 355.5 796 c 128,-1,15
 318 759 318 759 256 759 c 128,-1,8
 194 759 194 759 155.5 796 c 128,-1,9
EndSplineSet
EndChar

StartChar: semicolon
Encoding: 59 59 77
Width: 518
Flags: HW
HStem: -17 257<155.051 251.064 252.937 313.199> 759 275<156.709 354.322>
VStem: 123 277<-4.84375 196.443 797.162 994.291> 314 86<-115.871 -17>
LayerCount: 2
Fore
SplineSet
155.5 796 m 128,-1,1
 117 833 117 833 117 895 c 128,-1,2
 117 957 117 957 155.5 995.5 c 128,-1,3
 194 1034 194 1034 256 1034 c 128,-1,4
 318 1034 318 1034 355.5 995.5 c 128,-1,5
 393 957 393 957 393 895 c 128,-1,6
 393 833 393 833 355.5 796 c 128,-1,7
 318 759 318 759 256 759 c 128,-1,0
 194 759 194 759 155.5 796 c 128,-1,1
310 -17 m 1,8,9
 282 -35 282 -35 252 -35 c 128,-1,10
 222 -35 222 -35 199 -25 c 128,-1,11
 176 -15 176 -15 159 4 c 0,12,13
 123 43 123 43 123 103 c 0,14,15
 123 189 123 189 194 226 c 0,16,17
 219 240 219 240 256.5 240 c 128,-1,18
 294 240 294 240 321 224.5 c 128,-1,19
 348 209 348 209 366 184 c 0,20,21
 400 133 400 133 400 75.5 c 128,-1,22
 400 18 400 18 390 -29 c 128,-1,23
 380 -76 380 -76 354 -122 c 0,24,25
 295 -227 295 -227 170 -289 c 1,26,-1
 154 -238 l 1,27,28
 280 -177 280 -177 307 -67 c 0,29,30
 314 -38 314 -38 314 -17 c 1,31,-1
 310 -17 l 1,8,9
EndSplineSet
EndChar

StartChar: question
Encoding: 63 63 78
Width: 847
Flags: HW
HStem: -35 246<329.583 506.448> 1021 249<137.113 242.904> 1404 58<240.83 479.523>
VStem: 294 247<-0.963257 175.417> 357 64<407.158 576.386> 584 229<964.761 1294.94>
LayerCount: 2
Fore
SplineSet
151 1270 m 2,0,1
 279 1270 279 1270 279 1148 c 0,2,3
 279 1094 279 1094 244 1057.5 c 128,-1,4
 209 1021 209 1021 163.5 1021 c 128,-1,5
 118 1021 118 1021 93.5 1032.5 c 128,-1,6
 69 1044 69 1044 52 1062 c 0,7,8
 18 1101 18 1101 18 1153 c 128,-1,9
 18 1205 18 1205 40 1258.5 c 128,-1,10
 62 1312 62 1312 110 1357 c 0,11,12
 224 1462 224 1462 430 1462 c 0,13,14
 613 1462 613 1462 718 1359 c 0,15,16
 813 1265 813 1265 813 1123 c 0,17,18
 813 961 813 961 617 770 c 0,19,20
 497 654 497 654 459 588 c 128,-1,21
 421 522 421 522 421 479 c 128,-1,22
 421 436 421 436 431 406 c 1,23,-1
 377 406 l 1,24,25
 357 450 357 450 357 497.5 c 128,-1,26
 357 545 357 545 374 591.5 c 128,-1,27
 391 638 391 638 416 686.5 c 128,-1,28
 441 735 441 735 470.5 786 c 128,-1,29
 500 837 500 837 525 892 c 0,30,31
 584 1022 584 1022 584 1147.5 c 128,-1,32
 584 1273 584 1273 525 1338.5 c 128,-1,33
 466 1404 466 1404 362 1404 c 0,34,35
 279 1404 279 1404 208 1358 c 0,36,37
 146 1316 146 1316 137 1276 c 1,38,-1
 137 1270 l 1,39,-1
 151 1270 l 2,0,1
328.5 -2 m 128,-1,41
 294 31 294 31 294 86.5 c 128,-1,42
 294 142 294 142 328.5 176.5 c 128,-1,43
 363 211 363 211 418.5 211 c 128,-1,44
 474 211 474 211 507.5 176.5 c 128,-1,45
 541 142 541 142 541 86.5 c 128,-1,46
 541 31 541 31 507.5 -2 c 128,-1,47
 474 -35 474 -35 418.5 -35 c 128,-1,40
 363 -35 363 -35 328.5 -2 c 128,-1,41
EndSplineSet
EndChar

StartChar: less
Encoding: 60 60 79
Width: 1018
Flags: W
LayerCount: 2
Fore
SplineSet
16 669 m 1,0,-1
 928 1114 l 1,1,-1
 928 992 l 1,2,-1
 181 645 l 1,3,-1
 181 643 l 1,4,-1
 928 297 l 1,5,-1
 928 174 l 1,6,-1
 16 611 l 1,7,-1
 16 669 l 1,0,-1
EndSplineSet
EndChar

StartChar: at
Encoding: 64 64 80
Width: 1508
Flags: HW
HStem: -195 55<586.067 993.055> 147 54<1049.63 1205.16> 158 75<621.945 814.424> 960 57<689.94 887.845> 1258 56<598.8 978.638>
VStem: 78 65<321.318 785.316> 398 153<298.199 765.345> 1385 68<428.719 858.955>
LayerCount: 2
Fore
SplineSet
759 1017 m 0,0,1
 871 1017 871 1017 946 950 c 1,2,-1
 952 1000 l 1,3,-1
 1100 985 l 1,4,-1
 1054 604 l 1,5,-1
 1040 484 l 2,6,7
 1027 364 1027 364 1027 306 c 0,8,9
 1027 201 1027 201 1114 201 c 0,10,11
 1219 201 1219 201 1301 328 c 0,12,13
 1385 457 1385 457 1385 613.5 c 128,-1,14
 1385 770 1385 770 1343.5 884.5 c 128,-1,15
 1302 999 1302 999 1224 1082 c 0,16,17
 1057 1258 1057 1258 775 1258 c 0,18,19
 594 1258 594 1258 444 1158 c 0,20,21
 305 1066 305 1066 223 904 c 0,22,23
 143 746 143 746 143 585.5 c 128,-1,24
 143 425 143 425 181 297.5 c 128,-1,25
 219 170 219 170 298 73 c 0,26,27
 471 -140 471 -140 785 -140 c 128,-1,28
 1099 -140 1099 -140 1287 66 c 1,29,-1
 1324 32 l 1,30,31
 1115 -195 1115 -195 792 -195 c 0,32,33
 455 -195 455 -195 262 15 c 0,34,35
 78 215 78 215 78 546 c 0,36,37
 78 875 78 875 270 1089 c 0,38,39
 473 1314 473 1314 805 1314 c 0,40,41
 1087 1314 1087 1314 1271 1124 c 0,42,43
 1453 937 1453 937 1453 650 c 0,44,45
 1453 410 1453 410 1334 269 c 0,46,47
 1230 147 1230 147 1078 147 c 128,-1,48
 926 147 926 147 890 264 c 1,49,50
 810 158 810 158 671 158 c 0,51,52
 547 158 547 158 474 243 c 0,53,54
 398 332 398 332 398 488 c 0,55,56
 398 693 398 693 474 838 c 0,57,58
 568 1017 568 1017 759 1017 c 0,0,1
939 890 m 1,59,60
 879 960 879 960 779 960 c 0,61,62
 660 960 660 960 600 806 c 0,63,64
 551 677 551 677 551 477 c 0,65,66
 551 308 551 308 646 252 c 0,67,68
 678 233 678 233 720 233 c 0,69,70
 806 233 806 233 882 323 c 1,71,72
 882 385 882 385 896 512 c 2,73,-1
 939 890 l 1,59,60
979 825 m 1,74,75
 978 825 978 825 978 824.5 c 128,-1,76
 978 824 978 824 979 824 c 1,77,-1
 979 825 l 1,74,75
EndSplineSet
EndChar

StartChar: greater
Encoding: 62 62 81
Width: 1018
Flags: W
LayerCount: 2
Fore
SplineSet
1002 619 m 1,0,-1
 90 174 l 1,1,-1
 90 296 l 1,2,-1
 837 643 l 1,3,-1
 837 645 l 1,4,-1
 90 991 l 1,5,-1
 90 1114 l 1,6,-1
 1002 677 l 1,7,-1
 1002 619 l 1,0,-1
EndSplineSet
EndChar

StartChar: equal
Encoding: 61 61 82
Width: 1146
Flags: HW
HStem: 398 110<117 1029> 798 110<117 1029>
LayerCount: 2
Fore
SplineSet
1029 908 m 1,0,-1
 1029 798 l 1,1,-1
 117 798 l 1,2,-1
 117 908 l 1,3,-1
 1029 908 l 1,0,-1
1029 508 m 1,4,-1
 1029 398 l 1,5,-1
 117 398 l 1,6,-1
 117 508 l 1,7,-1
 1029 508 l 1,4,-1
EndSplineSet
EndChar

StartChar: ampersand
Encoding: 38 38 83
Width: 1499
Flags: HW
HStem: -35 66<568.078 873.809> 206 167<674.005 766.056> 511 189<792.076 1102 1154 1308.37> 784 55<597.838 737> 838 167<1333.94 1426> 1405 57<567.601 807.182>
VStem: 140 268<187.194 574.823> 209 251<956.725 1276.5> 622 51<373.459 474.795> 728 278<1101.98 1278.33> 1102 55<278.659 512> 1427 51<735.182 837.346>
LayerCount: 2
Fore
SplineSet
678 446 m 0,0,1
 673 430 673 430 673 407.5 c 128,-1,2
 673 385 673 385 694 373 c 1,3,-1
 697 373 l 1,4,5
 724 419 724 419 784 419 c 0,6,7
 856 419 856 419 883 362 c 0,8,9
 892 342 892 342 892 316.5 c 128,-1,10
 892 291 892 291 883 270.5 c 128,-1,11
 874 250 874 250 858 236 c 0,12,13
 824 206 824 206 788 206 c 128,-1,14
 752 206 752 206 724.5 215 c 128,-1,15
 697 224 697 224 674 246 c 0,16,17
 622 294 622 294 622 395 c 0,18,19
 622 620 622 620 870 682 c 0,20,21
 940 700 940 700 1040 700 c 2,22,-1
 1241 700 l 2,23,24
 1404 700 1404 700 1422 765 c 0,25,26
 1427 781 1427 781 1427 803.5 c 128,-1,27
 1427 826 1427 826 1406 838 c 1,28,-1
 1403 838 l 1,29,30
 1376 792 1376 792 1316 792 c 0,31,32
 1244 792 1244 792 1217 850 c 0,33,34
 1208 869 1208 869 1208 894.5 c 128,-1,35
 1208 920 1208 920 1217 940.5 c 128,-1,36
 1226 961 1226 961 1242 975 c 0,37,38
 1276 1005 1276 1005 1312 1005 c 128,-1,39
 1348 1005 1348 1005 1375.5 996 c 128,-1,40
 1403 987 1403 987 1426 965 c 0,41,42
 1478 915 1478 915 1478 816 c 0,43,44
 1478 618 1478 618 1285 544 c 0,45,46
 1231 524 1231 524 1154 516 c 1,47,48
 1157 483 1157 483 1157 416.5 c 128,-1,49
 1157 350 1157 350 1129 261 c 128,-1,50
 1101 172 1101 172 1042 106 c 0,51,52
 914 -35 914 -35 667 -35 c 0,53,54
 387 -35 387 -35 254 91 c 0,55,56
 140 198 140 198 140 387 c 0,57,58
 140 556 140 556 256 673 c 0,59,60
 378 797 378 797 586 814 c 1,61,-1
 586 816 l 1,62,63
 296 823 296 823 226 1011 c 0,64,65
 209 1055 209 1055 209 1101 c 128,-1,66
 209 1147 209 1147 218 1187 c 128,-1,67
 227 1227 227 1227 247.5 1265.5 c 128,-1,68
 268 1304 268 1304 301.5 1339.5 c 128,-1,69
 335 1375 335 1375 383 1402 c 0,70,71
 487 1462 487 1462 642 1462 c 0,72,73
 904 1462 904 1462 984 1284 c 0,74,75
 1006 1235 1006 1235 1006 1200 c 2,76,-1
 1006 1190 l 2,77,78
 1006 1132 1006 1132 979 1101 c 0,79,80
 930 1045 930 1045 860 1045 c 0,81,82
 770 1045 770 1045 738 1130 c 0,83,84
 728 1156 728 1156 728 1199 c 128,-1,85
 728 1242 728 1242 763 1279.5 c 128,-1,86
 798 1317 798 1317 863 1320 c 1,87,-1
 862 1324 l 1,88,89
 843 1361 843 1361 794.5 1383 c 128,-1,90
 746 1405 746 1405 686 1405 c 128,-1,91
 626 1405 626 1405 584 1385.5 c 128,-1,92
 542 1366 542 1366 514 1331 c 0,93,94
 460 1264 460 1264 460 1127.5 c 128,-1,95
 460 991 460 991 530.5 915 c 128,-1,96
 601 839 601 839 723 839 c 2,97,-1
 737 839 l 1,98,-1
 737 784 l 1,99,-1
 719 784 l 2,100,101
 490 784 490 784 429 576 c 0,102,103
 408 506 408 506 408 421 c 0,104,105
 408 232 408 232 486 131.5 c 128,-1,106
 564 31 564 31 719 31 c 0,107,108
 847 31 847 31 956 110 c 0,109,110
 1102 218 1102 218 1102 457 c 2,111,-1
 1102 484 l 2,112,113
 1102 498 1102 498 1101 512 c 1,114,115
 1090 511 1090 511 1080 511 c 2,116,-1
 859 511 l 2,117,118
 696 511 696 511 678 446 c 0,0,1
EndSplineSet
EndChar

StartChar: asciicircum
Encoding: 94 94 84
Width: 1299
Flags: HW
HStem: 950 512
LayerCount: 2
Fore
SplineSet
672 1462 m 1,0,-1
 1219 950 l 1,1,-1
 1090 950 l 1,2,-1
 649 1354 l 1,3,-1
 647 1354 l 1,4,-1
 207 950 l 1,5,-1
 80 950 l 1,6,-1
 634 1462 l 1,7,-1
 672 1462 l 1,0,-1
EndSplineSet
EndChar

StartChar: bracketleft
Encoding: 91 91 85
Width: 547
Flags: HW
HStem: -495 61<347 510> 1401 61<347 506>
VStem: 152 195<-434 1401>
LayerCount: 2
Fore
SplineSet
153 1462 m 1,0,-1
 506 1462 l 1,1,-1
 506 1402 l 1,2,-1
 347 1401 l 1,3,-1
 347 -434 l 1,4,-1
 510 -435 l 1,5,-1
 510 -495 l 1,6,-1
 152 -495 l 1,7,-1
 153 1462 l 1,0,-1
EndSplineSet
EndChar

StartChar: bracketright
Encoding: 93 93 86
Width: 547
Flags: HW
HStem: -495 60<37 200> 1402 60<41 200>
VStem: 200 195<-434 1401>
LayerCount: 2
Fore
SplineSet
395 -495 m 1,0,-1
 37 -495 l 1,1,-1
 37 -435 l 1,2,-1
 200 -434 l 1,3,-1
 200 1401 l 1,4,-1
 41 1402 l 1,5,-1
 41 1462 l 1,6,-1
 394 1462 l 1,7,-1
 395 -495 l 1,0,-1
EndSplineSet
EndChar

StartChar: underscore
Encoding: 95 95 87
Width: 1091
Flags: HW
HStem: -197 86<66 1025>
LayerCount: 2
Fore
SplineSet
66 -111 m 1,0,-1
 1025 -111 l 1,1,-1
 1025 -197 l 1,2,-1
 66 -197 l 1,3,-1
 66 -111 l 1,0,-1
EndSplineSet
EndChar

StartChar: backslash
Encoding: 92 92 88
Width: 850
Flags: HW
HStem: 1442 20G<-58 73.5948>
LayerCount: 2
Fore
SplineSet
784 -495 m 1,0,-1
 -58 1462 l 1,1,-1
 65 1462 l 1,2,-1
 906 -495 l 1,3,-1
 784 -495 l 1,0,-1
EndSplineSet
EndChar

StartChar: grave
Encoding: 96 96 89
Width: 488
Flags: HW
HStem: 1169 413
VStem: 85 290
LayerCount: 2
Fore
SplineSet
115 1409 m 2,0,1
 85 1441 85 1441 85 1484.5 c 128,-1,2
 85 1528 85 1528 110.5 1555 c 128,-1,3
 136 1582 136 1582 171 1582 c 128,-1,4
 206 1582 206 1582 230.5 1562 c 128,-1,5
 255 1542 255 1542 264 1513 c 1,6,-1
 375 1195 l 1,7,-1
 338 1169 l 1,8,-1
 115 1409 l 2,0,1
EndSplineSet
EndChar

StartChar: w
Encoding: 119 119 90
Width: 1476
Flags: HW
HStem: 963 41<-12 86 353 453 556 646 894 1003 1210 1325 1382 1486>
LayerCount: 2
Fore
SplineSet
1210 963 m 1,0,-1
 1210 1004 l 1,1,-1
 1486 1004 l 1,2,-1
 1486 963 l 1,3,-1
 1382 952 l 1,4,-1
 1053 -10 l 1,5,-1
 1008 -10 l 1,6,-1
 745 690 l 1,7,-1
 503 -10 l 1,8,-1
 457 -10 l 1,9,-1
 86 952 l 1,10,-1
 -12 963 l 1,11,-1
 -12 1004 l 1,12,-1
 453 1004 l 1,13,-1
 453 963 l 1,14,-1
 353 952 l 1,15,-1
 558 328 l 1,16,-1
 562 328 l 1,17,-1
 717 764 l 1,18,-1
 646 952 l 1,19,-1
 556 963 l 1,20,-1
 556 1004 l 1,21,-1
 1003 1004 l 1,22,-1
 1003 963 l 1,23,-1
 894 952 l 1,24,-1
 1106 319 l 1,25,-1
 1110 319 l 1,26,-1
 1325 952 l 1,27,-1
 1210 963 l 1,0,-1
EndSplineSet
EndChar

StartChar: ring
Encoding: 730 730 91
Width: 542
Flags: HW
HStem: 1176 51<215.753 324.749> 1535 51<215.268 321.816>
VStem: 36 149<1252.21 1503.45> 356 150<1254.14 1504.29>
LayerCount: 2
Fore
SplineSet
36 1379 m 256,0,1
 36 1467 36 1467 104 1527 c 0,2,3
 170 1586 170 1586 269 1586 c 0,4,5
 373 1586 373 1586 439.5 1527 c 128,-1,6
 506 1468 506 1468 506 1379 c 256,7,8
 506 1288 506 1288 440 1232 c 0,9,10
 372 1176 372 1176 269 1176 c 128,-1,11
 166 1176 166 1176 100 1232 c 0,12,13
 36 1287 36 1287 36 1379 c 256,0,1
269 1535 m 256,14,15
 185 1535 185 1535 185 1381 c 128,-1,16
 185 1227 185 1227 269 1227 c 256,17,18
 356 1227 356 1227 356 1379 c 0,19,20
 356 1487 356 1487 310 1522 c 0,21,22
 293 1535 293 1535 269 1535 c 256,14,15
EndSplineSet
EndChar

StartChar: Eth
Encoding: 208 208 92
Width: 1421
Flags: HW
HStem: 0 55<76 230 487.654 750.5> 692 70<51 230 486 693> 1372 55<76 230 487.657 763.812>
VStem: 230 256<58.1641 692 762 1368.47> 1053 266<415.917 1019>
LayerCount: 2
Fore
SplineSet
76 0 m 1,0,-1
 76 45 l 1,1,-1
 230 55 l 1,2,-1
 230 692 l 1,3,-1
 51 692 l 1,4,-1
 51 755 l 1,5,-1
 230 755 l 1,6,-1
 230 1372 l 1,7,-1
 76 1382 l 1,8,-1
 76 1427 l 1,9,-1
 580 1427 l 2,10,11
 974 1427 974 1427 1157 1228 c 0,12,13
 1319 1053 1319 1053 1319 707 c 0,14,15
 1319 213 1319 213 934 55 c 0,16,17
 801 0 801 0 613 0 c 2,18,-1
 76 0 l 1,0,-1
486 65 m 1,19,20
 539 55 539 55 584 55 c 0,21,22
 830 55 830 55 948 246 c 0,23,24
 1053 414 1053 414 1053 723 c 0,25,26
 1053 1030 1053 1030 966 1183 c 0,27,28
 859 1372 859 1372 596 1372 c 0,29,30
 539 1372 539 1372 486 1362 c 1,31,-1
 486 762 l 1,32,-1
 693 762 l 1,33,-1
 693 692 l 1,34,-1
 486 692 l 1,35,-1
 486 65 l 1,19,20
EndSplineSet
EndChar

StartChar: eth
Encoding: 240 240 93
Width: 1102
Flags: HW
HStem: -30 45<459.964 608.752> 971 53<465.353 669.124> 1397 51<209 374.445>
VStem: 80 256<245.336 736.091> 739 252<263.521 861.138>
LayerCount: 2
Fore
SplineSet
246 1448 m 2,0,1
 352 1448 352 1448 456 1414 c 1,2,-1
 558 1555 l 1,3,-1
 609 1513 l 1,4,-1
 513 1392 l 1,5,6
 733 1294 733 1294 866 1052 c 0,7,8
 991 823 991 823 991 557 c 0,9,10
 991 271 991 271 865 116 c 0,11,12
 745 -30 745 -30 535 -30 c 0,13,14
 308 -30 308 -30 187 130 c 0,15,16
 80 272 80 272 80 496 c 128,-1,17
 80 720 80 720 204 870 c 0,18,19
 329 1024 329 1024 519 1024 c 0,20,21
 617 1024 617 1024 690 989 c 1,22,23
 625 1230 625 1230 464 1330 c 1,24,-1
 349 1186 l 1,25,-1
 313 1217 l 1,26,-1
 414 1357 l 1,27,28
 321 1397 321 1397 208 1397 c 1,29,-1
 209 1447 l 1,30,31
 218 1448 218 1448 228 1448 c 2,32,-1
 246 1448 l 2,0,1
336 508 m 256,33,34
 336 15 336 15 531 15 c 0,35,36
 739 15 739 15 739 496 c 0,37,38
 739 757 739 757 706 922 c 1,39,40
 646 971 646 971 573.5 971 c 128,-1,41
 501 971 501 971 455 939 c 128,-1,42
 409 907 409 907 382 848 c 0,43,44
 336 743 336 743 336 508 c 256,33,34
EndSplineSet
EndChar

StartChar: acute
Encoding: 180 180 94
Width: 488
Flags: HW
HStem: 1156 413
VStem: 121 291
LayerCount: 2
Fore
SplineSet
158 1156 m 1,0,-1
 121 1182 l 1,1,-1
 232 1500 l 1,2,3
 241 1529 241 1529 265.5 1549 c 128,-1,4
 290 1569 290 1569 315.5 1569 c 128,-1,5
 341 1569 341 1569 357.5 1562 c 128,-1,6
 374 1555 374 1555 386 1542 c 0,7,8
 412 1514 412 1514 412 1483 c 0,9,10
 412 1429 412 1429 381 1396 c 2,11,-1
 158 1156 l 1,0,-1
EndSplineSet
EndChar

StartChar: Thorn
Encoding: 222 222 95
Width: 1209
Flags: HW
HStem: 0 45<73 227 483 637> 302 55<483 696.5> 1099 61<483 737.493> 1382 45<73 227 483 637>
VStem: 227 256<55 304 357.387 1096.33 1160 1372> 881 266<556.492 943.298>
LayerCount: 2
Fore
SplineSet
774 326.5 m 128,-1,1
 665 302 665 302 591 302 c 128,-1,2
 517 302 517 302 483 304 c 1,3,-1
 483 55 l 1,4,-1
 637 45 l 1,5,-1
 637 0 l 1,6,-1
 73 0 l 1,7,-1
 73 45 l 1,8,-1
 227 55 l 1,9,-1
 227 1372 l 1,10,-1
 73 1382 l 1,11,-1
 73 1427 l 1,12,-1
 637 1427 l 1,13,-1
 637 1382 l 1,14,-1
 483 1372 l 1,15,-1
 483 1160 l 1,16,-1
 615 1160 l 2,17,18
 845 1160 845 1160 988 1065 c 0,19,20
 1147 959 1147 959 1147 755 c 0,21,22
 1147 525 1147 525 966 406 c 0,23,0
 883 351 883 351 774 326.5 c 128,-1,1
702 1083 m 0,24,25
 649 1099 649 1099 591.5 1099 c 128,-1,26
 534 1099 534 1099 483 1091 c 1,27,-1
 483 360 l 1,28,29
 517 357 517 357 553 357 c 0,30,31
 881 357 881 357 881 757 c 0,32,33
 881 1030 881 1030 702 1083 c 0,24,25
EndSplineSet
EndChar

StartChar: thorn
Encoding: 254 254 96
Width: 1092
Flags: HW
HStem: -475 41<44 147 392 495> -30 53<431.802 615.766> 954 80<513.223 673.203> 1348 41<24 147> 1428 20G<297.784 386.414>
VStem: 147 245<-424 21 42.9219 859.369 865 1348> 753 256<250.606 790.42>
LayerCount: 2
Fore
SplineSet
564 -30 m 0,0,1
 457 -30 457 -30 392 21 c 1,2,-1
 392 -424 l 1,3,-1
 495 -434 l 1,4,-1
 495 -475 l 1,5,-1
 44 -475 l 1,6,-1
 44 -434 l 1,7,-1
 147 -424 l 1,8,-1
 147 1348 l 1,9,-1
 24 1348 l 1,10,-1
 24 1389 l 1,11,-1
 233 1411 l 1,12,-1
 374 1448 l 1,13,-1
 392 1419 l 1,14,-1
 392 865 l 1,15,-1
 396 865 l 1,16,17
 474 999 474 999 586 1026 c 0,18,19
 622 1034 622 1034 654 1034 c 128,-1,20
 686 1034 686 1034 721 1026 c 128,-1,21
 756 1018 756 1018 794.5 997 c 128,-1,22
 833 976 833 976 871.5 939.5 c 128,-1,23
 910 903 910 903 940 845 c 0,24,25
 1009 715 1009 715 1009 512 c 256,26,27
 1009 277 1009 277 898 130 c 0,28,29
 777 -30 777 -30 564 -30 c 0,0,1
392 74 m 1,30,31
 449 23 449 23 510.5 23 c 128,-1,32
 572 23 572 23 612 47 c 128,-1,33
 652 71 652 71 678.5 111.5 c 128,-1,34
 705 152 705 152 720 204 c 128,-1,35
 735 256 735 256 742 312 c 0,36,37
 753 390 753 390 753 521 c 128,-1,38
 753 652 753 652 740.5 734.5 c 128,-1,39
 728 817 728 817 705 866 c 0,40,41
 664 954 664 954 577 954 c 0,42,43
 503 954 503 954 446 874 c 0,44,45
 392 797 392 797 392 698 c 2,46,-1
 392 74 l 1,30,31
EndSplineSet
EndChar

StartChar: multiply
Encoding: 215 215 97
Width: 1146
Flags: W
LayerCount: 2
Fore
SplineSet
117 1002 m 1,0,-1
 190 1081 l 1,1,-1
 574 721 l 1,2,-1
 964 1080 l 1,3,-1
 1029 1002 l 1,4,-1
 650 650 l 1,5,-1
 1029 295 l 1,6,-1
 954 212 l 1,7,-1
 569 575 l 1,8,-1
 191 224 l 1,9,-1
 117 302 l 1,10,-1
 493 647 l 1,11,-1
 117 1002 l 1,0,-1
EndSplineSet
EndChar

StartChar: caron
Encoding: 711 711 98
Width: 655
Flags: HW
HStem: 1147 438
VStem: 70 545
LayerCount: 2
Fore
SplineSet
324 1147 m 1,0,-1
 70 1541 l 1,1,-1
 116 1585 l 1,2,-1
 337 1353 l 1,3,-1
 341 1353 l 1,4,-1
 574 1584 l 1,5,-1
 615 1545 l 1,6,-1
 329 1147 l 1,7,-1
 324 1147 l 1,0,-1
EndSplineSet
EndChar

StartChar: bar
Encoding: 124 124 99
Width: 426
Flags: HW
HStem: 1442 20G<152 274>
VStem: 152 122<-495 1462>
LayerCount: 2
Fore
SplineSet
152 -495 m 1,0,-1
 152 1462 l 1,1,-1
 274 1462 l 1,2,-1
 274 -495 l 1,3,-1
 152 -495 l 1,0,-1
EndSplineSet
EndChar

StartChar: braceleft
Encoding: 123 123 100
Width: 684
Flags: HW
HStem: -495 54<537.383 676> 454 60<-9 135.694> 1408 54<535.765 676>
VStem: 221 199<-308.953 191.816 796.818 1276.33> 232 207<-174.566 347.243 620.787 1141.57 1144.44 1295.5>
LayerCount: 2
Fore
SplineSet
232 750 m 1,0,-1
 221 1038 l 1,1,2
 221 1355 221 1355 438 1434 c 0,3,4
 514 1462 514 1462 619 1462 c 2,5,-1
 676 1462 l 1,6,-1
 676 1408 l 1,7,-1
 664 1408 l 2,8,9
 469 1408 469 1408 432 1242 c 0,10,11
 420 1189 420 1189 420 1143 c 128,-1,12
 420 1097 420 1097 423 1067.5 c 128,-1,13
 426 1038 426 1038 430 996 c 0,14,15
 439 884 439 884 439 794 c 128,-1,16
 439 704 439 704 416 656.5 c 128,-1,17
 393 609 393 609 352 574 c 0,18,19
 277 510 277 510 139 486 c 1,20,-1
 139 482 l 1,21,22
 351 445 351 445 416 312 c 0,23,24
 439 264 439 264 439 194 c 128,-1,25
 439 124 439 124 436 68 c 128,-1,26
 433 12 433 12 429.5 -29 c 128,-1,27
 426 -70 426 -70 423 -100 c 128,-1,28
 420 -130 420 -130 420 -176 c 128,-1,29
 420 -222 420 -222 432 -275 c 128,-1,30
 444 -328 444 -328 472 -365 c 0,31,32
 531 -441 531 -441 664 -441 c 2,33,-1
 676 -441 l 1,34,-1
 676 -495 l 1,35,-1
 619 -495 l 2,36,37
 312 -495 312 -495 244 -252 c 0,38,39
 221 -173 221 -173 221 -70 c 1,40,-1
 232 218 l 1,41,42
 232 323 232 323 203.5 368 c 128,-1,43
 175 413 175 413 137 433.5 c 128,-1,44
 99 454 99 454 38 454 c 2,45,-1
 -9 454 l 1,46,-1
 -9 514 l 1,47,-1
 38 514 l 2,48,49
 198 514 198 514 224 664 c 0,50,51
 232 706 232 706 232 750 c 1,0,-1
EndSplineSet
EndChar

StartChar: braceright
Encoding: 125 125 101
Width: 685
Flags: HW
HStem: -495 54<9 149.235> 453 60<549.177 694> 1408 54<9 147.637>
VStem: 246 207<129.657 346.866 620.231 1141.08 1143.92 1296.04> 265 199<-309.62 170.182 774.669 1276.72>
LayerCount: 2
Fore
SplineSet
453 217 m 1,0,-1
 464 -71 l 1,1,2
 464 -388 464 -388 246 -468 c 0,3,4
 171 -495 171 -495 66 -495 c 2,5,-1
 9 -495 l 1,6,-1
 9 -441 l 1,7,-1
 21 -441 l 2,8,9
 216 -441 216 -441 253 -276 c 0,10,11
 265 -222 265 -222 265 -176 c 128,-1,12
 265 -130 265 -130 262 -100.5 c 128,-1,13
 259 -71 259 -71 256 -30 c 0,14,15
 246 83 246 83 246 173 c 128,-1,16
 246 263 246 263 269 310.5 c 128,-1,17
 292 358 292 358 332 392 c 0,18,19
 408 457 408 457 546 481 c 1,20,-1
 546 485 l 1,21,22
 334 522 334 522 269 656 c 0,23,24
 246 703 246 703 246 772.5 c 128,-1,25
 246 842 246 842 249 898.5 c 128,-1,26
 252 955 252 955 255.5 996 c 128,-1,27
 259 1037 259 1037 262 1067 c 128,-1,28
 265 1097 265 1097 265 1142.5 c 128,-1,29
 265 1188 265 1188 253 1241.5 c 128,-1,30
 241 1295 241 1295 212 1332 c 0,31,32
 154 1408 154 1408 21 1408 c 2,33,-1
 9 1408 l 1,34,-1
 9 1462 l 1,35,-1
 66 1462 l 2,36,37
 373 1462 373 1462 442 1220 c 0,38,39
 464 1140 464 1140 464 1037 c 1,40,-1
 453 749 l 1,41,42
 453 644 453 644 481.5 599 c 128,-1,43
 510 554 510 554 548 533.5 c 128,-1,44
 586 513 586 513 647 513 c 2,45,-1
 694 513 l 1,46,-1
 694 453 l 1,47,-1
 647 453 l 2,48,49
 487 453 487 453 460 304 c 0,50,51
 453 261 453 261 453 217 c 1,0,-1
EndSplineSet
EndChar

StartChar: asciitilde
Encoding: 126 126 102
Width: 1101
Flags: HW
HStem: 437 199<628.438 862.651> 568 193<253.687 449.345>
LayerCount: 2
Fore
SplineSet
1011 759 m 1,0,1
 936 437 936 437 731 437 c 0,2,3
 644 437 644 437 497 502 c 0,4,5
 442 527 442 527 390.5 547.5 c 128,-1,6
 339 568 339 568 299 568 c 128,-1,7
 259 568 259 568 236.5 559.5 c 128,-1,8
 214 551 214 551 198 535 c 0,9,10
 173 509 173 509 151 449 c 1,11,-1
 94 449 l 1,12,13
 137 591 137 591 183.5 648.5 c 128,-1,14
 230 706 230 706 281 733.5 c 128,-1,15
 332 761 332 761 395.5 761 c 128,-1,16
 459 761 459 761 503.5 741.5 c 128,-1,17
 548 722 548 722 592.5 698.5 c 128,-1,18
 637 675 637 675 685.5 655.5 c 128,-1,19
 734 636 734 636 799 636 c 0,20,21
 908 636 908 636 954 759 c 1,22,-1
 1011 759 l 1,0,1
EndSplineSet
EndChar

StartChar: dieresis
Encoding: 168 168 103
Width: 736
Flags: HW
HStem: 1246 265<111.974 280.51 454.974 623.51>
VStem: 80 233<1284.68 1472.32> 423 233<1284.68 1472.32>
LayerCount: 2
Fore
SplineSet
454 1283.5 m 128,-1,1
 423 1321 423 1321 423 1378.5 c 128,-1,2
 423 1436 423 1436 454 1473.5 c 128,-1,3
 485 1511 485 1511 539 1511 c 256,4,5
 593 1511 593 1511 624.5 1473.5 c 128,-1,6
 656 1436 656 1436 656 1378.5 c 128,-1,7
 656 1321 656 1321 624.5 1283.5 c 128,-1,8
 593 1246 593 1246 539 1246 c 256,9,0
 485 1246 485 1246 454 1283.5 c 128,-1,1
111 1283.5 m 128,-1,11
 80 1321 80 1321 80 1378.5 c 128,-1,12
 80 1436 80 1436 111 1473.5 c 128,-1,13
 142 1511 142 1511 196 1511 c 256,14,15
 250 1511 250 1511 281.5 1473.5 c 128,-1,16
 313 1436 313 1436 313 1378.5 c 128,-1,17
 313 1321 313 1321 281.5 1283.5 c 128,-1,18
 250 1246 250 1246 196 1246 c 256,19,10
 142 1246 142 1246 111 1283.5 c 128,-1,11
EndSplineSet
EndChar

StartChar: cedilla
Encoding: 184 184 104
Width: 564
Flags: HW
HStem: -514 53<88.7541 168.154> -198 82<201.559 373.25>
VStem: 316 168<-362.43 -210.424>
LayerCount: 2
Fore
SplineSet
200 -155 m 1,0,1
 263 -116 263 -116 336.5 -116 c 128,-1,2
 410 -116 410 -116 447 -152 c 128,-1,3
 484 -188 484 -188 484 -240 c 128,-1,4
 484 -292 484 -292 464.5 -326.5 c 128,-1,5
 445 -361 445 -361 413.5 -388.5 c 128,-1,6
 382 -416 382 -416 340.5 -437 c 128,-1,7
 299 -458 299 -458 256 -474 c 0,8,9
 175 -502 175 -502 92 -514 c 1,10,-1
 80 -461 l 1,11,12
 182 -443 182 -443 250 -386 c 0,13,14
 316 -329 316 -329 316 -269 c 0,15,16
 316 -236 316 -236 297 -217 c 128,-1,17
 278 -198 278 -198 239.5 -198 c 128,-1,18
 201 -198 201 -198 158 -228 c 1,19,-1
 129 -194 l 1,20,-1
 188 16 l 1,21,-1
 256 16 l 1,22,-1
 200 -155 l 1,0,1
EndSplineSet
EndChar

StartChar: cedilla.case
Encoding: 65539 -1 105
Width: 564
Flags: HW
HStem: -560 50<88.7062 166.542> -216 80<192.15 371.75>
VStem: 183 69<-27.9481 16> 316 176<-384.815 -218.52>
LayerCount: 2
Fore
SplineSet
191 -171 m 1,0,1
 257 -136 257 -136 333.5 -136 c 128,-1,2
 410 -136 410 -136 451 -172 c 128,-1,3
 492 -208 492 -208 492 -260 c 128,-1,4
 492 -312 492 -312 472 -348.5 c 128,-1,5
 452 -385 452 -385 419 -415.5 c 128,-1,6
 386 -446 386 -446 344 -470.5 c 128,-1,7
 302 -495 302 -495 258 -513 c 0,8,9
 169 -549 169 -549 91 -560 c 1,10,-1
 83 -510 l 1,11,12
 188 -495 188 -495 256 -421 c 0,13,14
 316 -356 316 -356 316 -286 c 128,-1,15
 316 -216 316 -216 251 -216 c 0,16,17
 201 -216 201 -216 158 -246 c 1,18,-1
 124 -218 l 1,19,-1
 183 16 l 1,20,-1
 252 16 l 1,21,-1
 191 -171 l 1,0,1
EndSplineSet
EndChar

StartChar: tilde
Encoding: 732 732 106
Width: 807
Flags: HW
HStem: 1264 142<429.41 647.164> 1355 135<186.463 398.764>
VStem: 90 36<1284.63 1293.75> 698 39<1474.93 1489.78>
LayerCount: 2
Fore
SplineSet
543 1406 m 0,0,1
 636 1406 636 1406 698 1498 c 1,2,-1
 737 1485 l 1,3,4
 706 1322 706 1322 598 1278 c 0,5,6
 565 1264 565 1264 525.5 1264 c 128,-1,7
 486 1264 486 1264 455.5 1278 c 128,-1,8
 425 1292 425 1292 399.5 1309.5 c 128,-1,9
 374 1327 374 1327 349 1341 c 128,-1,10
 324 1355 324 1355 288 1355 c 0,11,12
 190 1355 190 1355 126 1275 c 1,13,-1
 90 1291 l 1,14,15
 127 1423 127 1423 228 1472 c 0,16,17
 264 1490 264 1490 308.5 1490 c 128,-1,18
 353 1490 353 1490 381.5 1477 c 128,-1,19
 410 1464 410 1464 433.5 1448 c 128,-1,20
 457 1432 457 1432 481.5 1419 c 128,-1,21
 506 1406 506 1406 543 1406 c 0,0,1
EndSplineSet
EndChar

StartChar: circumflex
Encoding: 710 710 107
Width: 695
Flags: HW
HStem: 1167 418
VStem: 90 505
LayerCount: 2
Fore
SplineSet
361 1585 m 1,0,-1
 595 1213 l 1,1,-1
 514 1167 l 1,2,-1
 348 1379 l 1,3,-1
 344 1379 l 1,4,-1
 166 1168 l 1,5,-1
 90 1209 l 1,6,-1
 356 1585 l 1,7,-1
 361 1585 l 1,0,-1
EndSplineSet
EndChar

StartChar: dagger
Encoding: 8224 8224 108
Width: 881
Flags: HW
HStem: 789 149<-24.2322 359.671 523.559 907.232> 837 53<234.192 416 466 655.688> 1442 20G<420.5 490>
VStem: 348 187<-477.763 -125.164 1214.46 1445.2> 411 60<-178.789 355.547>
LayerCount: 2
Fore
SplineSet
466 836 m 1,0,1
 494 648 494 648 550 509 c 1,2,-1
 516 408 l 1,3,4
 471 267 471 267 471 138 c 128,-1,5
 471 9 471 9 481 -64.5 c 128,-1,6
 491 -138 491 -138 503 -191.5 c 128,-1,7
 515 -245 515 -245 525 -285 c 128,-1,8
 535 -325 535 -325 535 -356.5 c 128,-1,9
 535 -388 535 -388 530.5 -411 c 128,-1,10
 526 -434 526 -434 516 -453 c 0,11,12
 492 -495 492 -495 455 -495 c 128,-1,13
 418 -495 418 -495 399.5 -483 c 128,-1,14
 381 -471 381 -471 370 -452 c 0,15,16
 348 -416 348 -416 348 -370 c 128,-1,17
 348 -324 348 -324 358 -283 c 128,-1,18
 368 -242 368 -242 380 -188 c 0,19,20
 411 -40 411 -40 411 68 c 128,-1,21
 411 176 411 176 406 224 c 128,-1,22
 401 272 401 272 391 317 c 128,-1,23
 381 362 381 362 366 408 c 2,24,-1
 333 509 l 1,25,26
 390 650 390 650 416 837 c 1,27,28
 341 836 341 836 268 819 c 0,29,30
 139 789 139 789 75 789 c 0,31,32
 -30 789 -30 789 -30 863.5 c 128,-1,33
 -30 938 -30 938 74 938 c 0,34,35
 139 938 139 938 240.5 914.5 c 128,-1,36
 342 891 342 891 417 890 c 1,37,38
 406 1048 406 1048 385 1134 c 128,-1,39
 364 1220 364 1220 356 1255.5 c 128,-1,40
 348 1291 348 1291 348 1322 c 128,-1,41
 348 1353 348 1353 353 1376.5 c 128,-1,42
 358 1400 358 1400 370 1419 c 0,43,44
 396 1462 396 1462 445 1462 c 0,45,46
 535 1462 535 1462 535 1332 c 0,47,48
 535 1292 535 1292 527 1258 c 2,49,-1
 508 1176 l 2,50,51
 475 1047 475 1047 465 890 c 1,52,53
 519 890 519 890 585 902 c 2,54,-1
 688 922 l 2,55,56
 764 938 764 938 809 938 c 0,57,58
 913 938 913 938 913 863.5 c 128,-1,59
 913 789 913 789 808 789 c 0,60,61
 764 789 764 789 708 800 c 2,62,-1
 615 819 l 2,63,64
 525 836 525 836 466 836 c 1,0,1
EndSplineSet
EndChar

StartChar: daggerdbl
Encoding: 8225 8225 109
Width: 1011
Flags: HW
HStem: 29 149<39.7678 425.701 587.329 971.232> 77 54<290.5 481 531 713.996> 789 149<39.7678 423.671 587.559 971.232> 837 53<298.192 480 530 719.688> 1442 20G<484.5 554>
VStem: 412 187<-479.841 -249.04 1214.46 1445.2>
LayerCount: 2
Fore
SplineSet
481 131 m 1,0,1
 446 367 446 367 397 489 c 1,2,3
 450 620 450 620 480 837 c 1,4,5
 405 836 405 836 332 819 c 0,6,7
 203 789 203 789 139 789 c 0,8,9
 34 789 34 789 34 863.5 c 128,-1,10
 34 938 34 938 138 938 c 0,11,12
 203 938 203 938 304.5 914.5 c 128,-1,13
 406 891 406 891 481 890 c 1,14,15
 470 1048 470 1048 449 1134 c 128,-1,16
 428 1220 428 1220 420 1255.5 c 128,-1,17
 412 1291 412 1291 412 1322 c 128,-1,18
 412 1353 412 1353 417 1376.5 c 128,-1,19
 422 1400 422 1400 434 1419 c 0,20,21
 460 1462 460 1462 509 1462 c 0,22,23
 599 1462 599 1462 599 1332 c 0,24,25
 599 1292 599 1292 591 1258 c 2,26,-1
 572 1176 l 2,27,28
 539 1047 539 1047 529 890 c 1,29,30
 583 890 583 890 649 902 c 2,31,-1
 752 922 l 2,32,33
 828 938 828 938 873 938 c 0,34,35
 977 938 977 938 977 863.5 c 128,-1,36
 977 789 977 789 872 789 c 0,37,38
 828 789 828 789 772 800 c 2,39,-1
 679 819 l 2,40,41
 589 836 589 836 530 836 c 1,42,43
 562 617 562 617 614 489 c 1,44,45
 564 364 564 364 531 130 c 1,46,47
 606 131 606 131 679 148 c 0,48,49
 808 178 808 178 872 178 c 0,50,51
 977 178 977 178 977 103 c 256,52,53
 977 29 977 29 873 29 c 0,54,55
 808 29 808 29 706.5 52.5 c 128,-1,56
 605 76 605 76 530 77 c 1,57,58
 541 -81 541 -81 562 -167 c 128,-1,59
 583 -253 583 -253 591 -288.5 c 128,-1,60
 599 -324 599 -324 599 -355 c 128,-1,61
 599 -386 599 -386 594 -409.5 c 128,-1,62
 589 -433 589 -433 578 -452 c 0,63,64
 551 -495 551 -495 513.5 -495 c 128,-1,65
 476 -495 476 -495 459 -483.5 c 128,-1,66
 442 -472 442 -472 432 -453 c 0,67,68
 412 -418 412 -418 412 -371.5 c 128,-1,69
 412 -325 412 -325 420 -290 c 2,70,-1
 440 -210 l 2,71,72
 469 -89 469 -89 482 77 c 1,73,74
 428 77 428 77 362 64 c 2,75,-1
 258 44 l 2,76,77
 181 29 181 29 138 29 c 0,78,79
 34 29 34 29 34 103 c 256,80,81
 34 178 34 178 139 178 c 0,82,83
 182 178 182 178 238 166 c 2,84,-1
 332 148 l 2,85,86
 422 131 422 131 481 131 c 1,0,1
EndSplineSet
EndChar

StartChar: germandbls
Encoding: 223 223 110
Width: 1246
Flags: HW
HStem: -30 47<648.554 823.218> 0 41<61 163> 113 236<582.469 698.964> 767 49<559 719.984> 1403 45<522.046 726.785>
VStem: 163 245<51 1225.06> 482 249<146.973 313.902> 482 100<64.9375 117> 835 234<971.875 1281.81> 919 251<166.707 586.805>
LayerCount: 2
Fore
SplineSet
670 798 m 1,0,1
 709 799 l 1,2,3
 1071 799 1071 799 1151 520 c 0,4,5
 1170 454 1170 454 1170 390 c 128,-1,6
 1170 326 1170 326 1162.5 280.5 c 128,-1,7
 1155 235 1155 235 1136.5 191 c 128,-1,8
 1118 147 1118 147 1088.5 107 c 128,-1,9
 1059 67 1059 67 1014 36 c 0,10,11
 917 -30 917 -30 770 -30 c 0,12,13
 574 -30 574 -30 506 94 c 0,14,15
 482 138 482 138 482 184.5 c 128,-1,16
 482 231 482 231 491 257.5 c 128,-1,17
 500 284 500 284 516 304 c 0,18,19
 552 349 552 349 610.5 349 c 128,-1,20
 669 349 669 349 700 315 c 0,21,22
 731 280 731 280 731 226 c 0,23,24
 731 177 731 177 700 146 c 0,25,26
 667 113 667 113 614 113 c 0,27,28
 597 113 597 113 582 117 c 1,29,-1
 582 115 l 1,30,31
 592 75 592 75 637 46 c 0,32,33
 681 17 681 17 734 17 c 128,-1,34
 787 17 787 17 820 38 c 128,-1,35
 853 59 853 59 875 98 c 0,36,37
 919 174 919 174 919 293 c 128,-1,38
 919 412 919 412 907.5 488 c 128,-1,39
 896 564 896 564 875 615.5 c 128,-1,40
 854 667 854 667 825 697 c 128,-1,41
 796 727 796 727 761 742 c 0,42,43
 706 767 706 767 605 767 c 2,44,-1
 559 767 l 1,45,-1
 559 816 l 1,46,-1
 604 816 l 2,47,48
 677 816 677 816 746 882 c 0,49,50
 835 965 835 965 835 1106 c 0,51,52
 835 1278 835 1278 766 1350 c 0,53,54
 716 1403 716 1403 637.5 1403 c 128,-1,55
 559 1403 559 1403 516.5 1378 c 128,-1,56
 474 1353 474 1353 450 1316 c 0,57,58
 409 1251 409 1251 409 1147 c 2,59,-1
 408 0 l 1,60,-1
 61 0 l 1,61,-1
 61 41 l 1,62,-1
 163 51 l 1,63,-1
 163 991 l 2,64,65
 163 1191 163 1191 258 1306 c 0,66,67
 330 1392 330 1392 456 1428 c 0,68,69
 530 1448 530 1448 599.5 1448 c 128,-1,70
 669 1448 669 1448 718 1443 c 128,-1,71
 767 1438 767 1438 816 1424.5 c 128,-1,72
 865 1411 865 1411 911 1387.5 c 128,-1,73
 957 1364 957 1364 992 1326 c 0,74,75
 1069 1244 1069 1244 1069 1109 c 0,76,77
 1069 979 1069 979 942 896 c 0,78,79
 843 831 843 831 670 800 c 1,80,-1
 670 798 l 1,0,1
EndSplineSet
EndChar

StartChar: AE
Encoding: 198 198 111
Width: 1854
Flags: HW
HStem: 0 45<-34 87 150 285 719 873 1133.52 1488.2> 414 54<379 873> 710 55<1129.38 1356.83> 984 20G<1433 1488> 1020 21G<1650 1714> 1372 55<564 697.252 1132.62 1487.02>
VStem: 873 256<62.1191 414 468 709.031 765.875 1328> 1433 55<467 622.75 846.125 1004> 1659 55<1020 1164.54> 1713 32<314.401 408>
LayerCount: 2
Fore
SplineSet
1338 1372 m 0,0,1
 1245 1372 1245 1372 1129 1362 c 1,2,-1
 1129 768 l 1,3,4
 1140 767 1140 767 1155 766.5 c 128,-1,5
 1170 766 1170 766 1185 765.5 c 128,-1,6
 1200 765 1200 765 1214 765 c 2,7,-1
 1238 765 l 2,8,9
 1343 765 1343 765 1386 814 c 0,10,11
 1433 868 1433 868 1433 1004 c 1,12,-1
 1488 1004 l 1,13,-1
 1488 467 l 1,14,-1
 1433 467 l 1,15,16
 1433 663 1433 663 1326 698 c 0,17,18
 1289 710 1289 710 1260 710 c 2,19,-1
 1218 710 l 2,20,21
 1205 710 1205 710 1189 709.5 c 128,-1,22
 1173 709 1173 709 1157 708.5 c 128,-1,23
 1141 708 1141 708 1129 707 c 1,24,-1
 1129 65 l 1,25,26
 1274 55 1274 55 1373 55 c 128,-1,27
 1472 55 1472 55 1531.5 81.5 c 128,-1,28
 1591 108 1591 108 1628 156 c 0,29,30
 1693 237 1693 237 1713 408 c 1,31,-1
 1745 408 l 1,32,-1
 1745 0 l 1,33,-1
 719 0 l 1,34,-1
 719 45 l 1,35,-1
 873 55 l 1,36,-1
 873 414 l 1,37,-1
 354 414 l 1,38,-1
 150 55 l 1,39,-1
 285 45 l 1,40,-1
 285 0 l 1,41,-1
 -34 0 l 1,42,-1
 -34 45 l 1,43,-1
 87 55 l 1,44,-1
 636 1020 l 2,45,46
 738 1198 738 1198 738 1263.5 c 128,-1,47
 738 1329 738 1329 698.5 1355.5 c 128,-1,48
 659 1382 659 1382 564 1382 c 1,49,-1
 564 1427 l 1,50,-1
 1714 1427 l 1,51,-1
 1714 1020 l 1,52,-1
 1659 1020 l 1,53,54
 1641 1191 1641 1191 1581 1272 c 0,55,56
 1507 1372 1507 1372 1338 1372 c 0,0,1
873 468 m 1,57,-1
 873 1328 l 1,58,-1
 379 468 l 1,59,-1
 873 468 l 1,57,-1
EndSplineSet
EndChar

StartChar: Oslash
Encoding: 216 216 112
Width: 1442
Flags: HW
HStem: -35 55<598.9 839.522> 1407 55<595.35 853.655>
VStem: 97 251<394.326 1008.68> 1091 251<428.61 1033.61>
LayerCount: 2
Fore
SplineSet
266 166 m 1,0,1
 97 368 97 368 97 709 c 0,2,3
 97 1026 97 1026 262 1239 c 0,4,5
 372 1380 372 1380 538 1434 c 0,6,7
 621 1462 621 1462 717 1462 c 0,8,9
 973 1462 973 1462 1141 1294 c 1,10,-1
 1258 1448 l 1,11,-1
 1381 1448 l 1,12,-1
 1206 1217 l 1,13,14
 1342 1025 1342 1025 1342 741 c 0,15,16
 1342 428 1342 428 1192 208 c 0,17,18
 1024 -35 1024 -35 723 -35 c 0,19,20
 492 -35 492 -35 336 96 c 1,21,-1
 220 -57 l 1,22,-1
 97 -57 l 1,23,-1
 266 166 l 1,0,1
1032 1164 m 1,24,25
 943 1407 943 1407 723 1407 c 0,26,27
 462 1407 462 1407 378 1050 c 0,28,29
 348 921 348 921 348 768 c 0,30,31
 348 495 348 495 399 328 c 1,32,-1
 1032 1164 l 1,24,25
440 221 m 1,33,34
 538 20 538 20 717 20 c 0,35,36
 895 20 895 20 993 206 c 128,-1,37
 1091 392 1091 392 1091 733 c 0,38,39
 1091 914 1091 914 1065 1044 c 1,40,-1
 440 221 l 1,33,34
EndSplineSet
EndChar

StartChar: divide
Encoding: 247 247 113
Width: 1146
Flags: HW
HStem: 93 275<474.709 672.322> 586 110<117 1029> 887 275<474.709 672.322>
VStem: 435 276<131.162 328.291 925.162 1122.29>
LayerCount: 2
Fore
SplineSet
473.5 130 m 128,-1,1
 435 167 435 167 435 229 c 128,-1,2
 435 291 435 291 473.5 329.5 c 128,-1,3
 512 368 512 368 574 368 c 128,-1,4
 636 368 636 368 673.5 329.5 c 128,-1,5
 711 291 711 291 711 229 c 128,-1,6
 711 167 711 167 673.5 130 c 128,-1,7
 636 93 636 93 574 93 c 128,-1,0
 512 93 512 93 473.5 130 c 128,-1,1
473.5 924 m 128,-1,9
 435 961 435 961 435 1023 c 128,-1,10
 435 1085 435 1085 473.5 1123.5 c 128,-1,11
 512 1162 512 1162 574 1162 c 128,-1,12
 636 1162 636 1162 673.5 1123.5 c 128,-1,13
 711 1085 711 1085 711 1023 c 128,-1,14
 711 961 711 961 673.5 924 c 128,-1,15
 636 887 636 887 574 887 c 128,-1,8
 512 887 512 887 473.5 924 c 128,-1,9
1029 696 m 1,16,-1
 1029 586 l 1,17,-1
 117 586 l 1,18,-1
 117 696 l 1,19,-1
 1029 696 l 1,16,-1
EndSplineSet
EndChar

StartChar: guilsinglleft
Encoding: 8249 8249 114
Width: 595
Flags: HW
VStem: 47 472
LayerCount: 2
Fore
SplineSet
47 669 m 1,0,-1
 476 1057 l 1,1,-1
 519 1012 l 1,2,-1
 252 648 l 1,3,-1
 252 646 l 1,4,-1
 519 282 l 1,5,-1
 476 237 l 1,6,-1
 47 625 l 1,7,-1
 47 669 l 1,0,-1
EndSplineSet
EndChar

StartChar: guilsinglright
Encoding: 8250 8250 115
Width: 595
Flags: HW
VStem: 76 472
LayerCount: 2
Fore
SplineSet
548 625 m 1,0,-1
 119 237 l 1,1,-1
 76 282 l 1,2,-1
 343 646 l 1,3,-1
 343 648 l 1,4,-1
 76 1012 l 1,5,-1
 119 1057 l 1,6,-1
 548 669 l 1,7,-1
 548 625 l 1,0,-1
EndSplineSet
EndChar

StartChar: oslash
Encoding: 248 248 116
Width: 1072
Flags: HW
HStem: -30 45<460.444 611.548> 989 45<460.457 618.018>
VStem: 80 241<299.325 733.116> 751 241<259.517 670.193>
LayerCount: 2
Fore
SplineSet
193 124 m 1,0,1
 80 268 80 268 80 496 c 0,2,3
 80 720 80 720 209 876 c 0,4,5
 341 1034 341 1034 529 1034 c 128,-1,6
 717 1034 717 1034 835 920 c 1,7,-1
 924 1034 l 1,8,-1
 1034 1034 l 1,9,-1
 892 852 l 1,10,11
 992 707 992 707 992 502 c 0,12,13
 992 276 992 276 868 125 c 0,14,15
 739 -30 739 -30 539 -30 c 0,16,17
 370 -30 370 -30 254 62 c 1,18,-1
 162 -55 l 1,19,-1
 53 -55 l 1,20,-1
 193 124 l 1,0,1
723 789 m 1,21,22
 676 989 676 989 535 989 c 0,23,24
 430 989 430 989 374 852 c 0,25,26
 321 725 321 725 321 508 c 0,27,28
 321 389 321 389 336 295 c 1,29,-1
 723 789 l 1,21,22
361 188 m 1,30,31
 417 15 417 15 535 15 c 0,32,33
 643 15 643 15 700 152 c 0,34,35
 751 277 751 277 751 496 c 0,36,37
 751 593 751 593 743 673 c 1,38,-1
 361 188 l 1,30,31
EndSplineSet
EndChar

StartChar: ae
Encoding: 230 230 117
Width: 1486
Flags: HW
HStem: -30 91<289.25 508.147> -30 65<988.56 1217.59> 495 45<452.709 633> 532 45<868 1175.78> 624 247<213.612 324.542> 987 47<324.952 536.907 968.054 1101.15>
VStem: 74 242<98.4315 364.539> 633 235<222.372 493.827 577 875.682> 1177 214<590.656 839.168>
LayerCount: 2
Fore
SplineSet
1056 -30 m 0,0,1
 771 -30 771 -30 676 225 c 1,2,-1
 674 225 l 1,3,4
 579 12 579 12 420 -20 c 0,5,6
 374 -30 374 -30 317.5 -30 c 128,-1,7
 261 -30 261 -30 213.5 -8.5 c 128,-1,8
 166 13 166 13 135 48 c 0,9,10
 74 115 74 115 74 217 c 0,11,12
 74 347 74 347 188 438 c 0,13,14
 315 540 315 540 540 540 c 0,15,16
 583 540 583 540 633 536 c 1,17,-1
 633 674 l 2,18,19
 633 833 633 833 603.5 888 c 128,-1,20
 574 943 574 943 535.5 965 c 128,-1,21
 497 987 497 987 442.5 987 c 128,-1,22
 388 987 388 987 350.5 975 c 128,-1,23
 313 963 313 963 286 946 c 0,24,25
 237 915 237 915 213 872 c 1,26,-1
 213 868 l 1,27,28
 229 871 229 871 244 871 c 0,29,30
 295 871 295 871 325.5 839.5 c 128,-1,31
 356 808 356 808 356 764 c 128,-1,32
 356 720 356 720 346.5 698 c 128,-1,33
 337 676 337 676 320 660 c 0,34,35
 285 624 285 624 242 624 c 128,-1,36
 199 624 199 624 175.5 635.5 c 128,-1,37
 152 647 152 647 136 666 c 0,38,39
 103 704 103 704 103 761.5 c 128,-1,40
 103 819 103 819 135 870 c 128,-1,41
 167 921 167 921 220 958 c 0,42,43
 330 1034 330 1034 471 1034 c 0,44,45
 691 1034 691 1034 754 881 c 1,46,-1
 756 881 l 1,47,48
 867 1034 867 1034 1042.5 1034 c 128,-1,49
 1218 1034 1218 1034 1304.5 916.5 c 128,-1,50
 1391 799 1391 799 1391 557 c 1,51,-1
 1364 532 l 1,52,-1
 868 532 l 1,53,-1
 868 414 l 2,54,55
 868 35 868 35 1103 35 c 0,56,57
 1275 35 1275 35 1380 211 c 1,58,-1
 1419 187 l 1,59,60
 1291 -30 1291 -30 1056 -30 c 0,0,1
633 490 m 1,61,62
 588 495 588 495 550 495 c 128,-1,63
 512 495 512 495 472 480.5 c 128,-1,64
 432 466 432 466 404.5 443.5 c 128,-1,65
 377 421 377 421 359.5 392 c 128,-1,66
 342 363 342 363 332 334 c 0,67,68
 316 285 316 285 316 242.5 c 128,-1,69
 316 200 316 200 324.5 167.5 c 128,-1,70
 333 135 333 135 350 112 c 0,71,72
 385 61 385 61 444 61 c 0,73,74
 512 61 512 61 570 142 c 0,75,76
 633 230 633 230 633 352 c 2,77,-1
 633 490 l 1,61,62
1032 989 m 0,78,79
 992 989 992 989 961.5 958.5 c 128,-1,80
 931 928 931 928 912 874 c 0,81,82
 874 770 874 770 868 577 c 1,83,-1
 1175 590 l 1,84,85
 1177 611 1177 611 1177 632 c 2,86,-1
 1177 672 l 2,87,88
 1177 989 1177 989 1032 989 c 0,78,79
EndSplineSet
EndChar

StartChar: florin
Encoding: 402 402 118
Width: 661
Flags: HW
HStem: -495 287<-73.875 48.8752> -495 45<50.3739 152.431> 961 43<5 189 421 669> 1161 287<561.381 685.133> 1403 45<457.392 559.812>
VStem: -137 186<-434.297 -307.356> 189 232<-303.956 951 1004 1261.92> 561 186<1277.34 1388.06>
CounterMasks: 1 07
LayerCount: 2
Fore
SplineSet
510 1403 m 0,0,1
 421 1403 421 1403 421 1237 c 2,2,-1
 421 1004 l 1,3,-1
 669 1004 l 1,4,-1
 669 961 l 1,5,-1
 421 951 l 1,6,-1
 421 -38 l 2,7,8
 421 -394 421 -394 215 -474 c 0,9,10
 163 -495 163 -495 98 -495 c 128,-1,11
 33 -495 33 -495 -9 -482 c 128,-1,12
 -51 -469 -51 -469 -80 -446 c 0,13,14
 -137 -401 -137 -401 -137 -327 c 0,15,16
 -137 -278 -137 -278 -114 -252 c 0,17,18
 -74 -208 -74 -208 -33.5 -208 c 128,-1,19
 7 -208 7 -208 28 -218 c 128,-1,20
 49 -228 49 -228 63 -244 c 0,21,22
 92 -279 92 -279 92 -306.5 c 128,-1,23
 92 -334 92 -334 89.5 -348 c 128,-1,24
 87 -362 87 -362 82 -376 c 0,25,26
 69 -408 69 -408 49 -421 c 1,27,-1
 49 -425 l 1,28,29
 56 -450 56 -450 100 -450 c 0,30,31
 189 -450 189 -450 189 -284 c 2,32,-1
 189 955 l 1,33,-1
 5 961 l 1,34,-1
 5 1004 l 1,35,-1
 189 1004 l 1,36,37
 192 1350 192 1350 396 1428 c 0,38,39
 449 1448 449 1448 513 1448 c 128,-1,40
 577 1448 577 1448 619 1435 c 128,-1,41
 661 1422 661 1422 690 1400 c 0,42,43
 747 1354 747 1354 747 1280 c 0,44,45
 747 1231 747 1231 724 1205 c 0,46,47
 684 1161 684 1161 643.5 1161 c 128,-1,48
 603 1161 603 1161 582 1171 c 128,-1,49
 561 1181 561 1181 546 1198 c 0,50,51
 518 1230 518 1230 518 1276 c 0,52,53
 518 1319 518 1319 534 1343 c 128,-1,54
 550 1367 550 1367 561 1374 c 1,55,-1
 561 1378 l 1,56,57
 554 1403 554 1403 510 1403 c 0,0,1
EndSplineSet
EndChar

StartChar: OE
Encoding: 338 338 119
Width: 2013
Flags: HW
HStem: -35 62<655.784 1010.48> 0 55<1285 1692.35> 710 55<1285.38 1515.11> 984 20G<1592 1647> 1020 21G<1809 1873> 1372 55<1285 1645.79> 1398 64<652.596 1011.45>
VStem: 97 266<372.949 988.617> 1029 256<62.8528 709 766 1365.15> 1592 55<467 622.75 846.125 1004> 1818 55<1020 1164.54> 1872 32<314.401 408>
LayerCount: 2
Fore
SplineSet
1496 1372 m 0,0,1
 1401 1372 1401 1372 1285 1362 c 1,2,-1
 1285 768 l 1,3,4
 1297 767 1297 767 1312 766 c 2,5,-1
 1342 766 l 2,6,7
 1358 765 1358 765 1372 765 c 2,8,-1
 1397 765 l 2,9,10
 1502 765 1502 765 1545 814 c 0,11,12
 1592 868 1592 868 1592 1004 c 1,13,-1
 1647 1004 l 1,14,-1
 1647 467 l 1,15,-1
 1592 467 l 1,16,17
 1592 663 1592 663 1484 698 c 0,18,19
 1448 710 1448 710 1420 710 c 2,20,-1
 1377 710 l 2,21,22
 1363 710 1363 710 1346.5 709.5 c 128,-1,23
 1330 709 1330 709 1313.5 708.5 c 128,-1,24
 1297 708 1297 708 1285 707 c 1,25,-1
 1285 65 l 1,26,27
 1430 55 1430 55 1530.5 55 c 128,-1,28
 1631 55 1631 55 1690.5 81.5 c 128,-1,29
 1750 108 1750 108 1788 156 c 0,30,31
 1852 237 1852 237 1872 408 c 1,32,-1
 1904 408 l 1,33,-1
 1904 0 l 1,34,-1
 1029 0 l 1,35,36
 906 -35 906 -35 768.5 -35 c 128,-1,37
 631 -35 631 -35 531 -7 c 128,-1,38
 431 21 431 21 357 71 c 128,-1,39
 283 121 283 121 233 189.5 c 128,-1,40
 183 258 183 258 153 338 c 0,41,42
 97 489 97 489 97 689 c 0,43,44
 97 982 97 982 245 1204 c 0,45,46
 352 1363 352 1363 532 1428 c 0,47,48
 624 1462 624 1462 732.5 1462 c 128,-1,49
 841 1462 841 1462 1029 1427 c 1,50,-1
 1873 1427 l 1,51,-1
 1873 1020 l 1,52,-1
 1818 1020 l 1,53,54
 1800 1191 1800 1191 1740 1272 c 0,55,56
 1666 1372 1666 1372 1496 1372 c 0,0,1
1029 1358 m 1,57,58
 951 1398 951 1398 823.5 1398 c 128,-1,59
 696 1398 696 1398 613.5 1346.5 c 128,-1,60
 531 1295 531 1295 476 1204 c 0,61,62
 363 1018 363 1018 363 716 c 0,63,64
 363 402 363 402 476 218 c 0,65,66
 594 27 594 27 810 27 c 0,67,68
 936 27 936 27 1029 64 c 1,69,-1
 1029 1358 l 1,57,58
EndSplineSet
EndChar

StartChar: quotesinglbase
Encoding: 8218 8218 120
Width: 459
Flags: HW
HStem: -17 257<123.599 219.58 221.422 282.199>
VStem: 283 86<-115.871 -17>
LayerCount: 2
Fore
SplineSet
279 -17 m 1,0,1
 250 -35 250 -35 220.5 -35 c 128,-1,2
 191 -35 191 -35 168 -25 c 128,-1,3
 145 -15 145 -15 128 4 c 0,4,5
 92 43 92 43 92 103 c 0,6,7
 92 189 92 189 162 226 c 0,8,9
 188 240 188 240 225.5 240 c 128,-1,10
 263 240 263 240 290 224.5 c 128,-1,11
 317 209 317 209 334 184 c 0,12,13
 369 133 369 133 369 75.5 c 128,-1,14
 369 18 369 18 359 -29 c 128,-1,15
 349 -76 349 -76 323 -122 c 0,16,17
 264 -227 264 -227 139 -289 c 1,18,-1
 123 -238 l 1,19,20
 249 -177 249 -177 276 -67 c 0,21,22
 283 -38 283 -38 283 -17 c 1,23,-1
 279 -17 l 1,0,1
EndSplineSet
EndChar

StartChar: quotedblbase
Encoding: 8222 8222 121
Width: 770
Flags: HW
HStem: -17 257<212.874 268.251 542.874 598.251>
VStem: 269 79<-116.23 -17> 599 79<-116.23 -17>
LayerCount: 2
Fore
SplineSet
265 -17 m 1,0,1
 240 -35 240 -35 212 -35 c 128,-1,2
 184 -35 184 -35 163 -25 c 128,-1,3
 142 -15 142 -15 127 4 c 0,4,5
 94 44 94 44 94 84 c 128,-1,6
 94 124 94 124 100.5 148 c 128,-1,7
 107 172 107 172 122 192 c 0,8,9
 155 240 155 240 216 240 c 256,10,11
 280 240 280 240 316 184 c 0,12,13
 348 135 348 135 348 76.5 c 128,-1,14
 348 18 348 18 338.5 -29 c 128,-1,15
 329 -76 329 -76 306 -122 c 0,16,17
 253 -226 253 -226 137 -289 c 1,18,-1
 122 -238 l 1,19,20
 238 -178 238 -178 262 -67 c 0,21,22
 269 -38 269 -38 269 -17 c 1,23,-1
 265 -17 l 1,0,1
595 -17 m 1,24,25
 570 -35 570 -35 542 -35 c 128,-1,26
 514 -35 514 -35 493 -25 c 128,-1,27
 472 -15 472 -15 457 4 c 0,28,29
 424 44 424 44 424 84 c 128,-1,30
 424 124 424 124 430.5 148 c 128,-1,31
 437 172 437 172 452 192 c 0,32,33
 485 240 485 240 546 240 c 256,34,35
 610 240 610 240 646 184 c 0,36,37
 678 135 678 135 678 76.5 c 128,-1,38
 678 18 678 18 668.5 -29 c 128,-1,39
 659 -76 659 -76 636 -122 c 0,40,41
 583 -226 583 -226 467 -289 c 1,42,-1
 452 -238 l 1,43,44
 568 -178 568 -178 592 -67 c 0,45,46
 599 -38 599 -38 599 -17 c 1,47,-1
 595 -17 l 1,24,25
EndSplineSet
EndChar

StartChar: dotlessi
Encoding: 305 305 122
Width: 585
Flags: HW
HStem: 0 41<76 179 424 527> 924 41<58 179> 1004 20G<329.784 418.414>
VStem: 179 245<51 926>
LayerCount: 2
Fore
SplineSet
424 51 m 1,0,-1
 527 41 l 1,1,-1
 527 0 l 1,2,-1
 76 0 l 1,3,-1
 76 41 l 1,4,-1
 179 51 l 1,5,-1
 179 926 l 1,6,-1
 58 924 l 1,7,-1
 56 965 l 1,8,-1
 265 987 l 1,9,-1
 406 1024 l 1,10,-1
 424 995 l 1,11,-1
 424 51 l 1,0,-1
EndSplineSet
EndChar

StartChar: uni00AD
Encoding: 173 173 123
Width: 746
Flags: HW
HStem: 592 110<117 629>
VStem: 117 512<592 702>
LayerCount: 2
Fore
SplineSet
629 702 m 1,0,-1
 629 592 l 1,1,-1
 117 592 l 1,2,-1
 117 702 l 1,3,-1
 629 702 l 1,0,-1
EndSplineSet
EndChar

StartChar: fi
Encoding: 64257 64257 124
Width: 1251
Flags: HW
HStem: 0 41<81 183 429 572 742 845 1090 1193> 961 43<36 183 429 845> 1004 20G<967.556 1084.41> 1402 46<572.615 858.379>
VStem: 183 246<51 949 1003 1213.34> 845 245<51 957> 882 187<1255.34 1364.98>
LayerCount: 2
Fore
SplineSet
707 1402 m 0,0,1
 429 1402 429 1402 429 1137 c 2,2,-1
 429 1001 l 1,3,-1
 931 997 l 1,4,-1
 1072 1024 l 1,5,-1
 1090 995 l 1,6,-1
 1090 51 l 1,7,-1
 1193 41 l 1,8,-1
 1193 0 l 1,9,-1
 742 0 l 1,10,-1
 742 41 l 1,11,-1
 845 51 l 1,12,-1
 845 957 l 1,13,-1
 429 949 l 1,14,-1
 429 51 l 1,15,-1
 572 41 l 1,16,-1
 572 0 l 1,17,-1
 81 0 l 1,18,-1
 81 41 l 1,19,-1
 183 51 l 1,20,-1
 183 955 l 1,21,-1
 36 961 l 1,22,-1
 36 1004 l 1,23,-1
 183 1003 l 1,24,25
 189 1350 189 1350 504 1428 c 0,26,27
 584 1448 584 1448 676.5 1448 c 128,-1,28
 769 1448 769 1448 836 1439 c 128,-1,29
 903 1430 903 1430 954 1408 c 0,30,31
 1069 1361 1069 1361 1069 1260 c 0,32,33
 1069 1180 1069 1180 1004 1150 c 0,34,35
 982 1140 982 1140 940.5 1140 c 128,-1,36
 899 1140 899 1140 868 1173 c 128,-1,37
 837 1206 837 1206 837 1254 c 0,38,39
 837 1297 837 1297 854 1322 c 128,-1,40
 871 1347 871 1347 882 1354 c 1,41,-1
 882 1358 l 1,42,43
 869 1384 869 1384 809 1393 c 128,-1,44
 749 1402 749 1402 707 1402 c 0,0,1
EndSplineSet
EndChar

StartChar: fl
Encoding: 64258 64258 125
Width: 1263
Flags: HW
HStem: 0 41<81 183 429 572 752 855 1100 1203> 961 43<36 183 429 670> 1393 55<495.909 727.383>
VStem: 183 246<51 951 1004 1263.36> 855 245<51 1298.04>
LayerCount: 2
Fore
SplineSet
855 1108 m 2,0,1
 855 1336 855 1336 700 1379 c 0,2,3
 649 1393 649 1393 595 1393 c 128,-1,4
 541 1393 541 1393 511 1376 c 128,-1,5
 481 1359 481 1359 463 1330 c 0,6,7
 429 1277 429 1277 429 1181 c 2,8,-1
 429 1004 l 1,9,-1
 670 1004 l 1,10,-1
 670 961 l 1,11,-1
 429 951 l 1,12,-1
 429 51 l 1,13,-1
 572 41 l 1,14,-1
 572 0 l 1,15,-1
 81 0 l 1,16,-1
 81 41 l 1,17,-1
 183 51 l 1,18,-1
 183 955 l 1,19,-1
 36 961 l 1,20,-1
 36 1004 l 1,21,-1
 183 1004 l 1,22,23
 188 1295 188 1295 321 1389 c 0,24,25
 393 1440 393 1440 478 1446 c 0,26,27
 516 1448 516 1448 551 1448 c 128,-1,28
 586 1448 586 1448 625 1442 c 128,-1,29
 664 1436 664 1436 700.5 1427.5 c 128,-1,30
 737 1419 737 1419 770 1408 c 2,31,-1
 830 1389 l 1,32,-1
 941 1411 l 1,33,-1
 1082 1448 l 1,34,-1
 1100 1419 l 1,35,-1
 1100 51 l 1,36,-1
 1203 41 l 1,37,-1
 1203 0 l 1,38,-1
 752 0 l 1,39,-1
 752 41 l 1,40,-1
 855 51 l 1,41,-1
 855 1108 l 2,0,1
EndSplineSet
EndChar

StartChar: grave.case
Encoding: 65540 -1 126
Width: 541
Flags: HW
HStem: 1586 257
VStem: 71 407
LayerCount: 2
Fore
SplineSet
162 1666 m 1,0,1
 71 1687 71 1687 71 1763 c 0,2,3
 71 1824 71 1824 131 1843 c 0,4,5
 147 1848 147 1848 164 1848 c 0,6,7
 194 1848 194 1848 236 1815 c 2,8,-1
 478 1624 l 1,9,-1
 463 1586 l 1,10,-1
 162 1666 l 1,0,1
EndSplineSet
EndChar

StartChar: acute.case
Encoding: 65541 -1 127
Width: 541
Flags: HW
HStem: 1579 264
VStem: 75 406
LayerCount: 2
Fore
SplineSet
90 1579 m 1,0,-1
 75 1617 l 1,1,-1
 317 1808 l 2,2,3
 362 1843 362 1843 386 1843 c 128,-1,4
 410 1843 410 1843 425 1838 c 128,-1,5
 440 1833 440 1833 452 1822 c 0,6,7
 481 1797 481 1797 481 1767.5 c 128,-1,8
 481 1738 481 1738 473.5 1722 c 128,-1,9
 466 1706 466 1706 454 1693 c 0,10,11
 430 1668 430 1668 391 1659 c 1,12,-1
 90 1579 l 1,0,-1
EndSplineSet
EndChar

StartChar: circumflex.case
Encoding: 65542 -1 128
Width: 826
Flags: HW
HStem: 1576 322
VStem: 120 596
LayerCount: 2
Fore
SplineSet
417 1898 m 1,0,-1
 421 1898 l 1,1,-1
 716 1623 l 1,2,-1
 654 1576 l 1,3,-1
 413 1737 l 1,4,-1
 409 1737 l 1,5,-1
 175 1573 l 1,6,-1
 120 1619 l 1,7,-1
 417 1898 l 1,0,-1
EndSplineSet
EndChar

StartChar: dieresis.case
Encoding: 65543 -1 129
Width: 785
Flags: HW
HStem: 1616 269<108.125 295.662 468.125 655.662>
VStem: 80 245<1665.91 1856.44> 440 245<1665.91 1856.44>
LayerCount: 2
Fore
SplineSet
80 1751 m 256,0,1
 80 1841 80 1841 152 1874 c 0,2,3
 174 1885 174 1885 202 1885 c 256,4,5
 288 1885 288 1885 316 1804 c 0,6,7
 325 1779 325 1779 325 1751 c 256,8,9
 325 1694 325 1694 300 1665 c 0,10,11
 258 1616 258 1616 202 1616 c 256,12,13
 117 1616 117 1616 88 1698 c 0,14,15
 80 1723 80 1723 80 1751 c 256,0,1
440 1751 m 256,16,17
 440 1841 440 1841 512 1874 c 0,18,19
 534 1885 534 1885 562 1885 c 256,20,21
 648 1885 648 1885 676 1804 c 0,22,23
 685 1779 685 1779 685 1751 c 256,24,25
 685 1694 685 1694 660 1665 c 0,26,27
 618 1616 618 1616 562 1616 c 256,28,29
 477 1616 477 1616 448 1698 c 0,30,31
 440 1723 440 1723 440 1751 c 256,16,17
EndSplineSet
EndChar

StartChar: tilde.case
Encoding: 65544 -1 130
Width: 847
Flags: HW
HStem: 1643 142<429.41 648.311> 1734 135<185.112 398.764>
VStem: 90 36<1663.63 1672.75> 698 39<1853.93 1868.78>
LayerCount: 2
Fore
SplineSet
543 1785 m 0,0,1
 636 1785 636 1785 698 1877 c 1,2,-1
 737 1864 l 1,3,4
 706 1701 706 1701 598 1656 c 0,5,6
 565 1643 565 1643 525.5 1643 c 128,-1,7
 486 1643 486 1643 455.5 1657 c 128,-1,8
 425 1671 425 1671 399.5 1688.5 c 128,-1,9
 374 1706 374 1706 349 1720 c 128,-1,10
 324 1734 324 1734 288 1734 c 0,11,12
 190 1734 190 1734 126 1654 c 1,13,-1
 90 1670 l 1,14,15
 127 1802 127 1802 228 1852 c 0,16,17
 264 1869 264 1869 308.5 1869 c 128,-1,18
 353 1869 353 1869 381.5 1856 c 128,-1,19
 410 1843 410 1843 433.5 1827 c 128,-1,20
 457 1811 457 1811 481.5 1798 c 128,-1,21
 506 1785 506 1785 543 1785 c 0,0,1
EndSplineSet
EndChar

StartChar: ring.case
Encoding: 65545 -1 131
Width: 656
Flags: HW
HStem: 1567 56<249.849 405.651> 1871 56<249.382 405.263>
VStem: 80 139<1639.53 1854.87> 436 140<1639.53 1855.12>
LayerCount: 2
Fore
SplineSet
576 1745 m 0,0,1
 576 1567 576 1567 328 1567 c 128,-1,2
 80 1567 80 1567 80 1745 c 0,3,4
 80 1879 80 1879 224 1916 c 0,5,6
 270 1927 270 1927 326 1927 c 0,7,8
 446 1927 446 1927 511 1881 c 128,-1,9
 576 1835 576 1835 576 1745 c 0,0,1
327.5 1871 m 128,-1,11
 219 1871 219 1871 219 1747 c 128,-1,12
 219 1623 219 1623 327.5 1623 c 128,-1,13
 436 1623 436 1623 436 1747 c 128,-1,10
 436 1871 436 1871 327.5 1871 c 128,-1,11
EndSplineSet
EndChar

StartChar: caron.case
Encoding: 65546 -1 132
Width: 826
Flags: HW
HStem: 1562 342
VStem: 80 666
LayerCount: 2
Fore
SplineSet
409 1562 m 1,0,-1
 405 1562 l 1,1,-1
 80 1862 l 1,2,-1
 109 1904 l 1,3,-1
 413 1749 l 1,4,-1
 417 1749 l 1,5,-1
 716 1907 l 1,6,-1
 746 1866 l 1,7,-1
 409 1562 l 1,0,-1
EndSplineSet
EndChar

StartChar: b
Encoding: 98 98 133
Width: 1089
Flags: HW
HStem: -30 60<485.291 642.921> 954 80<514.288 671.452> 1348 41<24 147> 1428 20G<297.784 386.414>
VStem: 147 245<90.5156 857.19 865 1348> 749 256<233.692 811.339>
LayerCount: 2
Fore
SplineSet
392 865 m 1,0,-1
 396 865 l 1,1,2
 477 1003 477 1003 594 1026 c 0,3,4
 631 1034 631 1034 666 1034 c 128,-1,5
 701 1034 701 1034 736.5 1027 c 128,-1,6
 772 1020 772 1020 809 1000 c 128,-1,7
 846 980 846 980 881.5 943.5 c 128,-1,8
 917 907 917 907 944 849 c 0,9,10
 1005 721 1005 721 1005 510 c 0,11,12
 1005 276 1005 276 909 131 c 0,13,14
 802 -30 802 -30 607 -30 c 0,15,16
 518 -30 518 -30 442 26 c 0,17,18
 414 46 414 46 392 78 c 1,19,-1
 188 -10 l 1,20,-1
 147 -10 l 1,21,-1
 147 1348 l 1,22,-1
 24 1348 l 1,23,-1
 24 1389 l 1,24,-1
 233 1411 l 1,25,-1
 374 1448 l 1,26,-1
 392 1419 l 1,27,-1
 392 865 l 1,0,-1
647 935 m 128,-1,29
 615 954 615 954 576.5 954 c 128,-1,30
 538 954 538 954 504.5 931.5 c 128,-1,31
 471 909 471 909 446 872 c 0,32,33
 392 794 392 794 392 695 c 2,34,-1
 392 215 l 2,35,36
 392 143 392 143 440 87 c 0,37,38
 490 30 490 30 545.5 30 c 128,-1,39
 601 30 601 30 634 53 c 128,-1,40
 667 76 667 76 688.5 115 c 128,-1,41
 710 154 710 154 722.5 204.5 c 128,-1,42
 735 255 735 255 740 310 c 0,43,44
 749 394 749 394 749 522 c 128,-1,45
 749 650 749 650 736.5 734 c 128,-1,46
 724 818 724 818 701.5 867 c 128,-1,28
 679 916 679 916 647 935 c 128,-1,29
EndSplineSet
EndChar

StartChar: c
Encoding: 99 99 134
Width: 946
Flags: HW
HStem: -30 69<470.399 702.403> 641 245<643.749 758.664> 984 50<488.696 687.061>
VStem: 81 256<220.434 729.217>
LayerCount: 2
Fore
SplineSet
892 193 m 1,0,1
 768 -30 768 -30 540 -30 c 0,2,3
 81 -30 81 -30 81 496 c 0,4,5
 81 697 81 697 193 854 c 0,6,7
 271 964 271 964 401 1010 c 0,8,9
 467 1034 467 1034 543 1034 c 128,-1,10
 619 1034 619 1034 678 1012.5 c 128,-1,11
 737 991 737 991 780 955 c 0,12,13
 870 880 870 880 870 770 c 0,14,15
 870 717 870 717 846 690 c 0,16,17
 802 641 802 641 744.5 641 c 128,-1,18
 687 641 687 641 652.5 676 c 128,-1,19
 618 711 618 711 618 749.5 c 128,-1,20
 618 788 618 788 626.5 810.5 c 128,-1,21
 635 833 635 833 650 850 c 0,22,23
 683 886 683 886 734 886 c 0,24,25
 745 886 745 886 759 884 c 1,26,-1
 759 889 l 1,27,28
 702 984 702 984 585 984 c 0,29,30
 456 984 456 984 392 844 c 0,31,32
 337 722 337 722 337 500 c 0,33,34
 337 136 337 136 488 61 c 0,35,36
 533 39 533 39 571 39 c 128,-1,37
 609 39 609 39 641 43.5 c 128,-1,38
 673 48 673 48 708 66 c 0,39,40
 788 107 788 107 853 216 c 1,41,-1
 892 193 l 1,0,1
EndSplineSet
EndChar

StartChar: v
Encoding: 118 118 135
Width: 963
Flags: HW
HStem: 963 41<-12 87 353 461 699 809 869 973>
LayerCount: 2
Fore
SplineSet
699 963 m 1,0,-1
 699 1004 l 1,1,-1
 973 1004 l 1,2,-1
 973 963 l 1,3,-1
 869 952 l 1,4,-1
 534 -10 l 1,5,-1
 488 -10 l 1,6,-1
 87 952 l 1,7,-1
 -12 963 l 1,8,-1
 -12 1004 l 1,9,-1
 461 1004 l 1,10,-1
 461 963 l 1,11,-1
 353 952 l 1,12,-1
 589 322 l 1,13,-1
 593 322 l 1,14,-1
 809 952 l 1,15,-1
 699 963 l 1,0,-1
EndSplineSet
EndChar

StartChar: brokenbar
Encoding: 166 166 136
Width: 458
Flags: HW
HStem: 1442 20G<168 290>
VStem: 168 122<-495 222 745 1462>
LayerCount: 2
Fore
SplineSet
168 745 m 1,0,-1
 168 1462 l 1,1,-1
 290 1462 l 1,2,-1
 290 745 l 1,3,-1
 168 745 l 1,0,-1
168 -495 m 1,4,-1
 168 222 l 1,5,-1
 290 222 l 1,6,-1
 290 -495 l 1,7,-1
 168 -495 l 1,4,-1
EndSplineSet
EndChar

StartChar: plusminus
Encoding: 177 177 137
Width: 1146
Flags: HW
HStem: 0 110<117 1029> 592 110<117 518 628 1029> 1010 20G<518 628>
VStem: 518 110<264 592 702 1030>
LayerCount: 2
Fore
SplineSet
518 702 m 1,0,-1
 518 1030 l 1,1,-1
 628 1030 l 1,2,-1
 628 702 l 1,3,-1
 1029 702 l 1,4,-1
 1029 592 l 1,5,-1
 628 592 l 1,6,-1
 628 264 l 1,7,-1
 518 264 l 1,8,-1
 518 592 l 1,9,-1
 117 592 l 1,10,-1
 117 702 l 1,11,-1
 518 702 l 1,0,-1
1029 110 m 1,12,-1
 1029 0 l 1,13,-1
 117 0 l 1,14,-1
 117 110 l 1,15,-1
 1029 110 l 1,12,-1
EndSplineSet
EndChar

StartChar: macron
Encoding: 175 175 138
Width: 959
Flags: HW
HStem: 1341 86<0 959>
LayerCount: 2
Fore
SplineSet
0 1427 m 1,0,-1
 959 1427 l 1,1,-1
 959 1341 l 1,2,-1
 0 1341 l 1,3,-1
 0 1427 l 1,0,-1
EndSplineSet
EndChar

StartChar: endash
Encoding: 8211 8211 139
Width: 1067
Flags: HW
HStem: 592 110<117 950>
LayerCount: 2
Fore
SplineSet
950 702 m 1,0,-1
 950 592 l 1,1,-1
 117 592 l 1,2,-1
 117 702 l 1,3,-1
 950 702 l 1,0,-1
EndSplineSet
EndChar

StartChar: emdash
Encoding: 8212 8212 140
Width: 1445
Flags: HW
HStem: 592 110<156 1289>
LayerCount: 2
Fore
SplineSet
1289 702 m 1,0,-1
 1289 592 l 1,1,-1
 156 592 l 1,2,-1
 156 702 l 1,3,-1
 1289 702 l 1,0,-1
EndSplineSet
EndChar

StartChar: logicalnot
Encoding: 172 172 141
Width: 1146
Flags: HW
HStem: 592 110<117 919>
VStem: 919 110<350 592>
LayerCount: 2
Fore
SplineSet
919 592 m 1,0,-1
 117 592 l 1,1,-1
 117 702 l 1,2,-1
 1029 702 l 1,3,-1
 1029 350 l 1,4,-1
 919 350 l 1,5,-1
 919 592 l 1,0,-1
EndSplineSet
EndChar

StartChar: section
Encoding: 167 167 142
Width: 990
Flags: HW
HStem: -394 54<338.743 624.038> 1408 54<366.027 640.346>
VStem: 84 98<493 782.396> 114 144<1064.71 1281.09> 739 144<-219.095 -7.82764> 815 98<285.671 569.5>
LayerCount: 2
Fore
SplineSet
806 197 m 1,0,1
 883 93 883 93 883 -51 c 0,2,3
 883 -182 883 -182 796 -276 c 0,4,5
 686 -394 686 -394 470 -394 c 0,6,7
 279 -394 279 -394 182 -296 c 0,8,9
 108 -221 108 -221 108 -128 c 0,10,11
 108 -65 108 -65 134 -33 c 0,12,13
 182 26 182 26 246.5 26 c 128,-1,14
 311 26 311 26 347.5 -12 c 128,-1,15
 384 -50 384 -50 384 -112 c 128,-1,16
 384 -174 384 -174 345.5 -208.5 c 128,-1,17
 307 -243 307 -243 247 -243 c 1,18,-1
 247 -247 l 1,19,20
 285 -305 285 -305 398 -332 c 0,21,22
 434 -340 434 -340 482.5 -340 c 128,-1,23
 531 -340 531 -340 580 -328 c 128,-1,24
 629 -316 629 -316 664 -292 c 0,25,26
 739 -241 739 -241 739 -145 c 0,27,28
 739 -56 739 -56 684 5 c 0,29,30
 624 71 624 71 496 125 c 128,-1,31
 368 179 368 179 292 222.5 c 128,-1,32
 216 266 216 266 170 316 c 0,33,34
 84 409 84 409 84 577 c 0,35,36
 84 756 84 756 186 865 c 1,37,38
 114 962 114 962 114 1109 c 0,39,40
 114 1240 114 1240 199 1339 c 0,41,42
 305 1462 305 1462 515 1462 c 0,43,44
 699 1462 699 1462 793 1362 c 0,45,46
 862 1289 862 1289 862 1196 c 0,47,48
 862 1134 862 1134 836 1103 c 0,49,50
 789 1048 789 1048 724 1048 c 128,-1,51
 659 1048 659 1048 622.5 1086 c 128,-1,52
 586 1124 586 1124 586 1186 c 128,-1,53
 586 1248 586 1248 624.5 1282.5 c 128,-1,54
 663 1317 663 1317 723 1317 c 1,55,-1
 723 1321 l 1,56,57
 684 1378 684 1378 578 1400 c 0,58,59
 542 1408 542 1408 502 1408 c 0,60,61
 387 1408 387 1408 322.5 1355.5 c 128,-1,62
 258 1303 258 1303 258 1203 c 0,63,64
 258 1114 258 1114 308 1058 c 0,65,66
 361 998 361 998 490 943.5 c 128,-1,67
 619 889 619 889 696.5 845.5 c 128,-1,68
 774 802 774 802 822 752 c 0,69,70
 913 656 913 656 913 483 c 128,-1,71
 913 310 913 310 806 197 c 1,0,1
777 232 m 1,72,73
 815 283 815 283 815 343.5 c 128,-1,74
 815 404 815 404 793.5 445.5 c 128,-1,75
 772 487 772 487 722 532 c 0,76,77
 619 622 619 622 380 722 c 0,78,79
 281 764 281 764 215 830 c 1,80,81
 182 788 182 788 182 726 c 128,-1,82
 182 664 182 664 202 622.5 c 128,-1,83
 222 581 222 581 270 536 c 0,84,85
 370 446 370 446 607 346 c 0,86,87
 710 302 710 302 777 232 c 1,72,73
EndSplineSet
EndChar

StartChar: copyright
Encoding: 169 169 143
Width: 1494
Flags: HW
HStem: -105 54<562.005 931.384> 103 80<716.726 958.849> 686 214<868.743 972.117> 966 63<719.967 933.911> 1173 54<563.248 929.479>
VStem: 81 71<344.501 777.016> 387 223<315.112 781.217> 1343 70<347.35 774.626>
LayerCount: 2
Fore
SplineSet
1105 296 m 1,0,1
 995 103 995 103 799 103 c 0,2,3
 488 103 488 103 411 372 c 0,4,5
 387 457 387 457 387 535 c 128,-1,6
 387 613 387 613 397.5 668 c 128,-1,7
 408 723 408 723 429 775 c 128,-1,8
 450 827 450 827 482.5 873.5 c 128,-1,9
 515 920 515 920 560 954 c 0,10,11
 656 1029 656 1029 788 1029 c 0,12,13
 911 1029 911 1029 991 960 c 0,14,15
 1069 894 1069 894 1069 800 c 0,16,17
 1069 725 1069 725 1006 696 c 0,18,19
 985 686 985 686 947 686 c 128,-1,20
 909 686 909 686 880 717 c 128,-1,21
 851 748 851 748 851 783 c 128,-1,22
 851 818 851 818 859.5 839 c 128,-1,23
 868 860 868 860 884 875 c 0,24,25
 911 900 911 900 949 900 c 0,26,27
 960 900 960 900 973 898 c 1,28,-1
 973 903 l 1,29,30
 926 966 926 966 822 966 c 0,31,32
 610 966 610 966 610 574.5 c 128,-1,33
 610 183 610 183 837 183 c 0,34,35
 930 183 930 183 1010 253 c 0,36,37
 1041 280 1041 280 1068 321 c 1,38,-1
 1105 296 l 1,0,1
131 302 m 128,-1,40
 81 423 81 423 81 560.5 c 128,-1,41
 81 698 81 698 131 819.5 c 128,-1,42
 181 941 181 941 270 1032 c 0,43,44
 462 1227 462 1227 746 1227 c 256,45,46
 1030 1227 1030 1227 1224 1032 c 0,47,48
 1413 840 1413 840 1413 560 c 0,49,50
 1413 284 1413 284 1224 90 c 0,51,52
 1104 -32 1104 -32 928 -81 c 0,53,54
 842 -105 842 -105 722 -105 c 128,-1,55
 602 -105 602 -105 480.5 -52.5 c 128,-1,56
 359 0 359 0 270 90.5 c 128,-1,39
 181 181 181 181 131 302 c 128,-1,40
152 560 m 256,57,58
 152 305 152 305 318 128 c 0,59,60
 486 -51 486 -51 746 -51 c 0,61,62
 1008 -51 1008 -51 1176 128 c 0,63,64
 1343 306 1343 306 1343 560 c 256,65,66
 1343 817 1343 817 1176 993 c 0,67,68
 1006 1173 1006 1173 746 1173 c 0,69,70
 488 1173 488 1173 318 993 c 0,71,72
 152 818 152 818 152 560 c 256,57,58
EndSplineSet
EndChar

StartChar: registered
Encoding: 174 174 144
Width: 1016
Flags: HW
HStem: 558 49<365.99 650.443> 747 29<292 338 453 502 747.798 772> 1001 27<453 505.729> 1001 27<453 505.729> 1257 31<292 338 453.532 551.156> 1386 51<363.814 652.386>
VStem: 69 70<821.781 1172.21> 338 115<781 1001 1028 1254> 591 114<1060.19 1244.38> 879 69<822.022 1172.22>
LayerCount: 2
Fore
SplineSet
69 997 m 256,0,1
 69 1180 69 1180 194 1308 c 0,2,3
 319 1437 319 1437 508 1437 c 256,4,5
 696 1437 696 1437 823 1308 c 0,6,7
 948 1181 948 1181 948 997 c 256,8,9
 948 813 948 813 823 686 c 0,10,11
 696 558 696 558 508 558 c 256,12,13
 320 558 320 558 194 686 c 0,14,15
 69 813 69 813 69 997 c 256,0,1
139 997 m 256,16,17
 139 832 139 832 234 724 c 0,18,19
 336 607 336 607 508 607 c 0,20,21
 681 607 681 607 783 724 c 0,22,23
 879 833 879 833 879 997 c 256,24,25
 879 1162 879 1162 783 1270 c 0,26,27
 680 1386 680 1386 508 1386 c 0,28,29
 337 1386 337 1386 234 1270 c 0,30,31
 139 1163 139 1163 139 997 c 256,16,17
705 1154 m 0,32,33
 705 1036 705 1036 540 1012 c 1,34,-1
 540 1010 l 1,35,36
 585 1005 585 1005 619.5 982.5 c 128,-1,37
 654 960 654 960 666 936 c 128,-1,38
 678 912 678 912 684 899 c 2,39,-1
 724 818 l 1,40,41
 738 792 738 792 747.5 784.5 c 128,-1,42
 757 777 757 777 772 777 c 1,43,-1
 772 747 l 1,44,-1
 708 747 l 2,45,46
 659 747 659 747 638 764 c 0,47,48
 605 790 605 790 583.5 843.5 c 128,-1,49
 562 897 562 897 551 920.5 c 128,-1,50
 540 944 540 944 528 962 c 0,51,52
 502 1001 502 1001 477 1001 c 2,53,-1
 453 1001 l 1,54,-1
 453 781 l 1,55,-1
 502 776 l 1,56,-1
 502 747 l 1,57,-1
 292 747 l 1,58,-1
 292 776 l 1,59,-1
 338 781 l 1,60,-1
 338 1254 l 1,61,-1
 292 1258 l 1,62,-1
 292 1288 l 1,63,-1
 499 1288 l 2,64,65
 640 1288 640 1288 688 1216 c 0,66,67
 705 1191 705 1191 705 1154 c 0,32,33
489 1257 m 0,68,69
 470 1257 470 1257 453 1254 c 1,70,-1
 453 1028 l 1,71,-1
 468 1028 l 2,72,73
 538 1028 538 1028 564.5 1062 c 128,-1,74
 591 1096 591 1096 591 1153 c 0,75,76
 591 1257 591 1257 489 1257 c 0,68,69
EndSplineSet
EndChar

StartChar: guillemotleft
Encoding: 171 171 145
Width: 901
Flags: W
LayerCount: 2
Fore
SplineSet
80 516 m 1,0,-1
 437 839 l 1,1,-1
 473 802 l 1,2,-1
 251 498 l 1,3,-1
 251 497 l 1,4,-1
 473 193 l 1,5,-1
 437 156 l 1,6,-1
 80 479 l 1,7,-1
 80 516 l 1,0,-1
420 516 m 1,8,-1
 777 869 l 1,9,-1
 813 832 l 1,10,-1
 591 498 l 1,11,-1
 591 497 l 1,12,-1
 813 163 l 1,13,-1
 777 126 l 1,14,-1
 420 479 l 1,15,-1
 420 516 l 1,8,-1
EndSplineSet
EndChar

StartChar: guillemotright
Encoding: 187 187 146
Width: 901
Flags: W
LayerCount: 2
Fore
SplineSet
820 479 m 1,0,-1
 463 156 l 1,1,-1
 427 193 l 1,2,-1
 649 497 l 1,3,-1
 649 498 l 1,4,-1
 427 802 l 1,5,-1
 463 839 l 1,6,-1
 820 516 l 1,7,-1
 820 479 l 1,0,-1
480 479 m 1,8,-1
 123 126 l 1,9,-1
 87 163 l 1,10,-1
 309 497 l 1,11,-1
 309 498 l 1,12,-1
 87 832 l 1,13,-1
 123 869 l 1,14,-1
 480 516 l 1,15,-1
 480 479 l 1,8,-1
EndSplineSet
EndChar

StartChar: questiondown
Encoding: 191 191 147
Width: 847
Flags: HW
HStem: -135 58<367.487 605.732> 57 249<604.096 709.887> 1116 246<340.552 517.417>
VStem: 34 229<33.7671 362.129> 306 247<1151.58 1327.96> 426 64<750.322 919.842>
LayerCount: 2
Fore
SplineSet
696 57 m 2,0,1
 568 57 568 57 568 179 c 0,2,3
 568 233 568 233 603 269.5 c 128,-1,4
 638 306 638 306 683.5 306 c 128,-1,5
 729 306 729 306 753.5 294.5 c 128,-1,6
 778 283 778 283 794 264 c 0,7,8
 829 226 829 226 829 174 c 128,-1,9
 829 122 829 122 807 68.5 c 128,-1,10
 785 15 785 15 736 -30 c 0,11,12
 623 -135 623 -135 417 -135 c 0,13,14
 234 -135 234 -135 130 -32 c 0,15,16
 34 62 34 62 34 204 c 0,17,18
 34 366 34 366 230 556 c 0,19,20
 350 673 350 673 388 738.5 c 128,-1,21
 426 804 426 804 426 847.5 c 128,-1,22
 426 891 426 891 416 921 c 1,23,-1
 470 921 l 1,24,25
 490 877 490 877 490 829.5 c 128,-1,26
 490 782 490 782 473 735.5 c 128,-1,27
 456 689 456 689 431 640.5 c 128,-1,28
 406 592 406 592 376.5 541 c 128,-1,29
 347 490 347 490 322 435 c 0,30,31
 263 305 263 305 263 179.5 c 128,-1,32
 263 54 263 54 322 -11.5 c 128,-1,33
 381 -77 381 -77 485 -77 c 0,34,35
 568 -77 568 -77 638 -30 c 0,36,37
 698 9 698 9 710 51 c 1,38,-1
 710 57 l 1,39,-1
 696 57 l 2,0,1
518.5 1329 m 128,-1,41
 553 1296 553 1296 553 1240.5 c 128,-1,42
 553 1185 553 1185 518.5 1150.5 c 128,-1,43
 484 1116 484 1116 428.5 1116 c 128,-1,44
 373 1116 373 1116 339.5 1150.5 c 128,-1,45
 306 1185 306 1185 306 1240.5 c 128,-1,46
 306 1296 306 1296 339.5 1329 c 128,-1,47
 373 1362 373 1362 428.5 1362 c 128,-1,40
 484 1362 484 1362 518.5 1329 c 128,-1,41
EndSplineSet
EndChar

StartChar: exclamdown
Encoding: 161 161 148
Width: 538
Flags: HW
HStem: 1047 275<171.224 368.838>
VStem: 124 291<-105.527 305.688 1086.71 1283.84> 246 46<655.019 936>
LayerCount: 2
Fore
SplineSet
292 936 m 1,0,1
 299 692 299 692 358 371 c 1,2,3
 398 162 l 2,4,5
 415 71 415 71 415 24 c 128,-1,6
 415 -23 415 -23 405 -53 c 128,-1,7
 395 -83 395 -83 376 -107 c 0,8,9
 334 -160 334 -160 265 -160 c 256,10,11
 197 -160 197 -160 158 -107 c 0,12,13
 124 -60 124 -60 124 5.5 c 128,-1,14
 124 71 124 71 141 162 c 2,15,-1
 180 371 l 2,16,17
 239 692 239 692 246 936 c 1,18,-1
 292 936 l 1,0,1
370 1285 m 128,-1,20
 407 1248 407 1248 407 1186 c 128,-1,21
 407 1124 407 1124 370 1085.5 c 128,-1,22
 333 1047 333 1047 271 1047 c 128,-1,23
 209 1047 209 1047 170 1085.5 c 128,-1,24
 131 1124 131 1124 131 1186 c 128,-1,25
 131 1248 131 1248 170 1285 c 128,-1,26
 209 1322 209 1322 271 1322 c 128,-1,19
 333 1322 333 1322 370 1285 c 128,-1,20
EndSplineSet
EndChar

StartChar: cent
Encoding: 162 162 149
Width: 982
Flags: HW
HStem: -29 68<590 721.323> 641 245<662.749 777.648> 984 49<590 705.614>
VStem: 100 256<222.398 730.779> 508 82<-195 -25.6719 60 959 1033 1162>
LayerCount: 2
Fore
SplineSet
911 193 m 1,0,1
 797 -15 797 -15 590 -29 c 1,2,-1
 590 -195 l 1,3,-1
 508 -195 l 1,4,-1
 508 -28 l 1,5,6
 100 2 100 2 100 496 c 0,7,8
 100 685 100 685 198 834 c 0,9,10
 311 1006 311 1006 508 1030 c 1,11,-1
 508 1162 l 1,12,-1
 590 1162 l 1,13,-1
 590 1033 l 1,14,15
 720 1027 720 1027 806 949 c 0,16,17
 889 873 889 873 889 770 c 0,18,19
 889 717 889 717 864 690 c 0,20,21
 821 641 821 641 763.5 641 c 128,-1,22
 706 641 706 641 671.5 676 c 128,-1,23
 637 711 637 711 637 749.5 c 128,-1,24
 637 788 637 788 645.5 810.5 c 128,-1,25
 654 833 654 833 669 850 c 0,26,27
 702 886 702 886 753 886 c 0,28,29
 764 886 764 886 778 884 c 1,30,-1
 778 889 l 1,31,32
 721 984 721 984 604 984 c 0,33,34
 594 984 594 984 590 983 c 1,35,-1
 590 39 l 1,36,-1
 602 39 l 2,37,38
 674 39 674 39 719 62 c 0,39,40
 807 107 807 107 872 216 c 1,41,-1
 911 193 l 1,0,1
508 959 m 1,42,43
 356 870 356 870 356 500 c 0,44,45
 356 138 356 138 508 60 c 1,46,-1
 508 959 l 1,42,43
EndSplineSet
EndChar

StartChar: Euro
Encoding: 8364 8364 150
Width: 1331
Flags: HW
HStem: -35 73<695.642 1003.81> 548 110<66 176 453 870> 828 110<66 185 461 948> 1398 64<700.823 987.392>
VStem: 176 266<388.688 548 658 828> 205 256<938 1075.04>
LayerCount: 2
Fore
SplineSet
1295 317 m 1,0,1
 1151 -35 1151 -35 810 -35 c 0,2,3
 515 -35 515 -35 356 130 c 0,4,5
 211 280 211 280 183 548 c 1,6,-1
 32 548 l 1,7,-1
 66 658 l 1,8,-1
 176 658 l 1,9,-1
 176 688 l 2,10,11
 176 757 176 757 185 828 c 1,12,-1
 32 828 l 1,13,-1
 66 938 l 1,14,-1
 205 938 l 1,15,16
 292 1300 292 1300 574 1419 c 0,17,18
 675 1462 675 1462 779 1462 c 128,-1,19
 883 1462 883 1462 950 1443 c 128,-1,20
 1017 1424 1017 1424 1074 1386 c 0,21,22
 1191 1309 1191 1309 1244 1159 c 1,23,-1
 1194 1140 l 1,24,25
 1106 1343 1106 1343 941 1384 c 0,26,27
 888 1398 888 1398 822 1398 c 128,-1,28
 756 1398 756 1398 696.5 1364 c 128,-1,29
 637 1330 637 1330 590 1269 c 0,30,31
 498 1148 498 1148 461 938 c 1,32,-1
 982 938 l 1,33,-1
 948 828 l 1,34,-1
 446 828 l 1,35,36
 442 774 442 774 442 738 c 2,37,-1
 442 688 l 2,38,39
 442 673 442 673 443 658 c 1,40,-1
 904 658 l 1,41,-1
 870 548 l 1,42,-1
 453 548 l 1,43,44
 499 201 499 201 683 81 c 0,45,46
 749 38 749 38 831 38 c 128,-1,47
 913 38 913 38 976.5 62.5 c 128,-1,48
 1040 87 1040 87 1092 128 c 0,49,50
 1187 204 1187 204 1248 339 c 1,51,-1
 1295 317 l 1,0,1
EndSplineSet
EndChar

StartChar: yen
Encoding: 165 165 151
Width: 1206
Flags: HW
HStem: 0 45<368 522 778 932> 380 108<244 522 778 1056> 630 108<244 467 794 1056> 1382 45<-34 101 398 553 881 1022 1090 1214>
VStem: 522 256<55 380 488 630>
LayerCount: 2
Fore
SplineSet
467 738 m 1,0,-1
 101 1372 l 1,1,-1
 -34 1382 l 1,2,-1
 -34 1427 l 1,3,-1
 553 1427 l 1,4,-1
 553 1382 l 1,5,-1
 398 1372 l 1,6,-1
 735 765 l 1,7,-1
 740 765 l 1,8,-1
 1022 1372 l 1,9,-1
 881 1382 l 1,10,-1
 881 1427 l 1,11,-1
 1214 1427 l 1,12,-1
 1214 1382 l 1,13,-1
 1090 1372 l 1,14,-1
 794 738 l 1,15,-1
 1056 738 l 1,16,-1
 1056 630 l 1,17,-1
 778 630 l 1,18,-1
 778 488 l 1,19,-1
 1056 488 l 1,20,-1
 1056 380 l 1,21,-1
 778 380 l 1,22,-1
 778 55 l 1,23,-1
 932 45 l 1,24,-1
 932 0 l 1,25,-1
 368 0 l 1,26,-1
 368 45 l 1,27,-1
 522 55 l 1,28,-1
 522 380 l 1,29,-1
 244 380 l 1,30,-1
 244 488 l 1,31,-1
 522 488 l 1,32,-1
 522 630 l 1,33,-1
 244 630 l 1,34,-1
 244 738 l 1,35,-1
 467 738 l 1,0,-1
EndSplineSet
EndChar

StartChar: sterling
Encoding: 163 163 152
Width: 1117
Flags: HW
HStem: -30 137<698.635 979.417> 179 191<887.331 1025.55> 706 53<31 218 464 809> 1405 43<594.37 788.735>
VStem: 218 246<204.304 706 759 1169.99> 1034 49<135.148 251.687>
LayerCount: 2
Fore
SplineSet
676 1405 m 0,0,1
 464 1405 464 1405 464 957 c 2,2,-1
 464 759 l 1,3,-1
 809 759 l 1,4,-1
 809 719 l 1,5,-1
 464 706 l 1,6,-1
 464 212 l 1,7,8
 511 206 511 206 569 189 c 2,9,-1
 689 154 l 2,10,11
 851 107 851 107 905.5 107 c 128,-1,12
 960 107 960 107 979.5 115 c 128,-1,13
 999 123 999 123 1011 136 c 0,14,15
 1034 159 1034 159 1034 183 c 128,-1,16
 1034 207 1034 207 1029 227 c 1,17,-1
 1026 225 l 1,18,19
 1012 179 1012 179 960 179 c 128,-1,20
 908 179 908 179 884 205 c 128,-1,21
 860 231 860 231 860 273 c 256,22,23
 860 315 860 315 886.5 342.5 c 128,-1,24
 913 370 913 370 949.5 370 c 128,-1,25
 986 370 986 370 1009.5 357 c 128,-1,26
 1033 344 1033 344 1050 322 c 0,27,28
 1083 277 1083 277 1083 225.5 c 128,-1,29
 1083 174 1083 174 1068 131.5 c 128,-1,30
 1053 89 1053 89 1022 53 c 0,31,32
 949 -30 949 -30 821 -30 c 0,33,34
 694 -30 694 -30 584 8 c 0,35,36
 370 84 370 84 277 84 c 0,37,38
 181 84 181 84 99 -30 c 1,39,-1
 52 7 l 1,40,41
 127 117 127 117 218 154 c 1,42,-1
 218 706 l 1,43,-1
 31 719 l 1,44,-1
 31 759 l 1,45,-1
 218 759 l 1,46,-1
 218 871 l 2,47,48
 218 1305 218 1305 474 1414 c 0,49,50
 555 1448 555 1448 645.5 1448 c 128,-1,51
 736 1448 736 1448 794.5 1431 c 128,-1,52
 853 1414 853 1414 893 1386 c 0,53,54
 973 1328 973 1328 973 1240 c 0,55,56
 973 1160 973 1160 908 1130 c 0,57,58
 887 1120 887 1120 845.5 1120 c 128,-1,59
 804 1120 804 1120 774 1147.5 c 128,-1,60
 744 1175 744 1175 744 1226 c 0,61,62
 744 1322 744 1322 838 1344 c 1,63,-1
 838 1348 l 1,64,65
 786 1405 786 1405 676 1405 c 0,0,1
EndSplineSet
EndChar

StartChar: paragraph
Encoding: 182 182 153
Width: 1135
Flags: HW
HStem: 0 55<465 619 718 836 935 1089> 569 55<444.992 619> 1366 61<435.909 617.751> 1382 45<935 1089>
VStem: 34 266<790.819 1203.52> 619 99<55 569 624 1365.23> 836 99<55 1372>
LayerCount: 2
Fore
SplineSet
718 55 m 1,0,-1
 836 55 l 1,1,-1
 836 1427 l 1,2,-1
 1089 1427 l 1,3,-1
 1089 1382 l 1,4,-1
 935 1372 l 1,5,-1
 935 55 l 1,6,-1
 1089 45 l 1,7,-1
 1089 0 l 1,8,-1
 465 0 l 1,9,-1
 465 45 l 1,10,-1
 619 55 l 1,11,-1
 619 569 l 1,12,-1
 594 569 l 2,13,14
 323 569 323 569 187 664 c 0,15,16
 34 771 34 771 34 1005 c 0,17,18
 34 1210 34 1210 179 1324 c 0,19,20
 311 1427 311 1427 526 1427 c 2,21,-1
 718 1427 l 1,22,-1
 718 55 l 1,0,-1
619 1362 m 1,23,24
 579 1366 579 1366 541.5 1366 c 128,-1,25
 504 1366 504 1366 458.5 1348.5 c 128,-1,26
 413 1331 413 1331 378 1290 c 0,27,28
 300 1200 300 1200 300 1014 c 0,29,30
 300 799 300 799 370 708 c 0,31,32
 436 624 436 624 588 624 c 2,33,-1
 619 624 l 1,34,-1
 619 1362 l 1,23,24
EndSplineSet
EndChar

StartChar: currency
Encoding: 164 164 154
Width: 1166
Flags: HW
HStem: 276 80<422.301 743.204> 1044 80<423.095 742.409>
VStem: 159 100<517.915 882.726> 907 100<517.915 882.521>
LayerCount: 2
Fore
SplineSet
254 429 m 1,0,1
 159 545 159 545 159 700 c 256,2,3
 159 856 159 856 255 973 c 1,4,-1
 100 1128 l 1,5,-1
 156 1184 l 1,6,-1
 311 1029 l 1,7,8
 425 1124 425 1124 583 1124 c 256,9,10
 739 1124 739 1124 855 1029 c 1,11,-1
 1010 1184 l 1,12,-1
 1066 1128 l 1,13,-1
 910 972 l 1,14,15
 1007 856 1007 856 1007 700 c 256,16,17
 1007 545 1007 545 912 429 c 1,18,-1
 1066 276 l 1,19,-1
 1010 220 l 1,20,-1
 857 373 l 1,21,22
 741 276 741 276 583 276 c 256,23,24
 423 276 423 276 309 373 c 1,25,-1
 156 220 l 1,26,-1
 100 276 l 1,27,-1
 254 429 l 1,0,1
259 700 m 256,28,29
 259 554 259 554 347 456 c 0,30,31
 438 356 438 356 583 356 c 256,32,33
 728 356 728 356 819 456 c 0,34,35
 907 554 907 554 907 700 c 256,36,37
 907 846 907 846 819 944 c 0,38,39
 728 1044 728 1044 583 1044 c 256,40,41
 438 1044 438 1044 347 944 c 0,42,43
 259 846 259 846 259 700 c 256,28,29
EndSplineSet
EndChar

StartChar: onesuperior
Encoding: 185 185 155
Width: 571
Flags: HW
HStem: 710 41<103 206 391 494> 1377 41<83 206>
VStem: 206 185<761 1377>
LayerCount: 2
Fore
SplineSet
391 761 m 1,0,-1
 494 751 l 1,1,-1
 494 710 l 1,2,-1
 103 710 l 1,3,-1
 103 751 l 1,4,-1
 206 761 l 1,5,-1
 206 1377 l 1,6,-1
 83 1377 l 1,7,-1
 83 1418 l 1,8,-1
 282 1440 l 1,9,-1
 373 1477 l 1,10,-1
 391 1448 l 1,11,-1
 391 761 l 1,0,-1
EndSplineSet
EndChar

StartChar: twosuperior
Encoding: 178 178 156
Width: 716
Flags: HW
HStem: 710 133<206 537.265> 1179 173<172.313 253.761> 1424 38<230.957 362.2>
VStem: 406 179<1124.3 1388.62> 582 23<896.84 941>
LayerCount: 2
Fore
SplineSet
195 1352 m 0,0,1
 278 1352 278 1352 278 1267 c 256,2,3
 278 1229 278 1229 254.5 1204 c 128,-1,4
 231 1179 231 1179 189.5 1179 c 128,-1,5
 148 1179 148 1179 125.5 1206.5 c 128,-1,6
 103 1234 103 1234 103 1271.5 c 128,-1,7
 103 1309 103 1309 117 1341.5 c 128,-1,8
 131 1374 131 1374 160 1400 c 0,9,10
 229 1462 229 1462 340 1462 c 0,11,12
 464 1462 464 1462 528 1402 c 0,13,14
 585 1349 585 1349 585 1279.5 c 128,-1,15
 585 1210 585 1210 559 1156.5 c 128,-1,16
 533 1103 533 1103 484 1050 c 0,17,18
 394 954 394 954 206 845 c 1,19,-1
 206 843 l 1,20,-1
 424 847 l 2,21,22
 515 849 515 849 538 862 c 0,23,24
 576 882 576 882 582 941 c 1,25,-1
 605 941 l 1,26,-1
 600 710 l 1,27,-1
 120 710 l 1,28,-1
 120 824 l 1,29,30
 367 970 367 970 396 1154 c 0,31,32
 406 1214 406 1214 406 1283 c 0,33,34
 406 1424 406 1424 298 1424 c 0,35,36
 223 1424 223 1424 186 1376 c 0,37,38
 176 1363 176 1363 172 1350 c 1,39,-1
 172 1348 l 1,40,41
 182 1352 182 1352 195 1352 c 0,0,1
EndSplineSet
EndChar

StartChar: threesuperior
Encoding: 179 179 157
Width: 689
Flags: HW
HStem: 697 36<207.41 360.956> 787 173<167.312 243.34> 1085 31<246 347.469> 1189 163<170.312 243.341> 1425 37<223.762 364.06>
VStem: 412 156<1176.13 1395.56> 434 170<773.058 1026.8>
LayerCount: 2
Fore
SplineSet
167 785 m 1,0,1
 199 733 199 733 277 733 c 0,2,3
 434 733 434 733 434 890 c 0,4,5
 434 985 434 985 399 1035 c 128,-1,6
 364 1085 364 1085 276 1085 c 2,7,-1
 246 1085 l 1,8,-1
 246 1116 l 1,9,-1
 275 1116 l 2,10,11
 390 1116 390 1116 407 1218 c 0,12,13
 412 1248 412 1248 412 1304.5 c 128,-1,14
 412 1361 412 1361 380.5 1393 c 128,-1,15
 349 1425 349 1425 311 1425 c 128,-1,16
 273 1425 273 1425 250.5 1418 c 128,-1,17
 228 1411 228 1411 212 1400 c 0,18,19
 179 1380 179 1380 170 1353 c 1,20,-1
 170 1351 l 1,21,22
 180 1352 180 1352 189 1352 c 0,23,24
 223 1352 223 1352 244 1334 c 0,25,26
 269 1310 269 1310 269 1272 c 128,-1,27
 269 1234 269 1234 247.5 1211.5 c 128,-1,28
 226 1189 226 1189 186.5 1189 c 128,-1,29
 147 1189 147 1189 124 1215 c 128,-1,30
 101 1241 101 1241 101 1278 c 128,-1,31
 101 1315 101 1315 115 1346 c 128,-1,32
 129 1377 129 1377 157 1402 c 0,33,34
 222 1462 222 1462 328 1462 c 0,35,36
 498 1462 498 1462 550 1363 c 0,37,38
 568 1330 568 1330 568 1274 c 128,-1,39
 568 1218 568 1218 518 1170.5 c 128,-1,40
 468 1123 468 1123 366 1104 c 1,41,-1
 366 1102 l 1,42,43
 528 1091 528 1091 584 993 c 0,44,45
 604 957 604 957 604 904 c 256,46,47
 604 697 604 697 325 697 c 0,48,49
 163 697 163 697 110 794 c 0,50,51
 95 822 95 822 95 862.5 c 128,-1,52
 95 903 95 903 117.5 931.5 c 128,-1,53
 140 960 140 960 181.5 960 c 128,-1,54
 223 960 223 960 246.5 935 c 128,-1,55
 270 910 270 910 270 871 c 128,-1,56
 270 832 270 832 244 807 c 0,57,58
 223 787 223 787 186 787 c 0,59,60
 177 787 177 787 167 788 c 1,61,-1
 167 785 l 1,0,1
EndSplineSet
EndChar

StartChar: foursuperior
Encoding: 8308 8308 158
Width: 708
Flags: HW
HStem: 710 41<225 328 513 616> 861 48<94 328 513 617> 1444 20G<412.173 513>
VStem: 328 185<761 861 914 1236>
LayerCount: 2
Fore
SplineSet
43 910 m 1,0,-1
 426 1464 l 1,1,-1
 513 1464 l 1,2,-1
 513 914 l 1,3,-1
 617 915 l 1,4,-1
 617 861 l 1,5,-1
 513 861 l 1,6,-1
 513 761 l 1,7,-1
 616 751 l 1,8,-1
 616 710 l 1,9,-1
 225 710 l 1,10,-1
 225 751 l 1,11,-1
 328 761 l 1,12,-1
 328 861 l 1,13,-1
 43 861 l 1,14,-1
 43 910 l 1,0,-1
326 1236 m 1,15,-1
 94 911 l 1,16,-1
 94 909 l 1,17,-1
 328 910 l 1,18,-1
 328 1236 l 1,19,-1
 326 1236 l 1,15,-1
EndSplineSet
EndChar

StartChar: fraction
Encoding: 8260 8260 159
Width: 751
Flags: HW
HStem: 0 21G<-44 29.6566> 1442 20G<724.343 798>
LayerCount: 2
Fore
SplineSet
-44 0 m 1,0,-1
 735 1462 l 1,1,-1
 798 1462 l 1,2,-1
 19 0 l 1,3,-1
 -44 0 l 1,0,-1
EndSplineSet
EndChar

StartChar: onequarter
Encoding: 188 188 160
Width: 1197
Flags: HW
HStem: 10 41<764 867 1052 1155> 161 48<633 867 1052 1156> 710 41<57 160 345 448> 1377 41<37 160> 1442 20G<973.343 1047>
VStem: 160 185<761 1377> 867 185<61 161 214 536>
LayerCount: 2
Fore
SplineSet
345 761 m 1,0,-1
 448 751 l 1,1,-1
 448 710 l 1,2,-1
 57 710 l 1,3,-1
 57 751 l 1,4,-1
 160 761 l 1,5,-1
 160 1377 l 1,6,-1
 37 1377 l 1,7,-1
 37 1418 l 1,8,-1
 236 1440 l 1,9,-1
 327 1477 l 1,10,-1
 345 1448 l 1,11,-1
 345 761 l 1,0,-1
205 0 m 1,12,-1
 984 1462 l 1,13,-1
 1047 1462 l 1,14,-1
 268 0 l 1,15,-1
 205 0 l 1,12,-1
582 210 m 1,16,-1
 965 764 l 1,17,-1
 1052 764 l 1,18,-1
 1052 214 l 1,19,-1
 1156 215 l 1,20,-1
 1156 161 l 1,21,-1
 1052 161 l 1,22,-1
 1052 61 l 1,23,-1
 1155 51 l 1,24,-1
 1155 10 l 1,25,-1
 764 10 l 1,26,-1
 764 51 l 1,27,-1
 867 61 l 1,28,-1
 867 161 l 1,29,-1
 582 161 l 1,30,-1
 582 210 l 1,16,-1
865 536 m 1,31,-1
 633 211 l 1,32,-1
 633 209 l 1,33,-1
 867 210 l 1,34,-1
 867 536 l 1,35,-1
 865 536 l 1,31,-1
EndSplineSet
EndChar

StartChar: onehalf
Encoding: 189 189 161
Width: 1277
Flags: HW
HStem: 0 133<825 1156.26> 469 173<791.313 872.761> 714 38<57 160 345 448 850.107 981.204> 1377 41<37 160> 1442 20G<973.343 1047>
VStem: 160 185<761 1377> 1025 179<414.297 679.479> 1201 23<186.84 231>
LayerCount: 2
Fore
SplineSet
814 642 m 0,0,1
 897 642 897 642 897 557 c 256,2,3
 897 519 897 519 873.5 494 c 128,-1,4
 850 469 850 469 808.5 469 c 128,-1,5
 767 469 767 469 744.5 496.5 c 128,-1,6
 722 524 722 524 722 561.5 c 128,-1,7
 722 599 722 599 736 631.5 c 128,-1,8
 750 664 750 664 780 690 c 0,9,10
 848 752 848 752 959 752 c 0,11,12
 1083 752 1083 752 1148 692 c 0,13,14
 1204 639 1204 639 1204 569.5 c 128,-1,15
 1204 500 1204 500 1178 446.5 c 128,-1,16
 1152 393 1152 393 1103 340 c 0,17,18
 1013 244 1013 244 825 135 c 1,19,-1
 825 133 l 1,20,-1
 1043 137 l 2,21,22
 1134 139 1134 139 1157 152 c 0,23,24
 1195 172 1195 172 1201 231 c 1,25,-1
 1224 231 l 1,26,-1
 1219 0 l 1,27,-1
 739 0 l 1,28,-1
 739 114 l 1,29,30
 986 260 986 260 1016 444 c 0,31,32
 1025 504 1025 504 1025 573 c 0,33,34
 1025 714 1025 714 917 714 c 0,35,36
 842 714 842 714 805 666 c 0,37,38
 795 653 795 653 791 640 c 1,39,-1
 791 638 l 1,40,41
 801 642 801 642 814 642 c 0,0,1
345 761 m 1,42,-1
 448 751 l 1,43,-1
 448 710 l 1,44,-1
 57 710 l 1,45,-1
 57 751 l 1,46,-1
 160 761 l 1,47,-1
 160 1377 l 1,48,-1
 37 1377 l 1,49,-1
 37 1418 l 1,50,-1
 236 1440 l 1,51,-1
 327 1477 l 1,52,-1
 345 1448 l 1,53,-1
 345 761 l 1,42,-1
205 0 m 1,54,-1
 984 1462 l 1,55,-1
 1047 1462 l 1,56,-1
 268 0 l 1,57,-1
 205 0 l 1,54,-1
EndSplineSet
EndChar

StartChar: threequarters
Encoding: 190 190 162
Width: 1273
Flags: HW
HStem: 0 41<846 949 1134 1237> 151 48<715 949 1134 1238> 697 36<163.41 316.956> 787 173<123.312 199.34> 1085 31<202 303.469> 1189 163<126.312 199.341> 1425 37<179.762 320.06>
VStem: 368 156<1176.13 1395.56> 390 170<773.058 1026.8> 949 185<51 151 204 526>
LayerCount: 2
Fore
SplineSet
123 785 m 1,0,1
 155 733 155 733 233 733 c 0,2,3
 390 733 390 733 390 890 c 0,4,5
 390 985 390 985 355 1035 c 128,-1,6
 320 1085 320 1085 232 1085 c 2,7,-1
 202 1085 l 1,8,-1
 202 1116 l 1,9,-1
 231 1116 l 2,10,11
 346 1116 346 1116 363 1218 c 0,12,13
 368 1248 368 1248 368 1304.5 c 128,-1,14
 368 1361 368 1361 336.5 1393 c 128,-1,15
 305 1425 305 1425 267 1425 c 128,-1,16
 229 1425 229 1425 206.5 1418 c 128,-1,17
 184 1411 184 1411 168 1400 c 0,18,19
 135 1380 135 1380 126 1353 c 1,20,-1
 126 1351 l 1,21,22
 136 1352 136 1352 145 1352 c 0,23,24
 179 1352 179 1352 200 1334 c 0,25,26
 225 1310 225 1310 225 1272 c 128,-1,27
 225 1234 225 1234 203.5 1211.5 c 128,-1,28
 182 1189 182 1189 142.5 1189 c 128,-1,29
 103 1189 103 1189 80 1215 c 128,-1,30
 57 1241 57 1241 57 1278 c 128,-1,31
 57 1315 57 1315 71 1346 c 128,-1,32
 85 1377 85 1377 113 1402 c 0,33,34
 178 1462 178 1462 284 1462 c 0,35,36
 454 1462 454 1462 506 1363 c 0,37,38
 524 1330 524 1330 524 1274 c 128,-1,39
 524 1218 524 1218 474 1170.5 c 128,-1,40
 424 1123 424 1123 322 1104 c 1,41,-1
 322 1102 l 1,42,43
 484 1091 484 1091 540 993 c 0,44,45
 560 957 560 957 560 904 c 256,46,47
 560 697 560 697 281 697 c 0,48,49
 119 697 119 697 66 794 c 0,50,51
 51 822 51 822 51 862.5 c 128,-1,52
 51 903 51 903 73.5 931.5 c 128,-1,53
 96 960 96 960 137.5 960 c 128,-1,54
 179 960 179 960 202.5 935 c 128,-1,55
 226 910 226 910 226 871 c 128,-1,56
 226 832 226 832 200 807 c 0,57,58
 179 787 179 787 142 787 c 0,59,60
 133 787 133 787 123 788 c 1,61,-1
 123 785 l 1,0,1
257 0 m 1,62,-1
 1036 1462 l 1,63,-1
 1099 1462 l 1,64,-1
 320 0 l 1,65,-1
 257 0 l 1,62,-1
664 200 m 1,66,-1
 1047 754 l 1,67,-1
 1134 754 l 1,68,-1
 1134 204 l 1,69,-1
 1238 205 l 1,70,-1
 1238 151 l 1,71,-1
 1134 151 l 1,72,-1
 1134 51 l 1,73,-1
 1237 41 l 1,74,-1
 1237 0 l 1,75,-1
 846 0 l 1,76,-1
 846 41 l 1,77,-1
 949 51 l 1,78,-1
 949 151 l 1,79,-1
 664 151 l 1,80,-1
 664 200 l 1,66,-1
947 526 m 1,81,-1
 715 201 l 1,82,-1
 715 199 l 1,83,-1
 949 200 l 1,84,-1
 949 526 l 1,85,-1
 947 526 l 1,81,-1
EndSplineSet
EndChar

StartChar: quoteleft
Encoding: 8216 8216 163
Width: 421
Flags: HW
HStem: 1427 20G<236.5 300.882>
VStem: 84 79<1175 1274.23>
LayerCount: 2
Fore
SplineSet
167 1175 m 1,0,1
 192 1193 192 1193 220 1193 c 128,-1,2
 248 1193 248 1193 269 1183 c 128,-1,3
 290 1173 290 1173 305 1154 c 0,4,5
 338 1114 338 1114 338 1074 c 128,-1,6
 338 1034 338 1034 331.5 1010 c 128,-1,7
 325 986 325 986 310 966 c 0,8,9
 277 918 277 918 229 918 c 128,-1,10
 181 918 181 918 156.5 933.5 c 128,-1,11
 132 949 132 949 116 974 c 0,12,13
 84 1023 84 1023 84 1081.5 c 128,-1,14
 84 1140 84 1140 93.5 1187 c 128,-1,15
 103 1234 103 1234 126 1280 c 0,16,17
 178 1382 178 1382 295 1447 c 1,18,-1
 310 1396 l 1,19,20
 194 1336 194 1336 170 1225 c 0,21,22
 163 1196 163 1196 163 1175 c 1,23,-1
 167 1175 l 1,0,1
EndSplineSet
EndChar

StartChar: quoteright
Encoding: 8217 8217 164
Width: 417
Flags: HW
VStem: 267 79<1090.77 1190>
LayerCount: 2
Fore
SplineSet
263 1190 m 1,0,1
 238 1172 238 1172 210 1172 c 128,-1,2
 182 1172 182 1172 161 1182 c 128,-1,3
 140 1192 140 1192 125 1210 c 0,4,5
 92 1251 92 1251 92 1291 c 128,-1,6
 92 1331 92 1331 98.5 1355 c 128,-1,7
 105 1379 105 1379 120 1400 c 0,8,9
 153 1447 153 1447 214 1447 c 256,10,11
 278 1447 278 1447 314 1390 c 0,12,13
 346 1342 346 1342 346 1283.5 c 128,-1,14
 346 1225 346 1225 336.5 1178 c 128,-1,15
 327 1131 327 1131 304 1084 c 0,16,17
 251 981 251 981 135 918 c 1,18,-1
 120 969 l 1,19,20
 236 1029 236 1029 260 1140 c 0,21,22
 267 1169 267 1169 267 1190 c 1,23,-1
 263 1190 l 1,0,1
EndSplineSet
EndChar

StartChar: degree
Encoding: 176 176 165
Width: 788
Flags: HW
HStem: 820 86<266.907 521.264> 1376 86<267.157 521.014>
VStem: 73 108<991.93 1289.79> 608 107<994.45 1288.84>
LayerCount: 2
Fore
SplineSet
73 1140 m 0,0,1
 73 1207 73 1207 97 1265.5 c 128,-1,2
 121 1324 121 1324 164 1368 c 0,3,4
 257 1462 257 1462 394 1462 c 256,5,6
 531 1462 531 1462 624 1368 c 0,7,8
 715 1275 715 1275 715 1140 c 0,9,10
 715 1006 715 1006 624 914 c 0,11,12
 532 820 532 820 394 820 c 256,13,14
 256 820 256 820 164 914 c 0,15,16
 73 1006 73 1006 73 1140 c 0,0,1
181 1140 m 0,17,18
 181 1093 181 1093 195.5 1050.5 c 128,-1,19
 210 1008 210 1008 238 976 c 0,20,21
 299 906 299 906 394 906 c 0,22,23
 490 906 490 906 550 976 c 0,24,25
 608 1043 608 1043 608 1140 c 0,26,27
 608 1239 608 1239 550 1306 c 0,28,29
 490 1376 490 1376 394 1376 c 0,30,31
 299 1376 299 1376 238 1306 c 0,32,33
 181 1241 181 1241 181 1140 c 0,17,18
EndSplineSet
EndChar

StartChar: ordfeminine
Encoding: 170 170 166
Width: 819
Flags: HW
HStem: 688 89<224.5 404.663> 709 30<663 738> 1056 49<330.017 478> 1163 170<209.219 280.248> 1408 54<248.81 435.191>
VStem: 86 176<785.921 997.214> 122 87<1331 1374.27> 478 185<750.107 827 830.493 1055.61 1102 1372.88>
LayerCount: 2
Fore
SplineSet
209 1331 m 1,0,1
 219 1333 219 1333 240.5 1333 c 128,-1,2
 262 1333 262 1333 283.5 1311 c 128,-1,3
 305 1289 305 1289 305 1252 c 128,-1,4
 305 1215 305 1215 281 1189 c 128,-1,5
 257 1163 257 1163 224.5 1163 c 128,-1,6
 192 1163 192 1163 175 1171.5 c 128,-1,7
 158 1180 158 1180 146 1194 c 0,8,9
 122 1220 122 1220 122 1263 c 128,-1,10
 122 1306 122 1306 143 1343 c 128,-1,11
 164 1380 164 1380 200 1406 c 0,12,13
 274 1462 274 1462 376 1462 c 128,-1,14
 478 1462 478 1462 533 1439.5 c 128,-1,15
 588 1417 588 1417 617 1375 c 0,16,17
 663 1308 663 1308 663 1139 c 2,18,-1
 663 747 l 1,19,-1
 738 739 l 1,20,-1
 738 709 l 1,21,-1
 500 709 l 1,22,-1
 481 827 l 1,23,-1
 479 827 l 1,24,25
 410 688 410 688 269 688 c 0,26,27
 180 688 180 688 130 744 c 0,28,29
 86 792 86 792 86 851 c 128,-1,30
 86 910 86 910 104.5 953 c 128,-1,31
 123 996 123 996 162 1030 c 0,32,33
 250 1105 250 1105 410 1105 c 0,34,35
 442 1105 442 1105 478 1102 c 1,36,-1
 478 1196 l 2,37,38
 478 1310 478 1310 464 1344 c 0,39,40
 436 1408 436 1408 341 1408 c 128,-1,41
 246 1408 246 1408 209 1334 c 1,42,-1
 209 1331 l 1,0,1
478 1052 m 1,43,44
 450 1056 450 1056 409.5 1056 c 128,-1,45
 369 1056 369 1056 336 1035.5 c 128,-1,46
 303 1015 303 1015 286 988 c 0,47,48
 262 947 262 947 262 883 c 0,49,50
 262 777 262 777 348 777 c 0,51,52
 398 777 398 777 436 834 c 0,53,54
 478 896 478 896 478 985 c 2,55,-1
 478 1052 l 1,43,44
EndSplineSet
EndChar

StartChar: ordmasculine
Encoding: 186 186 167
Width: 877
Flags: HW
HStem: 699 55<352.646 517.773> 1407 55<358.412 522.56>
VStem: 72 202<886.73 1261.73> 600 205<905.605 1278>
LayerCount: 2
Fore
SplineSet
436 754 m 0,0,1
 600 754 600 754 600 1060 c 0,2,3
 600 1218 600 1218 581 1280 c 128,-1,4
 562 1342 562 1342 530 1374.5 c 128,-1,5
 498 1407 498 1407 450.5 1407 c 128,-1,6
 403 1407 403 1407 376 1392 c 128,-1,7
 349 1377 349 1377 330.5 1352 c 128,-1,8
 312 1327 312 1327 301 1295 c 128,-1,9
 290 1263 290 1263 284 1230 c 0,10,11
 274 1175 274 1175 274 1122 c 128,-1,12
 274 1069 274 1069 275 1028.5 c 128,-1,13
 276 988 276 988 281 949 c 128,-1,14
 286 910 286 910 296 874.5 c 128,-1,15
 306 839 306 839 324 812 c 0,16,17
 363 754 363 754 436 754 c 0,0,1
72 1072 m 0,18,19
 72 1145 72 1145 96.5 1214.5 c 128,-1,20
 121 1284 121 1284 168 1339 c 0,21,22
 275 1462 275 1462 445 1462 c 0,23,24
 616 1462 616 1462 716 1344 c 0,25,26
 805 1239 805 1239 805 1092 c 0,27,28
 805 933 805 933 700 817 c 0,29,30
 595 699 595 699 444 699 c 0,31,32
 274 699 274 699 170 812 c 0,33,34
 72 918 72 918 72 1072 c 0,18,19
EndSplineSet
EndChar

StartChar: mu
Encoding: 181 181 168
AltUni2: 0003bc.ffffffff.0
Width: 1127
Flags: HW
HStem: -451 40<383.484 460> -1 90<400.809 600.04> 984 20G<147 393 735 980>
VStem: 147 246<129.942 1004> 147 176<-364.359 15> 735 245<29 173 193.176 1004>
LayerCount: 2
Fore
SplineSet
427 -1 m 0,0,1
 368 -1 368 -1 323 15 c 1,2,-1
 323 -198 l 2,3,4
 323 -372 323 -372 402 -402 c 0,5,6
 427 -411 427 -411 460 -411 c 1,7,-1
 460 -451 l 1,8,-1
 357 -451 l 2,9,10
 246 -451 246 -451 196 -373 c 0,11,12
 147 -295 147 -295 147 -119 c 2,13,-1
 147 1004 l 1,14,-1
 393 1004 l 1,15,-1
 393 302 l 2,16,17
 393 168 393 168 448 118 c 0,18,19
 480 89 480 89 522.5 89 c 128,-1,20
 565 89 565 89 598 106.5 c 128,-1,21
 631 124 631 124 658 153 c 0,22,23
 716 214 716 214 735 296 c 1,24,-1
 735 1004 l 1,25,-1
 980 1004 l 1,26,-1
 980 0 l 1,27,-1
 753 0 l 1,28,-1
 735 29 l 1,29,-1
 739 173 l 1,30,-1
 735 173 l 1,31,32
 617 -1 617 -1 427 -1 c 0,0,1
EndSplineSet
EndChar

StartChar: quotedblleft
Encoding: 8220 8220 169
Width: 752
Flags: HW
HStem: 918 257<163.855 219.126 493.855 549.126> 1427 20G<236.5 300.882 566.5 630.882>
VStem: 84 79<1175 1274.23> 414 79<1175 1274.23>
LayerCount: 2
Fore
SplineSet
497 1175 m 1,0,1
 522 1193 522 1193 550 1193 c 128,-1,2
 578 1193 578 1193 599 1183 c 128,-1,3
 620 1173 620 1173 635 1154 c 0,4,5
 668 1114 668 1114 668 1074 c 128,-1,6
 668 1034 668 1034 661.5 1010 c 128,-1,7
 655 986 655 986 640 966 c 0,8,9
 607 918 607 918 559 918 c 128,-1,10
 511 918 511 918 486.5 933.5 c 128,-1,11
 462 949 462 949 446 974 c 0,12,13
 414 1023 414 1023 414 1081.5 c 128,-1,14
 414 1140 414 1140 423.5 1187 c 128,-1,15
 433 1234 433 1234 456 1280 c 0,16,17
 508 1382 508 1382 625 1447 c 1,18,-1
 640 1396 l 1,19,20
 524 1336 524 1336 500 1225 c 0,21,22
 493 1196 493 1196 493 1175 c 1,23,-1
 497 1175 l 1,0,1
167 1175 m 1,24,25
 192 1193 192 1193 220 1193 c 128,-1,26
 248 1193 248 1193 269 1183 c 128,-1,27
 290 1173 290 1173 305 1154 c 0,28,29
 338 1114 338 1114 338 1074 c 128,-1,30
 338 1034 338 1034 331.5 1010 c 128,-1,31
 325 986 325 986 310 966 c 0,32,33
 277 918 277 918 229 918 c 128,-1,34
 181 918 181 918 156.5 933.5 c 128,-1,35
 132 949 132 949 116 974 c 0,36,37
 84 1023 84 1023 84 1081.5 c 128,-1,38
 84 1140 84 1140 93.5 1187 c 128,-1,39
 103 1234 103 1234 126 1280 c 0,40,41
 178 1382 178 1382 295 1447 c 1,42,-1
 310 1396 l 1,43,44
 194 1336 194 1336 170 1225 c 0,45,46
 163 1196 163 1196 163 1175 c 1,47,-1
 167 1175 l 1,24,25
EndSplineSet
EndChar

StartChar: quotedblright
Encoding: 8221 8221 170
Width: 747
Flags: HW
HStem: 1190 257<210.874 266.251 540.874 596.251>
VStem: 267 79<1090.77 1190> 597 79<1090.77 1190>
LayerCount: 2
Fore
SplineSet
263 1190 m 1,0,1
 238 1172 238 1172 210 1172 c 128,-1,2
 182 1172 182 1172 161 1182 c 128,-1,3
 140 1192 140 1192 125 1210 c 0,4,5
 92 1251 92 1251 92 1291 c 128,-1,6
 92 1331 92 1331 98.5 1355 c 128,-1,7
 105 1379 105 1379 120 1400 c 0,8,9
 153 1447 153 1447 214 1447 c 256,10,11
 278 1447 278 1447 314 1390 c 0,12,13
 346 1342 346 1342 346 1283.5 c 128,-1,14
 346 1225 346 1225 336.5 1178 c 128,-1,15
 327 1131 327 1131 304 1084 c 0,16,17
 251 981 251 981 135 918 c 1,18,-1
 120 969 l 1,19,20
 236 1029 236 1029 260 1140 c 0,21,22
 267 1169 267 1169 267 1190 c 1,23,-1
 263 1190 l 1,0,1
593 1190 m 1,24,25
 568 1172 568 1172 540 1172 c 128,-1,26
 512 1172 512 1172 491 1182 c 128,-1,27
 470 1192 470 1192 455 1210 c 0,28,29
 422 1251 422 1251 422 1291 c 128,-1,30
 422 1331 422 1331 428.5 1355 c 128,-1,31
 435 1379 435 1379 450 1400 c 0,32,33
 483 1447 483 1447 544 1447 c 256,34,35
 608 1447 608 1447 644 1390 c 0,36,37
 676 1342 676 1342 676 1283.5 c 128,-1,38
 676 1225 676 1225 666.5 1178 c 128,-1,39
 657 1131 657 1131 634 1084 c 0,40,41
 581 981 581 981 465 918 c 1,42,-1
 450 969 l 1,43,44
 566 1029 566 1029 590 1140 c 0,45,46
 597 1169 597 1169 597 1190 c 1,47,-1
 593 1190 l 1,24,25
EndSplineSet
EndChar

StartChar: periodcentered
Encoding: 183 183 171
Width: 484
Flags: HW
HStem: 565 275<143.709 341.322>
VStem: 104 276<603.162 800.291>
LayerCount: 2
Fore
SplineSet
142.5 602 m 128,-1,1
 104 639 104 639 104 701 c 128,-1,2
 104 763 104 763 142.5 801.5 c 128,-1,3
 181 840 181 840 243 840 c 128,-1,4
 305 840 305 840 342.5 801.5 c 128,-1,5
 380 763 380 763 380 701 c 128,-1,6
 380 639 380 639 342.5 602 c 128,-1,7
 305 565 305 565 243 565 c 128,-1,0
 181 565 181 565 142.5 602 c 128,-1,1
EndSplineSet
EndChar

StartChar: bullet
Encoding: 8226 8226 172
Width: 613
Flags: HW
HStem: 476 453<172.287 443.354>
VStem: 89 435<558.816 843.336>
LayerCount: 2
Fore
SplineSet
105 609.5 m 128,-1,1
 89 650 89 650 89 699 c 128,-1,2
 89 748 89 748 105 790.5 c 128,-1,3
 121 833 121 833 150 864 c 0,4,5
 212 929 212 929 307 929 c 0,6,7
 404 929 404 929 466 864 c 0,8,9
 524 801 524 801 524 698 c 0,10,11
 524 547 524 547 397 493 c 0,12,13
 357 476 357 476 308 476 c 128,-1,14
 259 476 259 476 219 493 c 128,-1,15
 179 510 179 510 150 539.5 c 128,-1,0
 121 569 121 569 105 609.5 c 128,-1,1
EndSplineSet
EndChar

StartChar: foundryicon
Encoding: 65547 -1 173
Width: 2163
Flags: HW
HStem: 283 67<360.504 437.453> 342 61<1915 1961.69> 367 51<1044.28 1086.76> 369 80<1343.83 1407.14> 383 51<234.23 324 869.434 944 1159 1182 1278 1307> 432 43<1917.78 1961.04> 459 37<834 883 1045.31 1087> 514 53<991 1064.15> 537 45<1917.66 1961.06> 584 63<190.999 259.456 1182 1206>
VStem: 104 78<441.043 579.099> 260 64<551 584> 340 78<526.288 578> 461 88<514 578> 582 127<373 434> 760 184<380.432 434 459.627 556.734> 883 67<496.121 527.525> 975 69<418.015 454.579> 1087 95<418.001 434> 1087 72<434 455 492 513.445> 1182 96<584 647> 1206 101<369.682 434> 1206 72<434 584> 1333 86<380.861 436.624> 1432 73<423.089 523.701> 1563 73<422.191 523.945> 1665 127<373 434> 1849 68<403 433.377 475.007 536.646> 1962 70<283 340.961 475.779 525.449>
LayerCount: 2
Fore
SplineSet
2001 561 m 1,0,1
 2020 582 2020 582 2035 582 c 128,-1,2
 2050 582 2050 582 2062 578 c 1,3,-1
 2062 514 l 1,4,-1
 2030 514 l 1,5,6
 2032 511 2032 511 2032 508 c 0,7,8
 2032 432 2032 432 1928 432 c 0,9,10
 1919 432 1919 432 1915 434 c 1,11,-1
 1915 403 l 1,12,-1
 1952 403 l 2,13,14
 2032 403 2032 403 2032 330 c 0,15,16
 2032 318 2032 318 2019 283 c 1,17,-1
 1964 283 l 1,18,-1
 1964 342 l 1,19,-1
 1870 342 l 1,20,21
 1849 357 1849 357 1849 389.5 c 128,-1,22
 1849 422 1849 422 1878 449 c 1,23,24
 1849 466 1849 466 1849 502 c 128,-1,25
 1849 538 1849 538 1872 560 c 128,-1,26
 1895 582 1895 582 1934 582 c 128,-1,27
 1973 582 1973 582 2001 561 c 1,0,1
466 298 m 128,-1,29
 444 283 444 283 410 283 c 128,-1,30
 376 283 376 283 360 297 c 1,31,-1
 360 350 l 1,32,-1
 395 350 l 2,33,34
 428 350 428 350 438 373 c 1,35,-1
 410 373 l 1,36,-1
 360 514 l 1,37,-1
 340 514 l 1,38,-1
 340 578 l 1,39,-1
 418 578 l 1,40,-1
 446 477 l 1,41,-1
 457 428 l 1,42,-1
 479 514 l 1,43,-1
 461 514 l 1,44,-1
 461 578 l 1,45,-1
 549 578 l 1,46,-1
 549 514 l 1,47,-1
 502 358 l 2,48,28
 488 313 488 313 466 298 c 128,-1,29
139.5 607.5 m 128,-1,50
 175 647 175 647 226 647 c 128,-1,51
 277 647 277 647 324 633 c 1,52,-1
 324 551 l 1,53,-1
 260 551 l 1,54,-1
 260 582 l 1,55,56
 256 584 256 584 249 584 c 0,57,58
 182 584 182 584 182 509 c 128,-1,59
 182 434 182 434 258 434 c 2,60,-1
 324 434 l 1,61,-1
 324 383 l 1,62,63
 288 367 288 367 232.5 367 c 128,-1,64
 177 367 177 367 140.5 403 c 128,-1,65
 104 439 104 439 104 503.5 c 128,-1,49
 104 568 104 568 139.5 607.5 c 128,-1,50
1608.5 395.5 m 128,-1,67
 1581 367 1581 367 1532 367 c 0,68,69
 1432 367 1432 367 1432 473 c 256,70,71
 1432 524 1432 524 1459 553 c 128,-1,72
 1486 582 1486 582 1534 582 c 256,73,74
 1582 582 1582 582 1609 554 c 128,-1,75
 1636 526 1636 526 1636 475 c 256,76,66
 1636 424 1636 424 1608.5 395.5 c 128,-1,67
1087 494 m 2,77,78
 1087 514 1087 514 1042 514 c 2,79,-1
 991 514 l 1,80,-1
 991 567 l 1,81,82
 1038 582 1038 582 1065 582 c 0,83,84
 1159 582 1159 582 1159 504 c 2,85,-1
 1159 434 l 1,86,-1
 1182 434 l 1,87,-1
 1182 379 l 1,88,89
 1165 369 1165 369 1136 369 c 128,-1,90
 1107 369 1107 369 1096 383 c 1,91,92
 1076 367 1076 367 1045.5 367 c 128,-1,93
 1015 367 1015 367 995 383 c 128,-1,94
 975 399 975 399 975 430 c 0,95,96
 975 492 975 492 1055 492 c 2,97,-1
 1087 492 l 1,98,-1
 1087 494 l 2,77,78
834 459 m 1,99,100
 843 434 843 434 885 434 c 2,101,-1
 944 434 l 1,102,-1
 944 381 l 1,103,104
 914 367 914 367 868 367 c 0,105,106
 760 367 760 367 760 471 c 0,107,108
 760 582 760 582 860 582 c 0,109,110
 902 582 902 582 926 557.5 c 128,-1,111
 950 533 950 533 950 506 c 128,-1,112
 950 479 950 479 946 459 c 1,113,-1
 834 459 l 1,99,100
1751 545 m 1,114,115
 1772 582 1772 582 1794.5 582 c 128,-1,116
 1817 582 1817 582 1827 578 c 1,117,-1
 1827 514 l 1,118,-1
 1757 514 l 1,119,-1
 1757 434 l 1,120,-1
 1792 434 l 1,121,-1
 1792 373 l 1,122,-1
 1665 373 l 1,123,-1
 1665 434 l 1,124,-1
 1683 434 l 1,125,-1
 1683 514 l 1,126,-1
 1661 514 l 1,127,-1
 1661 578 l 1,128,-1
 1731 578 l 1,129,-1
 1751 545 l 1,114,115
668 545 m 1,130,131
 690 582 690 582 712 582 c 128,-1,132
 734 582 734 582 743 578 c 1,133,-1
 743 514 l 1,134,-1
 674 514 l 1,135,-1
 674 434 l 1,136,-1
 709 434 l 1,137,-1
 709 373 l 1,138,-1
 582 373 l 1,139,-1
 582 434 l 1,140,-1
 602 434 l 1,141,-1
 602 514 l 1,142,-1
 578 514 l 1,143,-1
 578 578 l 1,144,-1
 647 578 l 1,145,-1
 668 545 l 1,130,131
1206 584 m 1,146,-1
 1182 584 l 1,147,-1
 1182 647 l 1,148,-1
 1278 647 l 1,149,-1
 1278 434 l 1,150,-1
 1307 434 l 1,151,-1
 1307 377 l 1,152,153
 1286 369 1286 369 1262 369 c 0,154,155
 1206 369 1206 369 1206 426 c 2,156,-1
 1206 584 l 1,146,-1
1333 408 m 0,157,158
 1333 449 1333 449 1374 449 c 0,159,160
 1396 449 1396 449 1407.5 437 c 128,-1,161
 1419 425 1419 425 1419 408.5 c 128,-1,162
 1419 392 1419 392 1407.5 380.5 c 128,-1,163
 1396 369 1396 369 1375 369 c 128,-1,164
 1354 369 1354 369 1343.5 380.5 c 128,-1,165
 1333 392 1333 392 1333 408 c 0,157,158
1534 524 m 256,166,167
 1505 524 1505 524 1505 473 c 128,-1,168
 1505 422 1505 422 1534 422 c 256,169,170
 1563 422 1563 422 1563 473 c 128,-1,171
 1563 524 1563 524 1534 524 c 256,166,167
1917 506 m 256,172,173
 1917 475 1917 475 1942 475 c 0,174,175
 1962 475 1962 475 1962 506 c 256,176,177
 1962 537 1962 537 1942 537 c 0,178,179
 1917 537 1917 537 1917 506 c 256,172,173
1071 455 m 2,180,181
 1044 455 1044 455 1044 436.5 c 128,-1,182
 1044 418 1044 418 1065 418 c 0,183,184
 1080 418 1080 418 1087 424 c 1,185,-1
 1087 455 l 1,186,-1
 1071 455 l 2,180,181
883 496 m 1,187,188
 883 528 883 528 858 528 c 0,189,190
 839 528 839 528 831 496 c 1,191,-1
 883 496 l 1,187,188
EndSplineSet
EndChar

StartChar: e
Encoding: 101 101 176
Width: 982
Flags: HW
HStem: -30 65<469.948 701.985> 532 45<337 660> 989 45<444.332 582.369>
VStem: 81 256<235.359 532 577 751.785> 663 233<590 819.688>
LayerCount: 2
Fore
SplineSet
905 187 m 1,0,1
 777 -30 777 -30 538 -30 c 0,2,3
 309 -30 309 -30 191 117 c 0,4,5
 81 254 81 254 81 502 c 0,6,7
 81 712 81 712 182 862 c 0,8,9
 296 1034 296 1034 510 1034 c 0,10,11
 712 1034 712 1034 810 898 c 0,12,13
 896 777 896 777 896 557 c 1,14,-1
 869 532 l 1,15,-1
 337 532 l 1,16,-1
 337 471 l 2,17,18
 337 35 337 35 585 35 c 0,19,20
 761 35 761 35 866 211 c 1,21,-1
 905 187 l 1,0,1
663 688 m 0,22,23
 663 989 663 989 514 989 c 0,24,25
 379 989 379 989 349 737 c 0,26,27
 340 662 340 662 337 577 c 1,28,-1
 660 590 l 1,29,30
 663 641 663 641 663 688 c 0,22,23
EndSplineSet
EndChar

StartChar: oe
Encoding: 339 339 177
Width: 1620
Flags: HW
HStem: -30 45<463.237 610.866> -22 65<1108.74 1340.99> 540 45<976 1299> 989 45<460.88 617.195 1082.16 1222.34>
VStem: 80 256<237.898 736.936> 736 240<193.614 540 585 859.98> 1302 233<598 822.286>
LayerCount: 2
Fore
SplineSet
1544 195 m 1,0,1
 1416 -22 1416 -22 1177 -22 c 0,2,3
 1056 -22 1056 -22 1000 3.5 c 128,-1,4
 944 29 944 29 910.5 60 c 128,-1,5
 877 91 877 91 848 139 c 1,6,-1
 846 139 l 1,7,8
 766 3 766 3 629 -22 c 0,9,10
 586 -30 586 -30 539 -30 c 0,11,12
 310 -30 310 -30 189 126 c 0,13,14
 80 266 80 266 80 496 c 128,-1,15
 80 726 80 726 209 880 c 0,16,17
 339 1034 339 1034 540 1034 c 128,-1,18
 741 1034 741 1034 844 868 c 1,19,-1
 846 868 l 1,20,21
 951 1034 951 1034 1149 1034 c 0,22,23
 1535 1034 1535 1034 1535 565 c 1,24,-1
 1508 540 l 1,25,-1
 976 540 l 1,26,-1
 976 479 l 2,27,28
 976 43 976 43 1224 43 c 0,29,30
 1400 43 1400 43 1505 219 c 1,31,-1
 1544 195 l 1,0,1
336 508 m 0,32,33
 336 15 336 15 536 15 c 128,-1,34
 736 15 736 15 736 496 c 0,35,36
 736 866 736 866 632 956 c 0,37,38
 593 989 593 989 537 989 c 128,-1,39
 481 989 481 989 443 952.5 c 128,-1,40
 405 916 405 916 381 852 c 0,41,42
 336 732 336 732 336 508 c 0,32,33
1224 968.5 m 128,-1,44
 1195 989 1195 989 1149 989 c 128,-1,45
 1103 989 1103 989 1070 958 c 128,-1,46
 1037 927 1037 927 1017 872 c 0,47,48
 983 779 983 779 976 585 c 1,49,-1
 1299 598 l 1,50,51
 1302 649 1302 649 1302 706 c 128,-1,52
 1302 763 1302 763 1294.5 817.5 c 128,-1,53
 1287 872 1287 872 1270 910 c 128,-1,43
 1253 948 1253 948 1224 968.5 c 128,-1,44
EndSplineSet
EndChar

StartChar: Agrave
Encoding: 192 192 178
Width: 1237
Flags: HW
HStem: 0 45<-6 115 172 307 719 854 1122 1254> 414 60<306 714> 1448 20G<581.305 639.921>
LayerCount: 2
Fore
SplineSet
736 414 m 1,0,-1
 288 414 l 1,1,-1
 172 55 l 1,2,-1
 307 45 l 1,3,-1
 307 0 l 1,4,-1
 -6 0 l 1,5,-1
 -6 45 l 1,6,-1
 115 55 l 1,7,-1
 588 1468 l 1,8,-1
 633 1468 l 1,9,-1
 1122 55 l 1,10,-1
 1254 45 l 1,11,-1
 1254 0 l 1,12,-1
 719 0 l 1,13,-1
 719 45 l 1,14,-1
 854 55 l 1,15,-1
 736 414 l 1,0,-1
306 474 m 1,16,-1
 714 482 l 1,17,-1
 514 1096 l 1,18,-1
 510 1096 l 1,19,-1
 306 474 l 1,16,-1
377 1622 m 1,20,21
 286 1643 286 1643 286 1719 c 0,22,23
 286 1780 286 1780 346 1799 c 0,24,25
 362 1804 362 1804 379 1804 c 0,26,27
 409 1804 409 1804 451 1771 c 2,28,-1
 693 1580 l 1,29,-1
 678 1542 l 1,30,-1
 377 1622 l 1,20,21
EndSplineSet
EndChar

StartChar: Aacute
Encoding: 193 193 179
Width: 1237
Flags: HW
HStem: 0 45<-6 115 172 307 719 854 1122 1254> 414 60<306 714> 1448 20G<581.305 639.921>
LayerCount: 2
Fore
SplineSet
736 414 m 1,0,-1
 288 414 l 1,1,-1
 172 55 l 1,2,-1
 307 45 l 1,3,-1
 307 0 l 1,4,-1
 -6 0 l 1,5,-1
 -6 45 l 1,6,-1
 115 55 l 1,7,-1
 588 1468 l 1,8,-1
 633 1468 l 1,9,-1
 1122 55 l 1,10,-1
 1254 45 l 1,11,-1
 1254 0 l 1,12,-1
 719 0 l 1,13,-1
 719 45 l 1,14,-1
 854 55 l 1,15,-1
 736 414 l 1,0,-1
306 474 m 1,16,-1
 714 482 l 1,17,-1
 514 1096 l 1,18,-1
 510 1096 l 1,19,-1
 306 474 l 1,16,-1
512 1535 m 1,20,-1
 497 1573 l 1,21,-1
 739 1764 l 2,22,23
 784 1799 784 1799 808 1799 c 128,-1,24
 832 1799 832 1799 847 1794 c 128,-1,25
 862 1789 862 1789 874 1778 c 0,26,27
 903 1753 903 1753 903 1723.5 c 128,-1,28
 903 1694 903 1694 895.5 1678 c 128,-1,29
 888 1662 888 1662 876 1649 c 0,30,31
 852 1624 852 1624 813 1615 c 1,32,-1
 512 1535 l 1,20,-1
EndSplineSet
EndChar

StartChar: Acircumflex
Encoding: 194 194 180
Width: 1237
Flags: HW
HStem: 0 45<-6 115 172 307 719 854 1122 1254> 414 60<306 714> 1448 20G<581.305 639.921>
LayerCount: 2
Fore
SplineSet
736 414 m 1,0,-1
 288 414 l 1,1,-1
 172 55 l 1,2,-1
 307 45 l 1,3,-1
 307 0 l 1,4,-1
 -6 0 l 1,5,-1
 -6 45 l 1,6,-1
 115 55 l 1,7,-1
 588 1468 l 1,8,-1
 633 1468 l 1,9,-1
 1122 55 l 1,10,-1
 1254 45 l 1,11,-1
 1254 0 l 1,12,-1
 719 0 l 1,13,-1
 719 45 l 1,14,-1
 854 55 l 1,15,-1
 736 414 l 1,0,-1
306 474 m 1,16,-1
 714 482 l 1,17,-1
 514 1096 l 1,18,-1
 510 1096 l 1,19,-1
 306 474 l 1,16,-1
617 1854 m 1,20,-1
 621 1854 l 1,21,-1
 916 1579 l 1,22,-1
 854 1532 l 1,23,-1
 613 1693 l 1,24,-1
 609 1693 l 1,25,-1
 375 1529 l 1,26,-1
 320 1575 l 1,27,-1
 617 1854 l 1,20,-1
EndSplineSet
EndChar

StartChar: Atilde
Encoding: 195 195 181
Width: 1237
Flags: HW
HStem: 0 45<-6 115 172 307 719 854 1122 1254> 414 60<306 714> 1448 20G<581.305 639.921> 1599 142<628.41 845.883> 1690 135<384.112 597.764>
VStem: 289 36<1619.63 1628.75> 897 39<1809.93 1824.78>
LayerCount: 2
Fore
SplineSet
736 414 m 1,0,-1
 288 414 l 1,1,-1
 172 55 l 1,2,-1
 307 45 l 1,3,-1
 307 0 l 1,4,-1
 -6 0 l 1,5,-1
 -6 45 l 1,6,-1
 115 55 l 1,7,-1
 588 1468 l 1,8,-1
 633 1468 l 1,9,-1
 1122 55 l 1,10,-1
 1254 45 l 1,11,-1
 1254 0 l 1,12,-1
 719 0 l 1,13,-1
 719 45 l 1,14,-1
 854 55 l 1,15,-1
 736 414 l 1,0,-1
306 474 m 1,16,-1
 714 482 l 1,17,-1
 514 1096 l 1,18,-1
 510 1096 l 1,19,-1
 306 474 l 1,16,-1
742 1741 m 0,20,21
 835 1741 835 1741 897 1833 c 1,22,-1
 936 1820 l 1,23,24
 905 1657 905 1657 796 1612 c 0,25,26
 764 1599 764 1599 724.5 1599 c 128,-1,27
 685 1599 685 1599 654.5 1613 c 128,-1,28
 624 1627 624 1627 598.5 1644.5 c 128,-1,29
 573 1662 573 1662 548 1676 c 128,-1,30
 523 1690 523 1690 487 1690 c 0,31,32
 389 1690 389 1690 325 1610 c 1,33,-1
 289 1626 l 1,34,35
 326 1758 326 1758 427 1808 c 0,36,37
 463 1825 463 1825 507.5 1825 c 128,-1,38
 552 1825 552 1825 580.5 1812 c 128,-1,39
 609 1799 609 1799 632.5 1783 c 128,-1,40
 656 1767 656 1767 680.5 1754 c 128,-1,41
 705 1741 705 1741 742 1741 c 0,20,21
EndSplineSet
EndChar

StartChar: Adieresis
Encoding: 196 196 182
Width: 1237
Flags: HW
HStem: 0 45<-6 115 172 307 719 854 1122 1254> 414 60<306 714> 1448 20G<581.305 639.921> 1572 269<332.897 521.179 692.897 881.179>
VStem: 305 245<1621.91 1812.83> 665 245<1621.91 1812.83>
LayerCount: 2
Fore
SplineSet
736 414 m 1,0,-1
 288 414 l 1,1,-1
 172 55 l 1,2,-1
 307 45 l 1,3,-1
 307 0 l 1,4,-1
 -6 0 l 1,5,-1
 -6 45 l 1,6,-1
 115 55 l 1,7,-1
 588 1468 l 1,8,-1
 633 1468 l 1,9,-1
 1122 55 l 1,10,-1
 1254 45 l 1,11,-1
 1254 0 l 1,12,-1
 719 0 l 1,13,-1
 719 45 l 1,14,-1
 854 55 l 1,15,-1
 736 414 l 1,0,-1
306 474 m 1,16,-1
 714 482 l 1,17,-1
 514 1096 l 1,18,-1
 510 1096 l 1,19,-1
 306 474 l 1,16,-1
305 1707 m 256,20,21
 305 1797 305 1797 376 1830 c 0,22,23
 399 1841 399 1841 427 1841 c 256,24,25
 513 1841 513 1841 542 1760 c 0,26,27
 550 1735 550 1735 550 1707 c 256,28,29
 550 1650 550 1650 526 1621 c 0,30,31
 483 1572 483 1572 427 1572 c 256,32,33
 342 1572 342 1572 314 1654 c 0,34,35
 305 1679 305 1679 305 1707 c 256,20,21
665 1707 m 256,36,37
 665 1797 665 1797 736 1830 c 0,38,39
 759 1841 759 1841 787 1841 c 256,40,41
 873 1841 873 1841 902 1760 c 0,42,43
 910 1735 910 1735 910 1707 c 256,44,45
 910 1650 910 1650 886 1621 c 0,46,47
 843 1572 843 1572 787 1572 c 256,48,49
 702 1572 702 1572 674 1654 c 0,50,51
 665 1679 665 1679 665 1707 c 256,36,37
EndSplineSet
EndChar

StartChar: Aring
Encoding: 197 197 183
Width: 1237
Flags: HW
HStem: 0 45<-6 115 172 307 719 854 1122 1254> 414 60<306 714> 1448 20G<581.305 639.921> 1514 56<531.849 687.651> 1818 56<531.382 687.263>
VStem: 362 139<1586.53 1801.74> 718 140<1586.53 1802.12>
LayerCount: 2
Fore
SplineSet
736 414 m 1,0,-1
 288 414 l 1,1,-1
 172 55 l 1,2,-1
 307 45 l 1,3,-1
 307 0 l 1,4,-1
 -6 0 l 1,5,-1
 -6 45 l 1,6,-1
 115 55 l 1,7,-1
 588 1468 l 1,8,-1
 633 1468 l 1,9,-1
 1122 55 l 1,10,-1
 1254 45 l 1,11,-1
 1254 0 l 1,12,-1
 719 0 l 1,13,-1
 719 45 l 1,14,-1
 854 55 l 1,15,-1
 736 414 l 1,0,-1
306 474 m 1,16,-1
 714 482 l 1,17,-1
 514 1096 l 1,18,-1
 510 1096 l 1,19,-1
 306 474 l 1,16,-1
858 1692 m 0,20,21
 858 1514 858 1514 610 1514 c 128,-1,22
 362 1514 362 1514 362 1692 c 0,23,24
 362 1826 362 1826 506 1862 c 0,25,26
 552 1874 552 1874 608 1874 c 0,27,28
 728 1874 728 1874 793 1828 c 128,-1,29
 858 1782 858 1782 858 1692 c 0,20,21
609.5 1818 m 128,-1,31
 501 1818 501 1818 501 1694 c 128,-1,32
 501 1570 501 1570 609.5 1570 c 128,-1,33
 718 1570 718 1570 718 1694 c 128,-1,30
 718 1818 718 1818 609.5 1818 c 128,-1,31
EndSplineSet
EndChar

StartChar: Ccedilla
Encoding: 199 199 184
Width: 1253
Flags: HW
HStem: -560 50<435.706 514.984> -216 80<539.15 718.75> -35 73<609.767 916.698> 1031 273<907.859 1019.88> 1405 57<650.346 923.098>
VStem: 98 266<376.271 983.605> 663 176<-384.815 -218.52>
LayerCount: 2
Fore
SplineSet
538 -171 m 1,0,1
 604 -136 604 -136 680.5 -136 c 128,-1,2
 757 -136 757 -136 798 -172 c 128,-1,3
 839 -208 839 -208 839 -260 c 128,-1,4
 839 -312 839 -312 819 -348.5 c 128,-1,5
 799 -385 799 -385 766 -415.5 c 128,-1,6
 733 -446 733 -446 691 -470.5 c 128,-1,7
 649 -495 649 -495 604 -513 c 0,8,9
 516 -549 516 -549 438 -560 c 1,10,-1
 430 -510 l 1,11,12
 535 -495 535 -495 604 -421 c 0,13,14
 663 -356 663 -356 663 -286 c 128,-1,15
 663 -216 663 -216 598 -216 c 0,16,17
 548 -216 548 -216 505 -246 c 1,18,-1
 471 -218 l 1,19,-1
 523 -11 l 1,20,21
 291 48 291 48 184 256 c 0,22,23
 98 424 98 424 98 688 c 0,24,25
 98 990 98 990 256 1210 c 0,26,27
 367 1366 367 1366 551 1430 c 0,28,29
 645 1462 645 1462 741.5 1462 c 128,-1,30
 838 1462 838 1462 909 1439 c 128,-1,31
 980 1416 980 1416 1035 1377 c 0,32,33
 1155 1292 1155 1292 1155 1174 c 0,34,35
 1155 1080 1155 1080 1075 1043 c 0,36,37
 1049 1031 1049 1031 1000.5 1031 c 128,-1,38
 952 1031 952 1031 913.5 1069.5 c 128,-1,39
 875 1108 875 1108 875 1152 c 128,-1,40
 875 1196 875 1196 885 1221 c 128,-1,41
 895 1246 895 1246 912 1264 c 0,42,43
 948 1304 948 1304 1004 1304 c 0,44,45
 1008 1304 1008 1304 1012 1304 c 128,-1,46
 1016 1304 1016 1304 1020 1303 c 1,47,-1
 1020 1307 l 1,48,49
 990 1360 990 1360 876 1393 c 0,50,51
 834 1405 834 1405 762 1405 c 128,-1,52
 690 1405 690 1405 613.5 1356.5 c 128,-1,53
 537 1308 537 1308 482 1218 c 0,54,55
 364 1027 364 1027 364 717 c 0,56,57
 364 437 364 437 456 250 c 0,58,59
 559 38 559 38 754 38 c 0,60,61
 895 38 895 38 1008 128 c 0,62,63
 1104 204 1104 204 1165 339 c 1,64,-1
 1212 317 l 1,65,66
 1068 -35 1068 -35 731 -35 c 0,67,68
 659 -35 659 -35 586 -24 c 1,69,-1
 538 -171 l 1,0,1
EndSplineSet
EndChar

StartChar: Egrave
Encoding: 200 200 185
Width: 1210
Flags: HW
HStem: 0 55<73 227 487.52 891.203> 710 55<483.376 710.825> 984 20G<787 842> 1020 21G<1009.5 1068> 1372 55<73 227 486.619 840.291>
VStem: 227 256<62.1191 709.031 765.875 1365.4> 787 55<467 622.75 846.125 1004> 1026 42<1020 1112.3> 1067 43<314.608 408>
LayerCount: 2
Fore
SplineSet
692 1372 m 0,0,1
 599 1372 599 1372 483 1362 c 1,2,-1
 483 768 l 1,3,4
 494 767 494 767 509 766.5 c 128,-1,5
 524 766 524 766 539 765.5 c 128,-1,6
 554 765 554 765 568 765 c 2,7,-1
 592 765 l 2,8,9
 697 765 697 765 740 814 c 0,10,11
 787 868 787 868 787 1004 c 1,12,-1
 842 1004 l 1,13,-1
 842 467 l 1,14,-1
 787 467 l 1,15,16
 787 663 787 663 680 698 c 0,17,18
 643 710 643 710 614 710 c 2,19,-1
 572 710 l 2,20,21
 559 710 559 710 543 709.5 c 128,-1,22
 527 709 527 709 511 708.5 c 128,-1,23
 495 708 495 708 483 707 c 1,24,-1
 483 65 l 1,25,26
 628 55 628 55 727 55 c 128,-1,27
 826 55 826 55 882.5 78 c 128,-1,28
 939 101 939 101 975 146 c 0,29,30
 1031 216 1031 216 1067 408 c 1,31,-1
 1110 408 l 1,32,-1
 1099 0 l 1,33,-1
 73 0 l 1,34,-1
 73 45 l 1,35,-1
 227 55 l 1,36,-1
 227 1372 l 1,37,-1
 73 1382 l 1,38,-1
 73 1427 l 1,39,-1
 1058 1427 l 1,40,-1
 1068 1020 l 1,41,-1
 1026 1020 l 1,42,43
 993 1199 993 1199 936 1272 c 0,44,45
 859 1372 859 1372 692 1372 c 0,0,1
478 1622 m 1,46,47
 387 1643 387 1643 387 1719 c 0,48,49
 387 1780 387 1780 447 1799 c 0,50,51
 463 1804 463 1804 480 1804 c 0,52,53
 510 1804 510 1804 552 1771 c 2,54,-1
 794 1580 l 1,55,-1
 779 1542 l 1,56,-1
 478 1622 l 1,46,47
EndSplineSet
EndChar

StartChar: Eacute
Encoding: 201 201 186
Width: 1210
Flags: HW
HStem: 0 55<73 227 487.52 891.203> 710 55<483.376 710.825> 984 20G<787 842> 1020 21G<1009.5 1068> 1372 55<73 227 486.619 840.291>
VStem: 227 256<62.1191 709.031 765.875 1365.4> 787 55<467 622.75 846.125 1004> 1026 42<1020 1112.3> 1067 43<314.608 408>
LayerCount: 2
Fore
SplineSet
692 1372 m 0,0,1
 599 1372 599 1372 483 1362 c 1,2,-1
 483 768 l 1,3,4
 494 767 494 767 509 766.5 c 128,-1,5
 524 766 524 766 539 765.5 c 128,-1,6
 554 765 554 765 568 765 c 2,7,-1
 592 765 l 2,8,9
 697 765 697 765 740 814 c 0,10,11
 787 868 787 868 787 1004 c 1,12,-1
 842 1004 l 1,13,-1
 842 467 l 1,14,-1
 787 467 l 1,15,16
 787 663 787 663 680 698 c 0,17,18
 643 710 643 710 614 710 c 2,19,-1
 572 710 l 2,20,21
 559 710 559 710 543 709.5 c 128,-1,22
 527 709 527 709 511 708.5 c 128,-1,23
 495 708 495 708 483 707 c 1,24,-1
 483 65 l 1,25,26
 628 55 628 55 727 55 c 128,-1,27
 826 55 826 55 882.5 78 c 128,-1,28
 939 101 939 101 975 146 c 0,29,30
 1031 216 1031 216 1067 408 c 1,31,-1
 1110 408 l 1,32,-1
 1099 0 l 1,33,-1
 73 0 l 1,34,-1
 73 45 l 1,35,-1
 227 55 l 1,36,-1
 227 1372 l 1,37,-1
 73 1382 l 1,38,-1
 73 1427 l 1,39,-1
 1058 1427 l 1,40,-1
 1068 1020 l 1,41,-1
 1026 1020 l 1,42,43
 993 1199 993 1199 936 1272 c 0,44,45
 859 1372 859 1372 692 1372 c 0,0,1
573 1535 m 1,46,-1
 558 1573 l 1,47,-1
 800 1764 l 2,48,49
 845 1799 845 1799 869 1799 c 128,-1,50
 893 1799 893 1799 908 1794 c 128,-1,51
 923 1789 923 1789 936 1778 c 0,52,53
 964 1753 964 1753 964 1723.5 c 128,-1,54
 964 1694 964 1694 956.5 1678 c 128,-1,55
 949 1662 949 1662 936 1649 c 0,56,57
 913 1624 913 1624 874 1615 c 1,58,-1
 573 1535 l 1,46,-1
EndSplineSet
EndChar

StartChar: Ecircumflex
Encoding: 202 202 187
Width: 1210
Flags: HW
HStem: 0 55<73 227 487.52 891.203> 710 55<483.376 710.825> 984 20G<787 842> 1020 21G<1009.5 1068> 1372 55<73 227 486.619 840.291>
VStem: 227 256<62.1191 709.031 765.875 1365.4> 787 55<467 622.75 846.125 1004> 1026 42<1020 1112.3> 1067 43<314.608 408>
LayerCount: 2
Fore
SplineSet
692 1372 m 0,0,1
 599 1372 599 1372 483 1362 c 1,2,-1
 483 768 l 1,3,4
 494 767 494 767 509 766.5 c 128,-1,5
 524 766 524 766 539 765.5 c 128,-1,6
 554 765 554 765 568 765 c 2,7,-1
 592 765 l 2,8,9
 697 765 697 765 740 814 c 0,10,11
 787 868 787 868 787 1004 c 1,12,-1
 842 1004 l 1,13,-1
 842 467 l 1,14,-1
 787 467 l 1,15,16
 787 663 787 663 680 698 c 0,17,18
 643 710 643 710 614 710 c 2,19,-1
 572 710 l 2,20,21
 559 710 559 710 543 709.5 c 128,-1,22
 527 709 527 709 511 708.5 c 128,-1,23
 495 708 495 708 483 707 c 1,24,-1
 483 65 l 1,25,26
 628 55 628 55 727 55 c 128,-1,27
 826 55 826 55 882.5 78 c 128,-1,28
 939 101 939 101 975 146 c 0,29,30
 1031 216 1031 216 1067 408 c 1,31,-1
 1110 408 l 1,32,-1
 1099 0 l 1,33,-1
 73 0 l 1,34,-1
 73 45 l 1,35,-1
 227 55 l 1,36,-1
 227 1372 l 1,37,-1
 73 1382 l 1,38,-1
 73 1427 l 1,39,-1
 1058 1427 l 1,40,-1
 1068 1020 l 1,41,-1
 1026 1020 l 1,42,43
 993 1199 993 1199 936 1272 c 0,44,45
 859 1372 859 1372 692 1372 c 0,0,1
658 1854 m 1,46,-1
 662 1854 l 1,47,-1
 957 1579 l 1,48,-1
 895 1532 l 1,49,-1
 654 1693 l 1,50,-1
 650 1693 l 1,51,-1
 416 1529 l 1,52,-1
 361 1575 l 1,53,-1
 658 1854 l 1,46,-1
EndSplineSet
EndChar

StartChar: Edieresis
Encoding: 203 203 188
Width: 1210
Flags: HW
HStem: 0 55<73 227 487.52 891.203> 710 55<483.376 710.825> 984 20G<787 842> 1020 21G<1009.5 1068> 1372 55<73 227 486.619 840.291> 1572 269<354.125 541.662 714.125 901.662>
VStem: 227 256<62.1191 709.031 765.875 1365.4> 326 245<1621.91 1812.44> 686 245<1621.91 1812.44> 787 55<467 622.75 846.125 1004> 1026 42<1020 1112.3> 1067 43<314.608 408>
LayerCount: 2
Fore
SplineSet
692 1372 m 0,0,1
 599 1372 599 1372 483 1362 c 1,2,-1
 483 768 l 1,3,4
 494 767 494 767 509 766.5 c 128,-1,5
 524 766 524 766 539 765.5 c 128,-1,6
 554 765 554 765 568 765 c 2,7,-1
 592 765 l 2,8,9
 697 765 697 765 740 814 c 0,10,11
 787 868 787 868 787 1004 c 1,12,-1
 842 1004 l 1,13,-1
 842 467 l 1,14,-1
 787 467 l 1,15,16
 787 663 787 663 680 698 c 0,17,18
 643 710 643 710 614 710 c 2,19,-1
 572 710 l 2,20,21
 559 710 559 710 543 709.5 c 128,-1,22
 527 709 527 709 511 708.5 c 128,-1,23
 495 708 495 708 483 707 c 1,24,-1
 483 65 l 1,25,26
 628 55 628 55 727 55 c 128,-1,27
 826 55 826 55 882.5 78 c 128,-1,28
 939 101 939 101 975 146 c 0,29,30
 1031 216 1031 216 1067 408 c 1,31,-1
 1110 408 l 1,32,-1
 1099 0 l 1,33,-1
 73 0 l 1,34,-1
 73 45 l 1,35,-1
 227 55 l 1,36,-1
 227 1372 l 1,37,-1
 73 1382 l 1,38,-1
 73 1427 l 1,39,-1
 1058 1427 l 1,40,-1
 1068 1020 l 1,41,-1
 1026 1020 l 1,42,43
 993 1199 993 1199 936 1272 c 0,44,45
 859 1372 859 1372 692 1372 c 0,0,1
326 1707 m 256,46,47
 326 1797 326 1797 398 1830 c 0,48,49
 420 1841 420 1841 448 1841 c 256,50,51
 534 1841 534 1841 562 1760 c 0,52,53
 571 1735 571 1735 571 1707 c 256,54,55
 571 1650 571 1650 546 1621 c 0,56,57
 504 1572 504 1572 448 1572 c 256,58,59
 363 1572 363 1572 334 1654 c 0,60,61
 326 1679 326 1679 326 1707 c 256,46,47
686 1707 m 256,62,63
 686 1797 686 1797 758 1830 c 0,64,65
 780 1841 780 1841 808 1841 c 256,66,67
 894 1841 894 1841 922 1760 c 0,68,69
 931 1735 931 1735 931 1707 c 256,70,71
 931 1650 931 1650 906 1621 c 0,72,73
 864 1572 864 1572 808 1572 c 256,74,75
 723 1572 723 1572 694 1654 c 0,76,77
 686 1679 686 1679 686 1707 c 256,62,63
EndSplineSet
EndChar

StartChar: Igrave
Encoding: 204 204 189
Width: 710
Flags: HW
HStem: 0 45<73 227 483 637> 1382 45<73 227 483 637>
VStem: 227 256<55 1372>
LayerCount: 2
Fore
SplineSet
637 1382 m 1,0,-1
 483 1372 l 1,1,-1
 483 55 l 1,2,-1
 637 45 l 1,3,-1
 637 0 l 1,4,-1
 73 0 l 1,5,-1
 73 45 l 1,6,-1
 227 55 l 1,7,-1
 227 1372 l 1,8,-1
 73 1382 l 1,9,-1
 73 1427 l 1,10,-1
 637 1427 l 1,11,-1
 637 1382 l 1,0,-1
147 1622 m 1,12,13
 56 1643 56 1643 56 1719 c 0,14,15
 56 1780 56 1780 116 1799 c 0,16,17
 132 1804 132 1804 149 1804 c 0,18,19
 179 1804 179 1804 221 1771 c 2,20,-1
 463 1580 l 1,21,-1
 448 1542 l 1,22,-1
 147 1622 l 1,12,13
EndSplineSet
EndChar

StartChar: Iacute
Encoding: 205 205 190
Width: 710
Flags: HW
HStem: 0 45<73 227 483 637> 1382 45<73 227 483 637>
VStem: 227 256<55 1372>
LayerCount: 2
Fore
SplineSet
637 1382 m 1,0,-1
 483 1372 l 1,1,-1
 483 55 l 1,2,-1
 637 45 l 1,3,-1
 637 0 l 1,4,-1
 73 0 l 1,5,-1
 73 45 l 1,6,-1
 227 55 l 1,7,-1
 227 1372 l 1,8,-1
 73 1382 l 1,9,-1
 73 1427 l 1,10,-1
 637 1427 l 1,11,-1
 637 1382 l 1,0,-1
242 1535 m 1,12,-1
 227 1573 l 1,13,-1
 469 1764 l 2,14,15
 514 1799 514 1799 538 1799 c 128,-1,16
 562 1799 562 1799 577 1794 c 128,-1,17
 592 1789 592 1789 604 1778 c 0,18,19
 633 1753 633 1753 633 1723.5 c 128,-1,20
 633 1694 633 1694 625.5 1678 c 128,-1,21
 618 1662 618 1662 606 1649 c 0,22,23
 582 1624 582 1624 543 1615 c 1,24,-1
 242 1535 l 1,12,-1
EndSplineSet
EndChar

StartChar: Icircumflex
Encoding: 206 206 191
Width: 710
Flags: HW
HStem: 0 45<73 227 483 637> 1382 45<73 227 483 637>
VStem: 227 256<55 1372>
LayerCount: 2
Fore
SplineSet
637 1382 m 1,0,-1
 483 1372 l 1,1,-1
 483 55 l 1,2,-1
 637 45 l 1,3,-1
 637 0 l 1,4,-1
 73 0 l 1,5,-1
 73 45 l 1,6,-1
 227 55 l 1,7,-1
 227 1372 l 1,8,-1
 73 1382 l 1,9,-1
 73 1427 l 1,10,-1
 637 1427 l 1,11,-1
 637 1382 l 1,0,-1
357 1854 m 1,12,-1
 361 1854 l 1,13,-1
 656 1579 l 1,14,-1
 594 1532 l 1,15,-1
 353 1693 l 1,16,-1
 349 1693 l 1,17,-1
 115 1529 l 1,18,-1
 60 1575 l 1,19,-1
 357 1854 l 1,12,-1
EndSplineSet
EndChar

StartChar: Idieresis
Encoding: 207 207 192
Width: 710
Flags: HW
HStem: 0 45<73 227 483 637> 1382 45<73 227 483 637> 1572 269<72.8967 261.179 432.897 621.179>
VStem: 45 245<1621.91 1812.83> 227 256<55 1372> 405 245<1621.91 1812.83>
LayerCount: 2
Fore
SplineSet
637 1382 m 1,0,-1
 483 1372 l 1,1,-1
 483 55 l 1,2,-1
 637 45 l 1,3,-1
 637 0 l 1,4,-1
 73 0 l 1,5,-1
 73 45 l 1,6,-1
 227 55 l 1,7,-1
 227 1372 l 1,8,-1
 73 1382 l 1,9,-1
 73 1427 l 1,10,-1
 637 1427 l 1,11,-1
 637 1382 l 1,0,-1
45 1707 m 256,12,13
 45 1797 45 1797 116 1830 c 0,14,15
 139 1841 139 1841 167 1841 c 256,16,17
 253 1841 253 1841 282 1760 c 0,18,19
 290 1735 290 1735 290 1707 c 256,20,21
 290 1650 290 1650 266 1621 c 0,22,23
 223 1572 223 1572 167 1572 c 256,24,25
 82 1572 82 1572 54 1654 c 0,26,27
 45 1679 45 1679 45 1707 c 256,12,13
405 1707 m 256,28,29
 405 1797 405 1797 476 1830 c 0,30,31
 499 1841 499 1841 527 1841 c 256,32,33
 613 1841 613 1841 642 1760 c 0,34,35
 650 1735 650 1735 650 1707 c 256,36,37
 650 1650 650 1650 626 1621 c 0,38,39
 583 1572 583 1572 527 1572 c 256,40,41
 442 1572 442 1572 414 1654 c 0,42,43
 405 1679 405 1679 405 1707 c 256,28,29
EndSplineSet
EndChar

